SplineFontDB: 3.0
FontName: InconsolataLGC
FullName: Inconsolata LGC
FamilyName: Inconsolata LGC
Weight: Regular
Copyright: Original Roman version created by Raph Levien using his own tools and FontForge. Copyright 2006 Raph Levien. Hellenisation of the Roman font, by Dimosthenis Kaponis, using FontForge. Hellenic glyphs Copyright 2010-2012 Dimosthenis Kaponis. Released under the SIL Open Font License, http://scripts.sil.org/OFL.\n\nCyrillic glyphs added by MihailJP, using FontForge. Cyrillic glyphs Copyright 2012 MihailJP. Released under the SIL Open Font License, http://scripts.sil.org/OFL.\n\nSome glyphs modified by Greg Omelaenko, using FontForge.
UComments: "2005-8-26: Created." 
Version: 1.2
ItalicAngle: 0
UnderlinePosition: -101
UnderlineWidth: 50
Ascent: 840
Descent: 184
LayerCount: 2
Layer: 0 0 "Back"  1
Layer: 1 0 "Fore"  0
XUID: [1021 77 1780377399 11264577]
FSType: 8
OS2Version: 0
OS2_WeightWidthSlopeOnly: 0
OS2_UseTypoMetrics: 0
CreationTime: 1161020814
ModificationTime: 1459692026
PfmFamily: 17
TTFWeight: 500
TTFWidth: 5
LineGap: 205
VLineGap: 0
Panose: 2 11 6 9 3 0 3 0 0 0
OS2TypoAscent: 0
OS2TypoAOffset: 1
OS2TypoDescent: 0
OS2TypoDOffset: 1
OS2TypoLinegap: 0
OS2WinAscent: 0
OS2WinAOffset: 1
OS2WinDescent: 0
OS2WinDOffset: 1
HheadAscent: 0
HheadAOffset: 1
HheadDescent: 0
HheadDOffset: 1
OS2Vendor: 'PfEd'
Lookup: 1 0 0 "Polish kreska forms"  {"Polish kreska forms-1" ("pl" ) } ['locl' ('latn' <'PLK ' > ) ]
Lookup: 1 0 0 "Romanian comma accent"  {"Romanian comma accent-1"  } ['locl' ('latn' <'MOL ' 'ROM ' > ) ]
MarkAttachClasses: 1
DEI: 91125
LangName: 1033 
Encoding: UnicodeBmp
Compacted: 1
UnicodeInterp: none
NameList: Adobe Glyph List
DisplaySize: -72
AntiAlias: 1
FitToEm: 1
WinInfo: 32 16 4
BeginPrivate: 6
BlueValues 31 [-14 0 542 555 739 748 767 796]
OtherBlues 11 [-206 -198]
StemSnapH 16 [20 65 70 74 81]
StdHW 4 [70]
StemSnapV 7 [79 86]
StdVW 4 [86]
EndPrivate
Grid
358 1352 m 0
 358 -696 l 0
548.352 1351.68 m 0
 548.352 -696.32 l 0

StartChar: a
Encoding: 97 97 0
Width: 613
Flags: MW
TeX: 99 0
LayerCount: 2
Fore
SplineSet
118 478 m 0
 168 530 238 554 311 554 c 0
 395 554 464 523 500 464 c 0
 525 422 526 380 526 336 c 0
 526 0 l 0
 445 0 l 0
 445 59 l 0
 386 11 318 -13 251 -13 c 0
 137 -13 69 60 69 140 c 0
 69 200 108 263 193 295 c 0
 256 319 334 319 409 319 c 0
 415 319 421 319 427 319 c 0
 444 319 l 0
 444 339 l 0
 444 368 444 402 427 432 c 0
 412 458 380 484 315 484 c 0
 265 484 204 470 160 424 c 0
 118 478 l 0
447 254 m 0
 428 254 l 0
 408 254 386 254 364 254 c 0
 323 254 282 253 250 246 c 0
 182 230 155 185 155 145 c 0
 155 97 196 52 268 52 c 0
 339 52 392 96 411 116 c 0
 448 155 447 190 447 218 c 0
 447 254 l 0
EndSplineSet
Validated: 33
EndChar

StartChar: c
Encoding: 99 99 1
Width: 613
Flags: MW
TeX: 101 0
LayerCount: 2
Fore
SplineSet
552 453 m 4
 492 382 l 4
 483 389 489 400 484 409 c 4
 481 415 437 480 344 480 c 4
 244 480 165 404 165 280 c 4
 165 153 245 63 351 63 c 4
 405 63 458 88 495 130 c 4
 544 73 l 4
 492 17 420 -13 344 -13 c 4
 191 -13 77 108 77 271 c 4
 77 434 190 553 349 553 c 4
 436 553 509 516 552 453 c 4
EndSplineSet
Validated: 1
EndChar

StartChar: m
Encoding: 109 109 2
Width: 613
Flags: MW
TeX: 112 0
LayerCount: 2
Fore
SplineSet
55 0 m 0
 55 542 l 0
 134 542 l 0
 133 488 l 0
 158 526 200 555 244 555 c 0
 293 555 332 521 340 476 c 0
 362 524 410 555 462 555 c 0
 492 555 526 544 546 512 c 0
 568 481 568 443 568 404 c 0
 568 398 568 391 568 385 c 0
 568 -1 l 0
 487 -1 l 0
 487 384 l 0
 487 393 488 404 488 414 c 0
 488 431 486 448 480 463 c 0
 471 482 454 493 437 493 c 0
 404 493 383 458 374 443 c 0
 355 410 351 387 351 358 c 0
 351 0 l 0
 271 0 l 0
 271 377 l 0
 271 385 272 393 272 402 c 0
 272 417 271 434 266 449 c 0
 257 479 235 489 216 489 c 0
 194 489 170 475 151 439 c 0
 136 410 133 387 133 361 c 0
 133 0 l 0
 55 0 l 0
EndSplineSet
Validated: 1
EndChar

StartChar: s
Encoding: 115 115 3
Width: 613
Flags: MW
TeX: 118 0
LayerCount: 2
Fore
SplineSet
523 470 m 0
 473 395 l 0
 471 395 467 399 467 406 c 0
 467 410 467 412 464 416 c 0
 442 443 391 490 314 490 c 0
 253 490 200 461 200 417 c 0
 200 399 209 373 253 351 c 0
 304 327 392 314 453 280 c 0
 516 244 532 195 532 157 c 0
 532 75 455 -12 307 -12 c 0
 225 -12 141 15 78 74 c 0
 127 159 l 0
 133 156 132 150 132 148 c 0
 132 143 132 140 136 135 c 0
 153 116 212 59 305 59 c 0
 382 59 444 94 444 145 c 0
 444 165 435 192 390 214 c 0
 350 233 291 247 245 264 c 0
 216 275 113 309 113 404 c 0
 113 485 195 555 321 555 c 0
 401 555 473 525 523 470 c 0
EndSplineSet
Validated: 1
EndChar

StartChar: I
Encoding: 73 73 4
Width: 613
Flags: MW
TeX: 75 0
LayerCount: 2
Fore
SplineSet
115 739 m 0
 481 739 l 0
 481 670 l 0
 335 670 l 0
 335 68 l 0
 488 68 l 0
 488 -1 l 0
 106 -1 l 0
 106 69 l 0
 252 69 l 0
 252 670 l 0
 115 670 l 0
 115 739 l 0
EndSplineSet
Validated: 1
EndChar

StartChar: o
Encoding: 111 111 5
Width: 613
Flags: MW
TeX: 114 0
LayerCount: 2
Fore
SplineSet
556 269 m 4
 556 89 440 -14 312 -14 c 4
 175 -14 58 102 58 267 c 4
 58 434 177 554 315 554 c 4
 438 554 556 456 556 269 c 4
309 481 m 4
 226 481 148 407 148 274 c 4
 148 140 227 59 313 59 c 4
 392 59 470 129 470 265 c 4
 470 415 387 481 309 481 c 4
EndSplineSet
Validated: 1
EndChar

StartChar: n
Encoding: 110 110 6
Width: 613
Flags: MW
TeX: 113 0
LayerCount: 2
Fore
SplineSet
91 0 m 4
 91 542 l 4
 178 542 l 4
 178 446 l 4
 218 506 284 555 358 555 c 4
 420 555 476 520 503 459 c 4
 522 415 522 371 522 329 c 4
 522 0 l 4
 438 0 l 4
 438 327 l 4
 438 365 438 412 409 447 c 4
 390 470 362 481 335 481 c 4
 278 481 227 434 205 406 c 4
 182 376 178 349 178 312 c 4
 178 0 l 4
 91 0 l 4
EndSplineSet
Validated: 1
EndChar

StartChar: l
Encoding: 108 108 7
Width: 613
Flags: MW
TeX: 111 0
LayerCount: 2
Fore
SplineSet
111 788 m 0
 350 788 l 0
 350 69 l 0
 510 69 l 0
 510 0 l 0
 103 0 l 0
 103 69 l 0
 264 69 l 0
 264 720 l 0
 111 720 l 0
 111 788 l 0
EndSplineSet
Validated: 1
EndChar

StartChar: t
Encoding: 116 116 8
Width: 613
Flags: MW
TeX: 119 0
LayerCount: 2
Fore
SplineSet
233 687 m 0
 327 702 l 0
 328 700 328 698 328 696 c 0
 328 687 321 681 319 671 c 0
 314 640 306 543 306 543 c 0
 483 543 l 0
 483 472 l 0
 305 472 l 0
 298 401 295 331 295 260 c 0
 295 181 298 161 298 156 c 0
 307 91 349 69 389 69 c 0
 423 69 465 84 511 118 c 0
 538 50 l 0
 492 16 430 -10 365 -10 c 0
 310 -10 267 11 241 47 c 0
 209 92 209 147 209 195 c 0
 209 287 213 379 220 472 c 0
 93 472 l 0
 94 542 l 0
 223 542 l 0
 233 687 l 0
EndSplineSet
Validated: 1
EndChar

StartChar: e
Encoding: 101 101 9
Width: 613
Flags: MW
TeX: 103 0
LayerCount: 2
Fore
SplineSet
317 555 m 0
 405 555 506 507 531 362 c 0
 535 342 537 321 537 298 c 0
 537 285 537 272 536 259 c 1
 151 259 l 1
 158 96 262 56 335 56 c 0
 389 56 439 78 475 118 c 1
 522 72 l 1
 476 17 406 -12 328 -12 c 0
 182 -12 68 84 68 265 c 0
 68 463 187 555 317 555 c 0
154 325 m 1
 452 325 l 1
 453 331 453 337 453 343 c 0
 453 423 393 489 311 489 c 0
 253 489 170 453 154 325 c 1
EndSplineSet
Validated: 1
EndChar

StartChar: b
Encoding: 98 98 11
Width: 613
Flags: MW
TeX: 100 0
LayerCount: 2
Fore
SplineSet
81 790 m 0
 181 790 l 0
 183 783 177 778 175 776 c 0
 169 772 168 769 168 763 c 0
 168 459 l 0
 203 518 266 555 335 555 c 0
 441 555 553 467 553 278 c 0
 553 81 438 -13 327 -13 c 0
 261 -13 202 19 166 72 c 0
 136 0 l 0
 81 0 l 0
 81 790 l 0
305 481 m 0
 252 481 202 451 182 402 c 0
 170 372 168 338 168 289 c 0
 168 242 168 210 171 181 c 0
 185 78 267 63 304 63 c 0
 357 63 464 94 464 260 c 0
 464 451 356 481 305 481 c 0
EndSplineSet
Validated: 1
EndChar

StartChar: H
Encoding: 72 72 12
Width: 613
Flags: MW
TeX: 74 0
LayerCount: 2
Fore
SplineSet
75 739 m 0
 167 739 l 0
 168 737 168 736 168 734 c 0
 168 725 161 724 161 711 c 0
 161 423 l 0
 451 423 l 0
 451 739 l 0
 541 739 l 0
 542 738 542 736 542 734 c 0
 542 725 534 725 534 713 c 0
 534 -1 l 0
 450 -1 l 0
 450 352 l 0
 161 352 l 0
 161 0 l 0
 75 0 l 0
 75 739 l 0
EndSplineSet
Validated: 1
EndChar

StartChar: g
Encoding: 103 103 13
Width: 613
Flags: MW
TeX: 105 0
LayerCount: 2
Fore
SplineSet
160 373 m 0
 160 307 213 254 279 254 c 0
 346 254 398 307 398 373 c 0
 398 439 346 493 280 493 c 0
 213 493 160 439 160 373 c 0
285 560 m 0
 334 560 379 542 413 508 c 1
 451 539 499 557 548 557 c 0
 553 557 558 556 563 556 c 1
 573 486 l 1
 563 488 553 489 542 489 c 0
 509 489 476 480 447 463 c 1
 465 436 475 404 475 371 c 0
 475 272 388 185 280 185 c 0
 256 185 234 190 211 198 c 1
 206 194 172 166 172 137 c 0
 172 120 185 107 205 101 c 0
 217 98 242 94 283 94 c 0
 308 94 333 96 359 96 c 0
 396 96 433 93 466 79 c 0
 523 56 550 8 550 -39 c 0
 550 -112 484 -204 301 -204 c 0
 111 -204 55 -135 55 -76 c 0
 55 -33 86 7 144 44 c 1
 109 62 100 94 100 117 c 0
 100 152 123 188 162 221 c 1
 112 254 82 309 82 368 c 0
 82 474 176 560 285 560 c 0
202 29 m 1
 171 13 134 -16 134 -55 c 0
 134 -74 143 -105 187 -122 c 0
 228 -138 274 -139 299 -139 c 0
 336 -139 382 -138 421 -116 c 0
 459 -96 472 -68 472 -44 c 0
 472 -19 458 11 408 19 c 0
 392 21 373 22 353 22 c 0
 346 22 340 22 333 22 c 0
 320 22 306 22 293 23 c 0
 251 24 222 27 202 29 c 1
EndSplineSet
Validated: 1
EndChar

StartChar: h
Encoding: 104 104 14
Width: 613
Flags: MW
TeX: 106 0
LayerCount: 2
Fore
SplineSet
93 0 m 4
 93 788 l 4
 191 788 l 4
 191 787 193 786 193 785 c 4
 193 779 188 775 185 772 c 4
 181 768 180 765 180 761 c 4
 180 446 l 4
 220 506 286 555 360 555 c 4
 422 555 478 520 505 459 c 4
 524 415 524 371 524 329 c 4
 524 0 l 4
 440 0 l 4
 440 327 l 4
 440 365 440 412 411 447 c 4
 392 470 364 481 337 481 c 4
 280 481 229 434 207 406 c 4
 184 376 180 349 180 312 c 4
 180 0 l 4
 93 0 l 4
EndSplineSet
Validated: 1
EndChar

StartChar: u
Encoding: 117 117 15
Width: 613
Flags: MW
TeX: 120 0
LayerCount: 2
Fore
SplineSet
85 542 m 4
 171 542 l 4
 171 240 l 4
 171 203 171 161 190 123 c 4
 212 80 251 56 294 56 c 4
 346 56 394 91 419 136 c 4
 437 170 440 202 440 244 c 4
 440 542 l 4
 526 542 l 4
 526 49 l 4
 526 33 527 16 532 0 c 4
 442 0 l 4
 440 14 440 28 440 42 c 4
 441 83 l 4
 406 24 342 -13 274 -13 c 4
 203 -13 137 25 105 97 c 4
 83 144 84 193 84 240 c 4
 85 542 l 4
EndSplineSet
Validated: 33
EndChar

StartChar: r
Encoding: 114 114 16
Width: 613
Flags: MW
TeX: 117 0
LayerCount: 2
Fore
SplineSet
128 542 m 0
 217 542 l 0
 214 437 l 0
 250 515 330 555 409 555 c 0
 470 555 520 531 554 496 c 0
 514 414 l 0
 505 423 501 432 494 441 c 0
 479 460 450 481 404 481 c 0
 366 481 301 468 252 390 c 0
 215 332 214 296 214 263 c 0
 214 -1 l 0
 128 -1 l 0
 128 542 l 0
EndSplineSet
Validated: 1
EndChar

StartChar: i
Encoding: 105 105 17
Width: 613
Flags: MW
TeX: 108 0
LayerCount: 2
Fore
SplineSet
136 543 m 4
 353 543 l 4
 353 69 l 4
 480 69 l 4
 480 0 l 4
 129 0 l 4
 129 69 l 4
 267 69 l 4
 267 473 l 4
 136 473 l 4
 136 543 l 4
312 778 m 4
 346 778 374 751 374 717 c 4
 374 683 346 656 312 656 c 4
 278 656 251 683 251 717 c 4
 251 751 278 778 312 778 c 4
EndSplineSet
Validated: 1
EndChar

StartChar: f
Encoding: 102 102 18
Width: 613
Flags: MW
TeX: 104 0
LayerCount: 2
Fore
SplineSet
418 796 m 0
 487 796 545 769 584 722 c 1
 545 643 l 1
 541 643 536 645 536 653 c 0
 535 658 535 662 531 667 c 0
 508 702 466 729 414 729 c 0
 369 729 327 709 304 669 c 0
 285 636 285 599 285 563 c 0
 285 559 285 556 285 552 c 2
 285 510 l 1
 462 510 l 1
 462 442 l 1
 285 442 l 1
 285 0 l 1
 203 0 l 1
 203 442 l 1
 85 442 l 1
 85 510 l 1
 203 510 l 1
 203 563 l 2
 203 611 204 656 232 701 c 0
 270 762 342 796 418 796 c 0
EndSplineSet
Validated: 1
EndChar

StartChar: v
Encoding: 118 118 19
Width: 613
Flags: MW
TeX: 121 0
LayerCount: 2
Fore
SplineSet
57 543 m 4
 160 543 l 4
 162 533 156 526 156 519 c 4
 156 516 157 515 158 512 c 4
 314 116 l 4
 401 317 l 4
 432 388 461 464 475 543 c 4
 552 543 l 4
 534 460 503 381 471 305 c 4
 339 -4 l 4
 272 -4 l 4
 57 543 l 4
EndSplineSet
Validated: 1
EndChar

StartChar: d
Encoding: 100 100 20
Width: 613
Flags: MW
TeX: 102 0
LayerCount: 2
Fore
SplineSet
451 463 m 0
 451 790 l 0
 542 790 l 0
 542 782 537 776 535 772 c 0
 531 765 530 762 530 756 c 0
 531 50 l 0
 531 34 533 17 537 0 c 0
 452 0 l 0
 448 13 446 27 446 40 c 0
 446 87 l 0
 412 26 348 -12 279 -12 c 0
 174 -12 63 76 63 276 c 0
 63 483 189 556 292 556 c 0
 367 556 425 519 451 463 c 0
296 486 m 0
 234 486 146 444 146 290 c 0
 146 111 238 63 299 63 c 0
 356 63 410 101 432 166 c 0
 441 193 444 224 444 265 c 0
 444 326 442 356 435 381 c 0
 413 461 344 486 296 486 c 0
EndSplineSet
Validated: 1
EndChar

StartChar: p
Encoding: 112 112 21
Width: 613
Flags: MW
TeX: 115 0
LayerCount: 2
Fore
SplineSet
81 542 m 0
 168 542 l 0
 168 459 l 0
 205 518 269 554 339 554 c 0
 445 554 559 469 559 278 c 0
 559 79 443 -14 332 -14 c 0
 266 -14 205 19 169 72 c 0
 169 -198 l 0
 82 -198 l 0
 81 542 l 0
308 481 m 0
 253 481 202 451 182 402 c 0
 170 374 168 342 168 296 c 0
 168 217 168 173 183 136 c 0
 205 87 256 61 307 61 c 0
 358 61 470 89 470 259 c 0
 470 457 355 481 308 481 c 0
EndSplineSet
Validated: 1
EndChar

StartChar: q
Encoding: 113 113 22
Width: 613
Flags: MW
TeX: 116 0
LayerCount: 2
Fore
SplineSet
454 463 m 0
 454 542 l 0
 535 542 l 0
 535 -198 l 0
 450 -198 l 0
 450 87 l 0
 416 27 353 -12 284 -12 c 0
 164 -12 60 100 60 276 c 0
 60 460 177 556 296 556 c 0
 416 556 454 463 454 463 c 0
299 486 m 0
 226 486 146 430 146 289 c 0
 146 135 225 63 302 63 c 0
 358 63 415 101 435 166 c 0
 444 194 446 224 446 264 c 0
 446 330 444 364 433 394 c 0
 409 461 347 486 299 486 c 0
EndSplineSet
Validated: 1
EndChar

StartChar: y
Encoding: 121 121 23
Width: 613
Flags: MW
TeX: 124 0
LayerCount: 2
Fore
SplineSet
65 542 m 4
 171 542 l 4
 172 531 166 525 166 516 c 4
 166 513 167 510 168 507 c 4
 327 108 l 4
 430 398 l 4
 447 445 462 493 471 543 c 4
 560 543 l 4
 544 490 525 438 506 386 c 4
 337 -61 l 4
 325 -92 314 -120 290 -147 c 4
 254 -188 203 -206 154 -206 c 4
 109 -206 68 -191 37 -161 c 4
 81 -84 l 4
 88 -89 87 -97 90 -103 c 4
 93 -109 114 -136 154 -136 c 4
 179 -136 207 -125 230 -101 c 4
 247 -83 258 -60 267 -38 c 4
 285 2 l 4
 65 542 l 4
EndSplineSet
Validated: 1
EndChar

StartChar: period
Encoding: 46 46 24
Width: 613
Flags: MW
TeX: 115 0
LayerCount: 2
Fore
SplineSet
364 55 m 0
 364 18 332 -13 293 -13 c 0
 254 -13 223 18 223 55 c 0
 223 92 254 123 293 123 c 0
 332 123 364 92 364 55 c 0
EndSplineSet
Validated: 1
EndChar

StartChar: comma
Encoding: 44 44 25
Width: 613
Flags: MW
TeX: 101 0
LayerCount: 2
Fore
SplineSet
373 23 m 0
 373 -39 330 -116 247 -200 c 0
 206 -164 l 0
 234 -138 253 -109 265 -90 c 0
 271 -80 283 -61 283 -41 c 0
 283 -17 265 -5 255 2 c 0
 245 9 222 22 222 54 c 0
 222 90 251 122 290 122 c 0
 332 122 373 84 373 23 c 0
EndSplineSet
Validated: 1
EndChar

StartChar: plus
Encoding: 43 43 28
Width: 613
Flags: MW
TeX: 115 0
LayerCount: 2
Fore
SplineSet
273 621 m 5
 348 621 l 5
 348 418 l 5
 551 418 l 5
 551 345 l 5
 348 345 l 5
 348 123 l 5
 273 123 l 5
 273 345 l 5
 63 345 l 5
 63 418 l 5
 273 418 l 5
 273 621 l 5
EndSplineSet
Validated: 1
EndChar

StartChar: minus
Encoding: 8722 8722 29
Width: 613
Flags: MW
TeX: 106 0
LayerCount: 2
Fore
SplineSet
63 408 m 29
 551 408 l 29
 551 335 l 29
 63 335 l 29
 63 408 l 29
EndSplineSet
Validated: 1
EndChar

StartChar: underscore
Encoding: 95 95 31
Width: 613
Flags: MW
TeX: 120 0
LayerCount: 2
Fore
SplineSet
51 -23 m 29
 563 -23 l 29
 563 -95 l 29
 51 -95 l 29
 51 -23 l 29
EndSplineSet
Validated: 1
EndChar

StartChar: less
Encoding: 60 60 32
Width: 613
Flags: MW
TeX: 111 0
LayerCount: 2
Fore
SplineSet
554 589 m 25
 142 379 l 25
 557 145 l 25
 557 56 l 25
 51 351 l 25
 51 409 l 25
 554 673 l 25
 554 589 l 25
EndSplineSet
Validated: 1
EndChar

StartChar: greater
Encoding: 62 62 33
Width: 613
Flags: MW
TeX: 105 0
LayerCount: 2
Fore
SplineSet
60 589 m 25
 60 673 l 25
 563 409 l 25
 563 351 l 25
 57 56 l 25
 57 145 l 25
 472 379 l 25
 60 589 l 25
EndSplineSet
Validated: 1
EndChar

StartChar: quotesingle
Encoding: 39 39 34
Width: 627
VWidth: 1048
Flags: MW
TeX: 116 0
LayerCount: 2
Fore
SplineSet
381 723 m 2
 381 610 l 1
 383 504 l 1
 283 504 l 1
 279 555 283 555 281 606 c 1
 287 626 279 641 279 664 c 2
 279 723 l 2
 279 770 312 791 335 791 c 0
 358 791 381 777 381 723 c 2
EndSplineSet
EndChar

StartChar: grave
Encoding: 96 96 35
Width: 627
VWidth: 1048
Flags: MW
TeX: 105 0
LayerCount: 2
Fore
SplineSet
300 362 m 2
 235 474 l 1
 174 577 l 1
 172 762 l 1
 201 718 202 710 231 663 c 1
 243 631 251 633 264 610 c 2
 298 550 l 2
 325 503 337 420 338 378 c 0
 339 335 331 308 300 362 c 2
EndSplineSet
EndChar

StartChar: slash
Encoding: 47 47 36
Width: 613
Flags: MW
TeX: 118 0
LayerCount: 2
Fore
SplineSet
86 -15 m 25
 458 788 l 25
 528 753 l 25
 156 -50 l 25
 86 -15 l 25
EndSplineSet
Validated: 1
EndChar

StartChar: backslash
Encoding: 92 92 37
Width: 613
Flags: MW
TeX: 100 0
LayerCount: 2
Fore
SplineSet
528 -15 m 25
 459 -50 l 25
 86 753 l 25
 157 788 l 25
 528 -15 l 25
EndSplineSet
Validated: 1
EndChar

StartChar: micro
Encoding: 181 181 38
Width: 613
Flags: MW
TeX: 120 0
LayerCount: 2
Fore
SplineSet
39 -198 m 0
 40 -61 62 89 62 240 c 0
 62 542 l 0
 140 542 l 0
 140 220 l 0
 140 184 142 151 158 118 c 0
 180 75 217 51 255 51 c 0
 298 51 340 81 360 129 c 0
 373 160 376 190 376 227 c 0
 376 542 l 0
 452 542 l 0
 452 137 l 0
 452 119 452 97 462 80 c 0
 470 64 485 56 499 56 c 0
 540 56 564 114 564 114 c 0
 596 53 l 0
 573 18 536 -12 492 -12 c 0
 442 -12 400 29 394 80 c 0
 366 24 310 -13 249 -13 c 0
 192 -13 139 20 114 72 c 0
 114 -18 114 -109 113 -198 c 0
 39 -198 l 0
EndSplineSet
Validated: 1
EndChar

StartChar: braceleft
Encoding: 123 123 39
Width: 613
Flags: MW
TeX: 100 0
LayerCount: 2
Fore
SplineSet
73 337 m 0
 96 337 l 0
 118 337 149 337 176 364 c 0
 204 394 207 435 207 464 c 0
 207 493 204 520 204 549 c 0
 204 594 210 661 262 709 c 0
 310 753 375 756 432 756 c 0
 441 756 450 756 459 756 c 0
 495 756 l 0
 495 688 l 0
 454 688 l 0
 437 688 421 689 407 689 c 0
 378 689 356 686 334 673 c 0
 288 644 286 587 286 562 c 0
 286 534 290 508 290 479 c 0
 290 451 286 416 270 384 c 0
 253 348 223 319 186 304 c 0
 231 289 287 244 287 120 c 0
 287 83 283 51 283 20 c 0
 283 -21 289 -72 332 -102 c 0
 359 -120 389 -122 427 -122 c 0
 434 -122 442 -122 450 -122 c 0
 494 -122 l 0
 494 -188 l 0
 451 -188 l 0
 439 -188 426 -188 414 -188 c 0
 357 -188 307 -186 265 -153 c 0
 203 -105 199 -24 199 19 c 0
 199 65 204 101 204 138 c 0
 204 189 196 224 172 247 c 0
 147 271 117 270 97 270 c 0
 73 270 l 0
 73 337 l 0
EndSplineSet
Validated: 33
EndChar

StartChar: braceright
Encoding: 125 125 40
Width: 613
Flags: MW
TeX: 100 0
LayerCount: 2
Fore
SplineSet
542 337 m 0
 542 270 l 0
 517 270 l 0
 497 270 467 271 442 247 c 0
 418 224 411 189 411 138 c 0
 411 101 416 65 416 19 c 0
 416 -24 411 -105 349 -153 c 0
 307 -186 258 -188 201 -188 c 0
 189 -188 176 -188 164 -188 c 0
 121 -188 l 0
 121 -122 l 0
 165 -122 l 0
 173 -122 180 -122 187 -122 c 0
 225 -122 256 -120 283 -102 c 0
 326 -72 332 -21 332 20 c 0
 332 51 328 83 328 120 c 0
 328 244 383 289 428 304 c 0
 391 319 361 348 344 384 c 0
 328 416 325 451 325 479 c 0
 325 508 329 534 329 562 c 0
 329 587 327 644 281 673 c 0
 259 686 237 689 208 689 c 0
 194 689 178 688 161 688 c 0
 120 688 l 0
 120 756 l 0
 156 756 l 0
 165 756 173 756 182 756 c 0
 239 756 304 753 352 709 c 0
 404 661 411 594 411 549 c 0
 411 520 408 493 408 464 c 0
 408 435 410 394 438 364 c 0
 465 337 496 337 518 337 c 0
 542 337 l 0
EndSplineSet
Validated: 33
EndChar

StartChar: asterisk
Encoding: 42 42 41
Width: 613
Flags: MW
TeX: 99 0
LayerCount: 2
Fore
SplineSet
263 615 m 0
 359 615 l 0
 357 601 354 599 352 584 c 0
 334 406 l 0
 522 492 l 0
 554 419 l 0
 350 357 l 0
 500 178 l 0
 435 127 l 0
 307 324 l 0
 174 126 l 0
 110 178 l 0
 264 356 l 0
 59 419 l 0
 90 496 l 0
 282 406 l 0
 263 615 l 0
EndSplineSet
Validated: 1
EndChar

StartChar: O
Encoding: 79 79 42
Width: 613
Flags: MW
TeX: 81 0
LayerCount: 2
Fore
SplineSet
569 368 m 0
 569 303 564 211 525 132 c 0
 476 34 392 -11 312 -11 c 0
 199 -11 45 80 45 371 c 0
 45 662 201 748 311 748 c 0
 391 748 476 703 524 608 c 0
 564 529 569 437 569 368 c 0
308 670 m 0
 230 670 127 602 127 382 c 0
 127 148 229 70 312 70 c 0
 362 70 419 98 453 170 c 0
 483 233 486 309 486 357 c 0
 486 420 483 491 458 553 c 0
 424 639 360 670 308 670 c 0
EndSplineSet
Validated: 1
EndChar

StartChar: zero
Encoding: 48 48 43
Width: 613
Flags: MW
TeX: 125 0
LayerCount: 2
Fore
SplineSet
308 744 m 0
 422 744 544 609 544 357 c 0
 544 103 416 -13 310 -13 c 0
 193 -13 70 125 70 364 c 0
 70 601 191 744 308 744 c 0
424 575 m 1
 392 640 347 672 307 672 c 0
 234 672 147 567 147 378 c 0
 147 326 154 279 164 238 c 1
 424 575 l 1
451 496 m 1
 191 163 l 1
 223 98 269 62 313 62 c 0
 378 62 467 141 467 348 c 0
 467 405 461 454 451 496 c 1
EndSplineSet
Validated: 1
EndChar

StartChar: one
Encoding: 49 49 44
Width: 613
Flags: MW
TeX: 114 0
LayerCount: 2
Fore
SplineSet
366 740 m 0
 366 -1 l 0
 283 -1 l 0
 283 637 l 0
 134 593 l 0
 115 639 l 0
 308 740 l 0
 366 740 l 0
EndSplineSet
Validated: 1
EndChar

StartChar: two
Encoding: 50 50 45
Width: 613
Flags: MW
TeX: 119 0
LayerCount: 2
Fore
SplineSet
102 625 m 0
 146 699 225 744 309 744 c 0
 430 744 524 652 524 537 c 0
 524 431 448 355 394 304 c 0
 341 254 255 181 193 73 c 0
 503 73 l 0
 508 73 510 74 515 78 c 0
 517 80 523 86 531 83 c 0
 531 0 l 0
 97 0 l 0
 97 52 l 0
 159 175 228 251 312 327 c 0
 366 375 442 441 442 531 c 0
 442 610 379 671 300 671 c 0
 235 671 190 631 173 604 c 0
 167 594 170 587 163 577 c 0
 102 625 l 0
EndSplineSet
Validated: 1
EndChar

StartChar: N
Encoding: 78 78 46
Width: 613
Flags: MW
TeX: 80 0
LayerCount: 2
Fore
SplineSet
70 0 m 0
 70 739 l 0
 151 739 l 0
 461 191 l 0
 461 740 l 0
 549 740 l 0
 550 733 546 728 545 725 c 0
 542 720 541 717 541 709 c 0
 541 -1 l 0
 475 -1 l 0
 150 582 l 0
 150 0 l 0
 70 0 l 0
EndSplineSet
Validated: 1
EndChar

StartChar: four
Encoding: 52 52 47
Width: 613
Flags: MW
TeX: 104 0
LayerCount: 2
Fore
SplineSet
382 740 m 0
 452 740 l 0
 452 278 l 0
 547 278 l 0
 547 204 l 0
 452 204 l 0
 452 0 l 0
 366 0 l 0
 366 205 l 0
 68 205 l 0
 68 266 l 0
 382 740 l 0
367 608 m 0
 150 278 l 0
 367 278 l 0
 367 608 l 0
EndSplineSet
Validated: 1
EndChar

StartChar: eight
Encoding: 56 56 48
Width: 613
Flags: MW
TeX: 103 0
LayerCount: 2
Fore
SplineSet
317 749 m 0
 425 749 509 671 509 574 c 0
 509 503 463 433 391 395 c 0
 474 357 534 278 534 191 c 0
 534 78 436 -12 306 -12 c 0
 179 -12 82 76 82 186 c 0
 82 271 141 352 229 393 c 0
 162 427 117 493 117 566 c 0
 117 666 204 749 317 749 c 0
292 359 m 0
 222 330 167 267 167 197 c 0
 167 123 230 62 310 62 c 0
 389 62 450 122 450 193 c 0
 450 265 387 329 292 359 c 0
310 679 m 0
 245 679 197 631 197 573 c 0
 197 475 327 425 327 425 c 0
 385 456 428 511 428 568 c 0
 428 630 376 679 310 679 c 0
EndSplineSet
Validated: 1
EndChar

StartChar: five
Encoding: 53 53 49
Width: 613
Flags: MW
TeX: 104 0
LayerCount: 2
Fore
SplineSet
136 739 m 0
 511 739 l 0
 511 665 l 0
 206 665 l 0
 195 452 l 0
 233 471 274 480 315 480 c 0
 439 480 539 392 539 234 c 0
 539 74 433 -13 305 -13 c 0
 217 -13 135 28 86 100 c 0
 160 156 l 0
 170 149 164 137 169 128 c 0
 173 120 224 59 304 59 c 0
 383 59 454 120 454 234 c 0
 454 352 380 412 302 412 c 0
 252 412 200 387 164 342 c 0
 111 364 l 0
 136 739 l 0
EndSplineSet
Validated: 1
EndChar

StartChar: S
Encoding: 83 83 50
Width: 613
Flags: MW
TeX: 85 0
LayerCount: 2
Fore
SplineSet
526 651 m 0
 474 581 l 0
 471 582 468 583 468 590 c 0
 468 594 468 597 465 602 c 0
 436 644 384 675 315 675 c 0
 230 675 181 624 181 567 c 0
 181 537 195 492 257 456 c 0
 325 416 430 396 493 335 c 0
 539 291 550 240 550 201 c 0
 550 108 484 -12 304 -12 c 0
 213 -12 130 20 72 83 c 0
 121 168 l 0
 127 165 126 159 126 157 c 0
 126 152 126 149 130 144 c 0
 163 102 225 62 306 62 c 0
 412 62 468 134 468 197 c 0
 468 230 454 269 406 299 c 0
 350 334 243 359 175 410 c 0
 113 456 96 511 96 554 c 0
 96 655 187 743 321 743 c 0
 402 743 476 710 526 651 c 0
EndSplineSet
Validated: 1
EndChar

StartChar: M
Encoding: 77 77 51
Width: 613
Flags: MW
TeX: 79 0
LayerCount: 2
Fore
SplineSet
58 739 m 0
 124 739 l 0
 307 378 l 0
 494 740 l 0
 556 740 l 0
 556 -1 l 0
 477 -1 l 0
 477 558 l 0
 317 260 l 0
 286 260 l 0
 136 554 l 0
 136 -1 l 0
 58 -1 l 0
 58 739 l 0
EndSplineSet
Validated: 1
EndChar

StartChar: L
Encoding: 76 76 52
Width: 613
Flags: MW
TeX: 78 0
LayerCount: 2
Fore
SplineSet
89 739 m 0
 185 739 l 0
 186 731 183 724 181 721 c 0
 178 714 175 710 175 699 c 0
 175 71 l 0
 531 71 l 0
 531 -1 l 0
 89 -1 l 0
 89 739 l 0
EndSplineSet
Validated: 1
EndChar

StartChar: ampersand
Encoding: 38 38 53
Width: 613
Flags: MW
TeX: 80 0
LayerCount: 2
Fore
SplineSet
282 746 m 0
 371 746 440 680 440 589 c 0
 440 511 389 433 312 391 c 0
 445 206 l 0
 473 239 490 273 499 301 c 0
 500 304 500 307 500 310 c 0
 500 315 499 320 499 325 c 0
 499 331 501 334 504 337 c 0
 581 284 l 0
 554 236 523 189 490 145 c 0
 573 38 l 0
 504 -14 l 0
 438 90 l 0
 391 32 318 -12 238 -12 c 0
 132 -12 53 67 53 173 c 0
 53 264 112 357 203 407 c 0
 159 460 119 526 119 591 c 0
 119 680 192 746 282 746 c 0
201 589 m 0
 201 558 213 516 272 442 c 0
 327 472 362 529 362 583 c 0
 362 639 324 676 280 676 c 0
 238 676 201 641 201 589 c 0
244 351 m 0
 181 310 143 243 143 182 c 0
 143 113 190 63 251 63 c 0
 330 63 395 146 395 146 c 0
 244 351 l 0
EndSplineSet
Validated: 1
EndChar

StartChar: F
Encoding: 70 70 54
Width: 613
Flags: MW
TeX: 80 0
LayerCount: 2
Fore
SplineSet
102 740 m 0
 528 740 l 0
 528 668 l 0
 186 668 l 0
 186 435 l 0
 463 435 l 0
 463 364 l 0
 186 364 l 0
 186 0 l 0
 102 0 l 0
 102 740 l 0
EndSplineSet
Validated: 1
EndChar

StartChar: w
Encoding: 119 119 55
Width: 613
Flags: MW
TeX: 122 0
LayerCount: 2
Fore
SplineSet
29 543 m 0
 116 543 l 0
 119 534 116 525 114 519 c 0
 111 510 111 506 113 498 c 0
 191 106 l 0
 285 492 l 0
 337 492 l 0
 452 108 l 0
 494 382 502 459 502 519 c 0
 502 527 502 535 502 542 c 0
 581 542 l 0
 557 360 527 179 490 -1 c 0
 411 -1 l 0
 310 350 l 0
 215 -1 l 0
 138 -1 l 0
 29 543 l 0
EndSplineSet
Validated: 1
EndChar

StartChar: quotedbl
Encoding: 34 34 58
Width: 627
VWidth: 1048
Flags: MW
TeX: 116 0
LayerCount: 2
Fore
SplineSet
467 723 m 2
 467 610 l 1
 469 504 l 1
 386 504 l 1
 383 555 387 555 385 606 c 1
 390 626 383 641 383 664 c 2
 383 723 l 2
 383 770 411 791 430 791 c 0
 449 791 467 777 467 723 c 2
260 723 m 2
 260 610 l 1
 262 504 l 1
 179 504 l 1
 176 555 180 555 178 606 c 1
 183 626 176 641 176 664 c 2
 176 723 l 2
 176 770 204 791 223 791 c 0
 242 791 260 777 260 723 c 2
EndSplineSet
EndChar

StartChar: T
Encoding: 84 84 59
Width: 613
Flags: MW
TeX: 86 0
LayerCount: 2
Fore
SplineSet
47 740 m 0
 559 740 l 0
 559 666 l 0
 341 666 l 0
 341 -1 l 0
 257 -1 l 0
 257 666 l 0
 47 666 l 0
 47 740 l 0
EndSplineSet
Validated: 1
EndChar

StartChar: hyphen
Encoding: 45 45 60
Width: 613
Flags: MW
TeX: 106 0
LayerCount: 2
Fore
SplineSet
94 413 m 0
 521 413 l 0
 521 334 l 0
 94 334 l 0
 94 413 l 0
EndSplineSet
Validated: 1
EndChar

StartChar: exclam
Encoding: 33 33 61
Width: 613
Flags: MW
TeX: 103 0
LayerCount: 2
Fore
SplineSet
365 57 m 0
 365 18 333 -13 294 -13 c 0
 255 -13 224 18 224 57 c 0
 224 96 255 127 294 127 c 0
 333 127 365 96 365 57 c 0
296 793 m 0
 318 793 344 778 353 742 c 0
 355 735 357 722 357 694 c 0
 357 649 349 603 346 558 c 0
 325 230 l 0
 265 230 l 0
 248 558 l 0
 244 636 236 665 236 703 c 0
 236 725 239 742 244 755 c 0
 255 781 274 793 296 793 c 0
EndSplineSet
Validated: 1
EndChar

StartChar: U
Encoding: 85 85 63
Width: 613
Flags: MW
TeX: 87 0
LayerCount: 2
Fore
SplineSet
70 739 m 0
 163 739 l 0
 164 737 164 735 164 733 c 0
 164 726 159 721 156 717 c 0
 152 711 152 706 152 701 c 0
 152 254 l 0
 152 217 152 181 169 145 c 0
 196 88 251 57 310 57 c 0
 368 57 424 87 451 144 c 0
 469 182 470 219 470 257 c 0
 470 739 l 0
 549 739 l 0
 549 259 l 0
 549 205 547 154 519 102 c 0
 477 24 394 -13 309 -13 c 0
 222 -13 139 26 98 102 c 0
 71 153 70 203 70 255 c 0
 70 739 l 0
EndSplineSet
Validated: 1
EndChar

StartChar: numbersign
Encoding: 35 35 64
Width: 613
Flags: MW
TeX: 113 0
LayerCount: 2
Fore
SplineSet
216 740 m 5
 288 743 l 5
 263 540 l 5
 394 542 l 5
 417 734 l 5
 490 737 l 5
 467 542 l 5
 574 544 l 5
 568 486 l 5
 460 485 l 5
 435 286 l 5
 553 288 l 5
 547 232 l 5
 429 231 l 5
 402 16 l 5
 331 12 l 5
 357 229 l 5
 225 227 l 5
 200 16 l 5
 130 13 l 5
 155 226 l 5
 40 224 l 5
 45 279 l 5
 162 281 l 5
 186 483 l 5
 56 481 l 5
 60 538 l 5
 193 539 l 5
 216 740 l 5
256 483 m 5
 232 282 l 5
 362 284 l 5
 387 485 l 5
 256 483 l 5
EndSplineSet
Validated: 1
EndChar

StartChar: j
Encoding: 106 106 65
Width: 613
Flags: MW
TeX: 109 0
LayerCount: 2
Fore
SplineSet
160 543 m 4
 447 543 l 4
 447 38 l 4
 447 -9 446 -54 423 -99 c 4
 386 -171 310 -207 233 -207 c 4
 166 -207 107 -179 68 -131 c 4
 123 -57 l 4
 130 -63 128 -71 133 -79 c 4
 137 -86 173 -133 239 -133 c 4
 285 -133 328 -109 348 -65 c 4
 361 -36 361 -7 361 22 c 4
 361 472 l 4
 160 472 l 4
 160 543 l 4
406 778 m 4
 440 778 467 751 467 717 c 4
 467 683 440 656 406 656 c 4
 372 656 344 683 344 717 c 4
 344 751 372 778 406 778 c 4
EndSplineSet
Validated: 1
EndChar

StartChar: x
Encoding: 120 120 66
Width: 613
Flags: MW
TeX: 123 0
LayerCount: 2
Fore
SplineSet
440 543 m 5
 527 543 l 5
 352 279 l 5
 551 0 l 5
 454 0 l 5
 304 211 l 5
 163 0 l 5
 67 0 l 5
 257 276 l 5
 70 543 l 5
 163 543 l 5
 305 342 l 5
 440 543 l 5
EndSplineSet
Validated: 1
EndChar

StartChar: G
Encoding: 71 71 67
Width: 613
Flags: MW
TeX: 73 0
LayerCount: 2
Fore
SplineSet
339 746 m 0
 430 746 512 700 554 623 c 0
 496 563 l 0
 487 569 484 579 480 587 c 0
 457 637 405 674 339 674 c 0
 277 674 210 640 172 568 c 0
 143 514 135 447 135 378 c 0
 135 300 144 196 206 126 c 0
 246 80 298 61 346 61 c 0
 390 61 438 76 479 106 c 0
 479 283 l 0
 345 283 l 0
 345 354 l 0
 556 354 l 0
 556 66 l 0
 486 15 407 -11 339 -11 c 0
 210 -11 53 81 53 361 c 0
 53 685 241 746 339 746 c 0
EndSplineSet
Validated: 1
EndChar

StartChar: k
Encoding: 107 107 68
Width: 613
Flags: MW
TeX: 110 0
LayerCount: 2
Fore
SplineSet
89 788 m 0
 186 788 l 0
 187 780 183 775 180 771 c 0
 176 766 175 763 175 758 c 0
 175 293 l 0
 446 545 l 0
 468 540 488 539 510 539 c 0
 541 539 l 0
 312 324 l 0
 579 -1 l 0
 576 -1 573 -1 570 -1 c 0
 513 -1 468 -5 468 -5 c 0
 247 271 l 0
 175 205 l 0
 175 -1 l 0
 89 -1 l 0
 89 788 l 0
EndSplineSet
Validated: 1
EndChar

StartChar: z
Encoding: 122 122 69
Width: 613
Flags: MW
TeX: 125 0
LayerCount: 2
Fore
SplineSet
94 543 m 0
 516 543 l 0
 516 484 l 0
 185 73 l 0
 508 73 l 0
 523 73 529 80 540 80 c 0
 541 80 543 80 544 80 c 0
 544 -1 l 0
 70 -1 l 0
 70 57 l 0
 406 468 l 0
 94 468 l 0
 94 543 l 0
EndSplineSet
Validated: 1
EndChar

StartChar: dollar
Encoding: 36 36 70
Width: 613
Flags: MW
TeX: 102 0
LayerCount: 2
Fore
SplineSet
289 772 m 1
 366 772 l 1
 367 771 366 769 366 768 c 0
 366 759 358 759 358 748 c 2
 358 702 l 1
 428 695 491 663 535 611 c 1
 483 547 l 1
 480 548 477 550 477 555 c 0
 477 558 478 561 476 565 c 0
 475 566 475 568 471 572 c 0
 446 602 409 624 358 632 c 1
 358 403 l 1
 385 394 412 386 437 375 c 0
 462 364 556 323 556 215 c 0
 556 130 492 37 358 19 c 1
 358 -55 l 1
 289 -55 l 1
 289 17 l 1
 207 22 134 55 81 112 c 1
 132 182 l 1
 138 179 137 172 137 171 c 0
 137 166 136 163 141 158 c 0
 174 123 227 92 289 85 c 1
 289 346 l 1
 267 353 246 362 224 372 c 0
 124 419 104 486 104 529 c 0
 104 614 180 687 289 701 c 1
 289 772 l 1
358 324 m 1
 358 88 l 1
 434 103 478 156 478 210 c 0
 478 234 469 274 419 301 c 0
 403 310 382 317 358 324 c 1
289 428 m 1
 289 633 l 1
 214 624 183 580 183 539 c 0
 183 513 195 479 247 449 c 0
 259 442 274 434 289 428 c 1
EndSplineSet
Validated: 1
EndChar

StartChar: A
Encoding: 65 65 71
Width: 613
Flags: MW
TeX: 67 0
LayerCount: 2
Fore
SplineSet
28 -1 m 0
 289 753 l 0
 298 753 l 0
 584 0 l 0
 498 0 l 0
 416 216 l 0
 181 216 l 0
 110 -1 l 0
 28 -1 l 0
397 281 m 0
 293 562 l 0
 198 281 l 0
 397 281 l 0
EndSplineSet
Validated: 1
EndChar

StartChar: C
Encoding: 67 67 72
Width: 613
Flags: MW
TeX: 69 0
LayerCount: 2
Fore
SplineSet
340 745 m 0
 438 745 526 688 566 599 c 0
 487 560 l 0
 482 564 482 571 482 572 c 0
 482 575 483 578 483 581 c 0
 483 587 480 589 478 593 c 0
 448 645 395 679 337 679 c 0
 232 679 139 569 139 373 c 0
 139 173 235 59 344 59 c 0
 402 59 461 94 495 150 c 0
 556 110 l 0
 510 34 427 -12 339 -12 c 0
 217 -12 58 79 58 365 c 0
 58 661 225 745 340 745 c 0
EndSplineSet
Validated: 1
EndChar

StartChar: B
Encoding: 66 66 73
Width: 613
Flags: MW
TeX: 68 0
LayerCount: 2
Fore
SplineSet
68 739 m 0
 278 739 l 0
 323 739 370 739 416 719 c 0
 485 689 523 625 523 559 c 0
 523 488 480 423 414 396 c 0
 497 368 552 291 552 205 c 0
 552 129 509 56 429 22 c 0
 378 0 326 0 276 0 c 0
 68 0 l 0
 68 739 l 0
150 669 m 0
 150 433 l 0
 265 433 l 0
 298 433 334 434 368 449 c 0
 415 469 439 509 439 551 c 0
 439 594 413 635 364 655 c 0
 331 668 298 669 266 669 c 0
 150 669 l 0
150 364 m 0
 150 73 l 0
 291 73 l 0
 323 73 354 74 386 88 c 0
 437 111 465 160 465 213 c 0
 465 266 436 319 381 345 c 0
 344 363 307 364 270 364 c 0
 150 364 l 0
EndSplineSet
Validated: 1
EndChar

StartChar: bracketleft
Encoding: 91 91 74
Width: 613
Flags: MW
TeX: 100 0
LayerCount: 2
Fore
SplineSet
166 795 m 0
 505 795 l 0
 505 724 l 0
 242 724 l 0
 242 -38 l 0
 506 -38 l 0
 506 -105 l 0
 166 -105 l 0
 166 795 l 0
EndSplineSet
Validated: 1
EndChar

StartChar: bracketright
Encoding: 93 93 75
Width: 613
Flags: MW
TeX: 100 0
LayerCount: 2
Fore
SplineSet
449 795 m 0
 449 -105 l 0
 109 -105 l 0
 109 -38 l 0
 373 -38 l 0
 373 724 l 0
 110 724 l 0
 110 795 l 0
 449 795 l 0
EndSplineSet
Validated: 1
EndChar

StartChar: parenleft
Encoding: 40 40 76
Width: 613
Flags: MW
TeX: 115 0
LayerCount: 2
Fore
SplineSet
475 791 m 4
 511 718 l 4
 507 716 503 715 501 715 c 4
 496 715 493 717 489 717 c 4
 484 717 481 715 478 713 c 4
 339 631 257 480 257 311 c 4
 257 127 353 -48 515 -142 c 4
 476 -205 l 4
 288 -106 175 91 175 307 c 4
 175 524 291 710 475 791 c 4
EndSplineSet
Validated: 1
EndChar

StartChar: parenright
Encoding: 41 41 77
Width: 613
Flags: MW
TeX: 115 0
LayerCount: 2
Fore
SplineSet
102 716 m 0
 125 790 l 0
 318 701 442 508 442 297 c 0
 442 84 316 -113 119 -207 c 0
 96 -135 l 0
 256 -50 358 115 358 294 c 0
 358 470 259 633 102 716 c 0
EndSplineSet
Validated: 1
EndChar

StartChar: three
Encoding: 51 51 78
Width: 613
Flags: MW
TeX: 119 0
LayerCount: 2
Fore
SplineSet
498 554 m 0
 498 482 453 419 387 394 c 0
 464 366 514 291 514 203 c 0
 514 88 428 -12 286 -12 c 0
 212 -12 142 17 92 72 c 0
 155 146 l 0
 166 135 160 124 170 113 c 0
 175 107 217 63 286 63 c 0
 373 63 434 132 434 213 c 0
 434 301 361 354 261 354 c 0
 248 354 235 353 223 351 c 0
 223 418 l 0
 293 418 327 431 340 437 c 0
 391 459 419 508 419 553 c 0
 419 615 366 668 290 668 c 0
 244 668 197 648 163 611 c 0
 117 663 l 0
 163 714 227 742 294 742 c 0
 411 742 498 655 498 554 c 0
EndSplineSet
Validated: 1
EndChar

StartChar: D
Encoding: 68 68 79
Width: 613
Flags: MW
TeX: 70 0
LayerCount: 2
Fore
SplineSet
74 739 m 0
 247 739 l 0
 312 739 365 735 419 700 c 0
 514 638 556 513 556 371 c 0
 556 209 498 83 392 29 c 0
 340 2 291 -1 232 -1 c 0
 74 -1 l 0
 74 739 l 0
153 669 m 0
 153 65 l 0
 228 65 l 0
 274 65 321 67 367 98 c 0
 426 138 472 219 472 360 c 0
 472 466 450 571 381 628 c 0
 335 666 289 669 242 669 c 0
 153 669 l 0
EndSplineSet
Validated: 1
EndChar

StartChar: E
Encoding: 69 69 80
Width: 613
Flags: MW
TeX: 71 0
LayerCount: 2
Fore
SplineSet
80 740 m 0
 534 740 l 0
 534 667 l 0
 159 667 l 0
 159 424 l 0
 468 424 l 0
 468 348 l 0
 159 348 l 0
 159 74 l 0
 530 74 l 0
 530 0 l 0
 80 0 l 0
 80 740 l 0
EndSplineSet
Validated: 1
EndChar

StartChar: V
Encoding: 86 86 81
Width: 613
Flags: MW
TeX: 88 0
LayerCount: 2
Fore
SplineSet
40 740 m 0
 127 740 l 0
 316 172 l 0
 496 739 l 0
 578 739 l 0
 330 -5 l 0
 292 -5 l 0
 40 740 l 0
EndSplineSet
Validated: 1
EndChar

StartChar: percent
Encoding: 37 37 82
Width: 613
Flags: MW
TeX: 115 0
LayerCount: 2
Fore
SplineSet
474 739 m 0
 554 739 l 0
 140 0 l 0
 65 0 l 0
 474 739 l 0
176 753 m 0
 248 753 309 686 309 596 c 0
 309 508 249 442 177 442 c 0
 104 442 44 508 44 597 c 0
 44 688 105 753 176 753 c 0
174 690 m 0
 151 690 116 672 116 602 c 0
 116 522 154 506 176 506 c 0
 200 506 234 524 234 593 c 0
 234 677 193 690 174 690 c 0
583 142 m 0
 583 53 522 -12 450 -12 c 0
 378 -12 317 54 317 142 c 0
 317 231 378 296 450 296 c 0
 522 296 583 230 583 142 c 0
450 234 m 0
 425 234 388 214 388 142 c 0
 388 72 423 48 451 48 c 0
 476 48 512 68 512 139 c 0
 512 215 474 234 450 234 c 0
EndSplineSet
Validated: 1
EndChar

StartChar: J
Encoding: 74 74 83
Width: 613
Flags: MW
TeX: 76 0
LayerCount: 2
Fore
SplineSet
214 739 m 0
 552 739 l 0
 552 670 l 0
 438 670 l 0
 438 248 l 0
 438 195 439 138 410 85 c 0
 375 22 312 -13 241 -13 c 0
 176 -13 113 17 69 69 c 0
 124 136 l 0
 131 130 126 122 131 115 c 0
 134 112 181 60 243 60 c 0
 278 60 311 78 330 108 c 0
 356 146 356 193 356 237 c 0
 356 247 l 0
 356 670 l 0
 214 670 l 0
 214 739 l 0
EndSplineSet
Validated: 33
EndChar

StartChar: K
Encoding: 75 75 84
Width: 613
Flags: MW
TeX: 77 0
LayerCount: 2
Fore
SplineSet
60 740 m 0
 160 740 l 0
 161 732 156 727 153 723 c 0
 149 718 148 715 148 710 c 0
 148 398 l 0
 458 745 l 0
 478 740 499 739 519 739 c 0
 550 739 l 0
 270 420 l 0
 569 -1 l 0
 511 -1 464 -5 464 -5 c 0
 207 370 l 0
 148 306 l 0
 148 0 l 0
 60 0 l 0
 60 740 l 0
EndSplineSet
Validated: 1
EndChar

StartChar: P
Encoding: 80 80 85
Width: 613
Flags: MW
TeX: 82 0
LayerCount: 2
Fore
SplineSet
166 662 m 1
 165 399 l 1
 314 399 l 2
 343 399 371 401 400 415 c 0
 443 437 466 480 466 527 c 0
 466 575 442 622 396 645 c 0
 365 660 336 662 305 662 c 2
 166 662 l 1
80 739 m 1
 305 739 l 2
 353 739 398 739 445 714 c 0
 515 678 551 606 551 531 c 0
 551 456 515 385 446 350 c 0
 401 327 357 327 311 327 c 2
 166 327 l 1
 166 0 l 1
 80 0 l 1
 80 739 l 1
EndSplineSet
Validated: 1
EndChar

StartChar: question
Encoding: 63 63 86
Width: 613
Flags: MW
TeX: 116 0
LayerCount: 2
Fore
SplineSet
390 53 m 0
 390 16 358 -15 319 -15 c 0
 280 -15 250 16 250 53 c 0
 250 90 280 121 319 121 c 0
 358 121 390 90 390 53 c 0
86 666 m 0
 138 746 226 790 315 790 c 0
 449 790 526 691 526 580 c 0
 526 469 447 424 408 389 c 0
 359 346 356 310 356 268 c 0
 356 219 l 0
 279 219 l 0
 279 268 l 0
 279 321 282 363 334 421 c 0
 370 460 432 508 432 586 c 0
 432 656 378 712 307 712 c 0
 247 712 183 672 146 609 c 0
 86 666 l 0
EndSplineSet
Validated: 1
EndChar

StartChar: at
Encoding: 64 64 87
Width: 613
Flags: MW
TeX: 99 0
LayerCount: 2
Fore
SplineSet
526 36 m 0
 476 4 418 -13 360 -13 c 0
 212 -13 47 98 47 373 c 0
 47 642 203 751 332 751 c 0
 418 751 498 704 536 620 c 0
 562 563 562 505 562 449 c 0
 562 208 l 0
 490 208 l 0
 490 253 l 0
 460 218 418 198 372 198 c 0
 287 198 218 266 218 352 c 0
 218 415 257 479 331 509 c 0
 378 527 425 527 470 527 c 0
 487 527 l 0
 487 615 418 687 329 687 c 0
 227 687 116 590 116 376 c 0
 116 145 252 54 367 54 c 0
 413 54 457 67 495 93 c 0
 526 36 l 0
490 468 m 0
 471 468 l 0
 429 468 379 468 339 440 c 0
 307 417 292 386 292 355 c 0
 292 304 334 263 386 263 c 0
 420 263 455 281 473 317 c 0
 489 350 490 389 490 431 c 0
 490 436 490 440 490 445 c 0
 490 468 l 0
EndSplineSet
Validated: 1
EndChar

StartChar: bar
Encoding: 124 124 88
Width: 613
Flags: MW
TeX: 100 0
LayerCount: 2
Fore
SplineSet
267 774 m 0
 347 774 l 0
 347 -179 l 0
 267 -179 l 0
 267 774 l 0
EndSplineSet
Validated: 1
EndChar

StartChar: asciitilde
Encoding: 126 126 89
Width: 613
Flags: MW
TeX: 99 0
LayerCount: 2
Fore
SplineSet
119 406 m 4
 59 444 l 4
 94 503 155 551 222 551 c 4
 320 551 351 462 419 462 c 4
 458 462 486 493 520 539 c 4
 574 494 l 4
 543 447 485 384 410 384 c 4
 314 384 289 479 217 479 c 4
 183 479 149 455 119 406 c 4
EndSplineSet
Validated: 1
EndChar

StartChar: asciicircum
Encoding: 94 94 90
Width: 613
Flags: MW
TeX: 99 0
LayerCount: 2
Fore
SplineSet
121 435 m 0
 302 739 l 0
 328 739 l 0
 488 436 l 0
 425 407 l 0
 310 614 l 0
 180 407 l 0
 121 435 l 0
EndSplineSet
Validated: 1
EndChar

StartChar: cent
Encoding: 162 162 91
Width: 613
Flags: MW
TeX: 101 0
LayerCount: 2
Fore
SplineSet
348 740 m 1
 428 732 l 1
 429 724 425 719 424 716 c 0
 421 711 419 707 418 699 c 2
 406 602 l 1
 469 589 517 554 546 510 c 1
 494 442 l 1
 488 446 488 452 488 454 c 0
 488 461 490 466 484 473 c 0
 469 491 438 517 395 530 c 1
 341 115 l 1
 341 115 l 2
 398 115 456 139 497 181 c 1
 540 124 l 1
 489 68 417 39 340 39 c 0
 337 39 334 39 331 39 c 1
 313 -93 l 1
 245 -85 l 1
 262 49 l 1
 145 81 68 186 68 323 c 0
 68 482 172 599 331 607 c 1
 348 740 l 1
271 128 m 1
 323 538 l 1
 225 532 152 458 152 334 c 0
 152 231 199 157 271 128 c 1
EndSplineSet
Validated: 5
EndChar

StartChar: euro
Encoding: 8364 8364 92
Width: 613
Flags: MW
TeX: 80 0
LayerCount: 2
Fore
SplineSet
561 681 m 5
 531 600 l 5
 523 607 527 616 521 624 c 4
 520 625 476 677 396 677 c 4
 325 677 239 635 204 514 c 4
 202 508 200 501 198 492 c 5
 492 492 l 5
 466 423 l 5
 189 423 l 5
 187 403 186 380 186 353 c 4
 186 344 186 336 186 328 c 5
 430 328 l 5
 403 259 l 5
 193 259 l 5
 201 211 217 171 241 138 c 4
 283 81 343 58 398 58 c 4
 445 58 490 75 525 106 c 5
 559 47 l 5
 514 7 455 -13 393 -13 c 4
 297 -13 149 39 118 259 c 5
 49 259 l 5
 65 328 l 5
 112 328 l 5
 112 334 112 341 112 347 c 4
 112 373 113 398 115 423 c 5
 49 423 l 5
 65 492 l 5
 125 492 l 5
 134 534 147 573 167 608 c 4
 228 714 327 745 401 745 c 4
 464 745 520 723 561 681 c 5
EndSplineSet
Validated: 1
EndChar

StartChar: sterling
Encoding: 163 163 93
Width: 613
Flags: MW
TeX: 118 0
LayerCount: 2
Fore
SplineSet
506 679 m 1
 454 613 l 1
 444 620 445 630 438 638 c 0
 433 644 400 672 350 672 c 0
 287 672 223 624 223 525 c 0
 223 500 227 475 233 449 c 1
 350 449 l 1
 350 381 l 1
 249 381 l 1
 258 344 265 306 265 265 c 0
 265 206 249 152 221 106 c 1
 231 108 242 109 253 109 c 0
 332 109 381 60 449 60 c 0
 482 60 513 71 537 93 c 1
 568 32 l 1
 541 10 497 -18 445 -18 c 0
 369 -18 319 35 233 35 c 0
 209 35 163 31 87 -9 c 1
 56 58 l 1
 111 84 126 90 145 119 c 0
 171 160 186 210 186 263 c 0
 186 304 177 343 168 381 c 1
 90 381 l 1
 90 449 l 1
 152 449 l 1
 147 474 143 498 143 524 c 0
 143 657 242 739 352 739 c 0
 409 739 463 718 506 679 c 1
EndSplineSet
Validated: 1
EndChar

StartChar: Y
Encoding: 89 89 94
Width: 613
Flags: MW
TeX: 91 0
LayerCount: 2
Fore
SplineSet
44 740 m 0
 138 740 l 0
 319 381 l 0
 483 739 l 0
 571 739 l 0
 361 292 l 0
 361 0 l 0
 271 0 l 0
 271 292 l 0
 44 740 l 0
EndSplineSet
Validated: 1
EndChar

StartChar: yen
Encoding: 165 165 95
Width: 613
Flags: MW
TeX: 124 0
LayerCount: 2
Fore
SplineSet
53 740 m 1
 145 740 l 1
 317 431 l 1
 475 739 l 1
 563 739 l 1
 356 350 l 1
 356 326 l 1
 516 326 l 1
 516 258 l 1
 356 258 l 1
 356 183 l 1
 516 183 l 1
 516 117 l 1
 356 117 l 1
 356 0 l 1
 275 0 l 1
 275 117 l 1
 110 117 l 1
 110 183 l 1
 275 183 l 1
 275 258 l 1
 110 258 l 1
 110 326 l 1
 275 326 l 1
 275 350 l 1
 53 740 l 1
EndSplineSet
Validated: 1
EndChar

StartChar: Z
Encoding: 90 90 96
Width: 613
Flags: MW
TeX: 92 0
LayerCount: 2
Fore
SplineSet
84 739 m 0
 541 739 l 0
 540 681 l 0
 174 73 l 0
 523 73 l 0
 537 73 544 80 555 80 c 0
 556 80 558 80 559 80 c 0
 559 -1 l 0
 70 -1 l 0
 70 57 l 0
 442 665 l 0
 84 665 l 0
 84 739 l 0
EndSplineSet
Validated: 1
EndChar

StartChar: Q
Encoding: 81 81 97
Width: 613
Flags: MW
TeX: 83 0
LayerCount: 2
Fore
SplineSet
307 672 m 0
 227 672 126 600 126 383 c 0
 126 149 226 66 312 66 c 0
 374 66 489 110 489 356 c 0
 489 418 486 491 460 554 c 0
 424 641 359 672 307 672 c 0
569 367 m 0
 569 301 564 210 525 131 c 0
 484 49 419 4 351 -8 c 1
 352 -49 363 -97 438 -97 c 0
 465 -97 497 -93 535 -91 c 1
 532 -172 l 1
 524 -172 517 -172 509 -172 c 0
 494 -172 479 -172 465 -172 c 0
 417 -172 382 -170 349 -154 c 0
 297 -128 279 -79 279 -13 c 0
 279 -11 279 -10 279 -8 c 1
 171 8 45 108 45 371 c 0
 45 662 200 748 311 748 c 0
 392 748 477 702 525 606 c 0
 564 527 569 437 569 367 c 0
EndSplineSet
Validated: 1
EndChar

StartChar: thorn
Encoding: 254 254 98
Width: 613
Flags: MW
TeX: 119 0
LayerCount: 2
Fore
SplineSet
82 788 m 0
 176 788 l 0
 176 786 l 0
 176 772 168 768 168 750 c 0
 168 459 l 0
 205 518 269 554 339 554 c 0
 445 554 559 469 559 278 c 0
 559 79 443 -14 332 -14 c 0
 266 -14 205 19 169 72 c 0
 169 -198 l 0
 82 -198 l 0
 82 788 l 0
308 481 m 0
 253 481 202 451 182 402 c 0
 170 374 168 342 168 296 c 0
 168 217 168 173 183 136 c 0
 205 87 256 61 307 61 c 0
 358 61 470 89 470 259 c 0
 470 457 355 481 308 481 c 0
EndSplineSet
Validated: 1
EndChar

StartChar: plusminus
Encoding: 177 177 100
Width: 613
Flags: MW
TeX: 115 0
LayerCount: 2
Fore
SplineSet
65 95 m 4
 553 95 l 4
 553 20 l 4
 65 20 l 4
 65 95 l 4
EndSplineSet
Refer: 28 43 N 1 0 0 1 0 61 2
Validated: 1
EndChar

StartChar: R
Encoding: 82 82 101
Width: 613
Flags: MW
TeX: 84 0
LayerCount: 2
Fore
SplineSet
77 739 m 0
 295 739 l 0
 343 739 389 738 436 714 c 0
 504 679 541 611 541 537 c 0
 541 439 480 354 390 330 c 0
 561 0 l 0
 468 0 l 0
 304 327 l 0
 161 327 l 0
 161 0 l 0
 77 0 l 0
 77 739 l 0
161 662 m 0
 161 399 l 0
 304 399 l 0
 333 399 361 400 390 414 c 0
 433 436 456 480 456 527 c 0
 456 575 432 623 386 646 c 0
 356 661 326 662 295 662 c 0
 161 662 l 0
EndSplineSet
Validated: 1
EndChar

StartChar: X
Encoding: 88 88 102
Width: 613
Flags: MW
TeX: 90 0
LayerCount: 2
Fore
SplineSet
460 740 m 1
 543 740 l 1
 356 379 l 1
 565 0 l 1
 472 0 l 1
 308 293 l 1
 150 0 l 1
 58 0 l 1
 261 377 l 1
 62 740 l 1
 152 740 l 1
 307 459 l 1
 460 740 l 1
EndSplineSet
Validated: 1
EndChar

StartChar: six
Encoding: 54 54 103
Width: 613
Flags: MW
TeX: 118 0
LayerCount: 2
Fore
SplineSet
351 748 m 0
 410 748 470 723 513 680 c 0
 456 616 l 0
 445 624 445 636 438 643 c 0
 433 648 400 674 351 674 c 0
 298 674 176 641 172 388 c 0
 205 443 264 477 329 477 c 0
 433 477 531 390 531 236 c 0
 531 83 434 -12 321 -12 c 0
 255 -12 188 20 145 86 c 0
 98 158 90 250 90 337 c 0
 90 408 96 493 122 564 c 0
 167 693 263 748 351 748 c 0
321 404 m 0
 267 404 210 365 176 305 c 0
 175 296 175 287 175 278 c 0
 175 154 240 61 324 61 c 0
 387 61 451 115 451 230 c 0
 451 358 380 404 321 404 c 0
EndSplineSet
Validated: 1
EndChar

StartChar: nine
Encoding: 57 57 104
Width: 613
Flags: MW
TeX: 113 0
LayerCount: 2
Fore
SplineSet
268 -12 m 0
 207 -12 148 12 104 55 c 0
 162 119 l 0
 174 111 171 98 181 90 c 0
 181 90 217 63 270 63 c 0
 323 63 385 90 417 165 c 0
 424 183 443 233 446 348 c 0
 411 298 355 268 294 268 c 0
 186 268 91 360 91 502 c 0
 91 645 187 746 303 746 c 0
 380 746 465 700 504 586 c 0
 521 536 529 472 529 379 c 0
 529 258 510 194 498 160 c 0
 453 42 358 -12 268 -12 c 0
302 341 m 0
 355 341 409 376 442 431 c 0
 443 443 444 456 444 467 c 0
 444 595 378 673 301 673 c 0
 233 673 172 613 172 505 c 0
 172 395 236 341 302 341 c 0
EndSplineSet
Validated: 1
EndChar

StartChar: seven
Encoding: 55 55 105
Width: 613
Flags: MW
TeX: 118 0
LayerCount: 2
Fore
SplineSet
103 739 m 0
 522 739 l 0
 522 693 l 0
 472 579 425 463 382 346 c 0
 340 232 300 116 264 0 c 0
 171 0 l 0
 215 133 262 264 312 395 c 0
 346 484 383 572 420 660 c 0
 103 660 l 0
 103 739 l 0
EndSplineSet
Validated: 1
EndChar

StartChar: W
Encoding: 87 87 106
Width: 613
Flags: MW
TeX: 89 0
LayerCount: 2
Fore
SplineSet
31 739 m 0
 108 739 l 0
 187 240 l 0
 306 685 l 0
 332 685 l 0
 452 238 l 0
 519 739 l 0
 589 739 l 0
 472 -5 l 0
 439 -5 l 0
 312 483 l 0
 183 -5 l 0
 150 -5 l 0
 31 739 l 0
EndSplineSet
Validated: 1
EndChar

StartChar: acute
Encoding: 180 180 107
Width: 613
Flags: MW
TeX: 80 0
LayerCount: 2
Fore
SplineSet
356 829 m 4
 431 779 l 4
 311 620 l 4
 252 655 l 4
 356 829 l 4
EndSplineSet
Validated: 1
EndChar

StartChar: oslash
Encoding: 248 248 123
Width: 613
Flags: MW
TeX: 114 0
LayerCount: 2
Fore
SplineSet
309 481 m 0
 226 481 148 407 148 274 c 0
 148 215 164 166 188 130 c 1
 371 467 l 1
 351 477 331 481 309 481 c 0
556 269 m 0
 556 89 440 -14 312 -14 c 0
 273 -14 236 -5 203 12 c 1
 155 -76 l 1
 93 -44 l 1
 146 53 l 1
 93 103 58 178 58 267 c 0
 58 434 177 554 315 554 c 0
 347 554 379 547 408 534 c 1
 452 615 l 1
 515 582 l 1
 468 495 l 1
 521 447 556 372 556 269 c 0
426 420 m 1
 240 80 l 1
 262 66 287 59 313 59 c 0
 392 59 470 129 470 265 c 0
 470 333 452 385 426 420 c 1
EndSplineSet
Validated: 1
EndChar

StartChar: uni02CB
Encoding: 715 715 130
Width: 613
Flags: MW
TeX: 80 0
LayerCount: 2
Fore
SplineSet
299 829 m 4
 403 655 l 4
 344 620 l 4
 224 779 l 4
 299 829 l 4
EndSplineSet
Validated: 1
EndChar

StartChar: dotlessi
Encoding: 305 305 136
Width: 613
Flags: MW
TeX: 80 0
LayerCount: 2
Fore
SplineSet
136 543 m 0
 353 543 l 0
 353 69 l 0
 480 69 l 0
 480 0 l 0
 129 0 l 0
 129 69 l 0
 267 69 l 0
 267 473 l 0
 136 473 l 0
 136 543 l 0
EndSplineSet
Validated: 1
EndChar

StartChar: circumflex
Encoding: 710 710 137
Width: 613
Flags: MW
TeX: 80 0
LayerCount: 2
Fore
SplineSet
169 646 m 0
 301 813 l 0
 327 813 l 0
 458 645 l 0
 402 604 l 0
 310 726 l 0
 214 605 l 0
 169 646 l 0
EndSplineSet
Validated: 1
EndChar

StartChar: tilde
Encoding: 732 732 138
Width: 613
Flags: MW
TeX: 80 0
LayerCount: 2
Fore
SplineSet
171 662 m 0
 118 699 l 0
 162 768 206 802 252 802 c 0
 300 802 332 767 347 751 c 0
 366 731 384 714 406 714 c 0
 435 714 449 741 475 776 c 0
 519 729 l 0
 478 678 446 645 402 645 c 0
 333 645 301 735 249 735 c 0
 218 735 199 708 171 662 c 0
EndSplineSet
Validated: 1
EndChar

StartChar: dieresis
Encoding: 168 168 139
Width: 613
Flags: MW
TeX: 80 0
LayerCount: 2
Fore
SplineSet
263 729 m 0
 263 696 236 669 203 669 c 0
 170 669 143 696 143 729 c 0
 143 762 170 788 203 788 c 0
 236 788 263 762 263 729 c 0
474 729 m 0
 474 696 448 669 415 669 c 0
 382 669 355 696 355 729 c 0
 355 762 382 790 415 790 c 0
 448 790 474 762 474 729 c 0
EndSplineSet
Validated: 1
EndChar

StartChar: germandbls
Encoding: 223 223 144
Width: 613
Flags: MW
TeX: 105 0
LayerCount: 2
Fore
SplineSet
76 0 m 4
 76 502 l 4
 76 556 77 610 101 665 c 4
 137 748 213 794 294 794 c 4
 412 794 509 698 509 585 c 4
 509 517 473 456 415 426 c 4
 504 398 561 313 561 214 c 4
 561 85 465 -12 343 -12 c 4
 299 -12 257 1 220 25 c 4
 262 91 l 4
 285 73 313 63 342 63 c 4
 418 63 482 128 482 214 c 4
 482 276 449 331 404 359 c 4
 370 381 339 383 300 383 c 4
 264 383 l 4
 264 451 l 4
 298 451 l 4
 316 451 332 451 352 460 c 4
 397 480 428 531 428 587 c 4
 428 665 370 725 299 725 c 4
 260 725 219 706 191 666 c 4
 157 617 157 556 157 504 c 4
 157 0 l 4
 76 0 l 4
EndSplineSet
Validated: 1
EndChar

StartChar: paragraph
Encoding: 182 182 145
Width: 613
Flags: MW
TeX: 115 0
LayerCount: 2
Fore
SplineSet
527 790 m 0
 527 -81 l 0
 459 -81 l 0
 459 722 l 0
 369 722 l 0
 369 -81 l 0
 298 -81 l 0
 298 382 l 0
 178 390 86 482 86 588 c 0
 86 661 129 731 208 765 c 0
 265 790 324 790 379 790 c 0
 527 790 l 0
EndSplineSet
Validated: 1
EndChar

StartChar: section
Encoding: 167 167 146
Width: 613
Flags: MW
TeX: 118 0
LayerCount: 2
Fore
SplineSet
500 692 m 1
 433 633 l 1
 424 640 427 649 424 657 c 0
 414 684 379 727 316 727 c 0
 253 727 208 685 208 636 c 0
 208 612 219 575 271 548 c 0
 305 530 349 520 397 497 c 0
 480 457 506 405 506 362 c 0
 506 312 470 270 418 248 c 1
 470 213 495 160 495 110 c 0
 495 18 413 -65 293 -65 c 0
 214 -65 137 -28 87 37 c 1
 150 110 l 1
 159 106 156 96 159 89 c 0
 163 80 204 14 293 14 c 0
 366 14 410 59 410 108 c 0
 410 136 395 169 355 193 c 0
 306 222 239 225 180 260 c 0
 127 291 104 334 104 375 c 0
 104 429 144 474 201 494 c 1
 144 529 122 581 122 628 c 0
 122 718 204 797 315 797 c 0
 393 797 463 755 500 692 c 1
244 473 m 1
 212 463 190 433 190 399 c 0
 190 373 204 336 254 311 c 0
 290 293 331 288 374 271 c 1
 400 284 417 311 417 342 c 0
 417 369 403 408 348 435 c 0
 318 450 281 458 244 473 c 1
EndSplineSet
Validated: 1
EndChar

StartChar: copyright
Encoding: 169 169 147
Width: 613
Flags: MW
TeX: 101 0
LayerCount: 2
Fore
SplineSet
321 503 m 0
 396 503 454 456 469 393 c 0
 408 370 l 0
 401 378 405 386 403 394 c 0
 401 403 383 444 324 444 c 0
 268 444 213 409 213 335 c 0
 213 263 263 207 325 207 c 0
 362 207 396 227 414 260 c 0
 466 225 l 0
 433 175 377 144 319 144 c 0
 222 144 146 228 146 327 c 0
 146 428 225 503 321 503 c 0
314 22 m 0
 157 22 26 156 26 325 c 0
 26 495 157 629 314 629 c 0
 471 629 601 495 601 326 c 0
 601 156 471 22 314 22 c 0
81 325 m 0
 81 184 187 74 315 74 c 0
 442 74 550 184 550 326 c 0
 550 468 444 579 316 579 c 0
 188 579 81 468 81 325 c 0
EndSplineSet
Validated: 1
EndChar

StartChar: registered
Encoding: 174 174 148
Width: 613
Flags: MW
TeX: 117 0
LayerCount: 2
Fore
SplineSet
313 23 m 0
 156 23 27 156 27 325 c 0
 27 495 156 629 314 629 c 0
 471 629 601 496 601 326 c 0
 601 156 470 23 313 23 c 0
81 326 m 0
 81 185 187 74 315 74 c 0
 442 74 550 185 550 327 c 0
 550 468 443 579 315 579 c 0
 187 579 81 468 81 326 c 0
195 158 m 0
 195 504 l 0
 306 504 l 0
 333 504 360 504 388 493 c 0
 428 476 450 439 450 403 c 0
 450 361 421 323 380 312 c 0
 457 164 l 0
 400 156 l 0
 327 304 l 0
 249 304 l 0
 249 158 l 0
 195 158 l 0
249 456 m 0
 249 351 l 0
 310 351 l 0
 329 351 354 352 372 364 c 0
 388 373 395 388 395 403 c 0
 395 418 387 435 369 445 c 0
 351 455 326 456 307 456 c 0
 249 456 l 0
EndSplineSet
Validated: 1
EndChar

StartChar: uni00B9
Encoding: 185 185 149
Width: 613
Flags: MW
TeX: 120 0
LayerCount: 2
Fore
SplineSet
365 751 m 0
 365 300 l 0
 289 300 l 0
 289 656 l 0
 174 627 l 0
 155 664 l 0
 313 751 l 0
 365 751 l 0
EndSplineSet
Validated: 1
EndChar

StartChar: guilsinglleft
Encoding: 8249 8249 150
Width: 613
Flags: MW
TeX: 80 0
LayerCount: 2
Fore
SplineSet
182 300 m 0
 362 475 l 0
 409 426 l 0
 265 286 l 0
 417 120 l 0
 370 73 l 0
 182 272 l 0
 182 300 l 0
EndSplineSet
Validated: 1
EndChar

StartChar: guilsinglright
Encoding: 8250 8250 152
Width: 613
Flags: MW
TeX: 80 0
LayerCount: 2
Fore
SplineSet
417 300 m 0
 417 272 l 0
 229 73 l 0
 182 120 l 0
 334 286 l 0
 190 426 l 0
 237 475 l 0
 417 300 l 0
EndSplineSet
Validated: 1
EndChar

StartChar: guillemotright
Encoding: 187 187 153
Width: 613
Flags: MW
TeX: 105 0
LayerCount: 2
Fore
SplineSet
325 300 m 0
 325 272 l 0
 137 73 l 0
 90 120 l 0
 242 286 l 0
 98 426 l 0
 144 475 l 0
 325 300 l 0
540 300 m 0
 540 272 l 0
 352 73 l 0
 305 120 l 0
 457 286 l 0
 313 426 l 0
 359 475 l 0
 540 300 l 0
EndSplineSet
Validated: 1
EndChar

StartChar: logicalnot
Encoding: 172 172 154
Width: 613
Flags: MW
TeX: 111 0
LayerCount: 2
Fore
SplineSet
119 412 m 0
 502 412 l 0
 502 186 l 0
 426 186 l 0
 426 337 l 0
 119 337 l 0
 119 412 l 0
EndSplineSet
Validated: 1
EndChar

StartChar: degree
Encoding: 176 176 156
Width: 613
Flags: MW
TeX: 102 0
LayerCount: 2
Fore
SplineSet
474 598 m 0
 474 510 403 439 314 439 c 0
 225 439 153 511 153 599 c 0
 153 687 225 758 314 758 c 0
 403 758 474 686 474 598 c 0
315 695 m 0
 267 695 226 654 226 600 c 0
 226 547 267 505 315 505 c 0
 363 505 404 546 404 600 c 0
 404 653 363 695 315 695 c 0
EndSplineSet
Validated: 1
EndChar

StartChar: uni00B2
Encoding: 178 178 157
Width: 613
Flags: MW
TeX: 120 0
LayerCount: 2
Fore
SplineSet
142 657 m 0
 178 719 245 756 317 756 c 0
 411 756 475 695 475 623 c 0
 475 567 437 529 420 513 c 0
 373 470 307 439 241 365 c 0
 457 365 l 0
 462 365 464 365 469 369 c 0
 471 371 477 378 485 375 c 0
 485 300 l 0
 154 300 l 0
 154 352 l 0
 220 443 306 501 342 530 c 0
 376 558 404 587 404 623 c 0
 404 661 371 695 314 695 c 0
 268 695 231 671 209 645 c 0
 203 637 204 632 198 621 c 0
 142 657 l 0
EndSplineSet
Validated: 1
EndChar

StartChar: eth
Encoding: 240 240 158
Width: 613
Flags: MW
TeX: 103 0
LayerCount: 2
Fore
SplineSet
313 481 m 0
 233 481 148 416 148 276 c 0
 148 138 228 59 313 59 c 0
 380 59 470 110 470 275 c 0
 470 440 375 481 313 481 c 0
422 677 m 1
 495 595 556 473 556 300 c 0
 556 237 549 160 510 97 c 0
 466 25 393 -14 314 -14 c 0
 177 -14 58 101 58 264 c 0
 58 427 173 554 305 554 c 0
 360 554 411 532 447 493 c 1
 423 554 389 608 346 655 c 1
 195 612 l 1
 173 669 l 1
 296 702 l 1
 260 732 219 758 175 778 c 1
 271 798 l 1
 302 781 338 757 375 724 c 1
 503 759 l 1
 523 706 l 1
 422 677 l 1
EndSplineSet
Validated: 1
EndChar

StartChar: Eth
Encoding: 208 208 159
Width: 613
Flags: MW
TeX: 71 0
LayerCount: 2
Fore
SplineSet
103 739 m 1
 269 739 l 2
 334 739 385 733 436 695 c 0
 525 629 563 500 563 374 c 0
 563 216 503 75 389 22 c 0
 347 3 307 -1 255 -1 c 2
 103 -1 l 1
 103 357 l 1
 46 357 l 1
 46 426 l 1
 103 426 l 1
 103 739 l 1
180 357 m 1
 180 68 l 1
 251 68 l 2
 293 68 333 69 375 98 c 0
 446 146 483 247 483 364 c 0
 483 447 466 538 421 599 c 0
 371 668 310 670 264 670 c 2
 180 670 l 1
 180 426 l 1
 304 426 l 1
 304 357 l 1
 180 357 l 1
EndSplineSet
Validated: 1
EndChar

StartChar: Thorn
Encoding: 222 222 160
Width: 613
Flags: MW
TeX: 86 0
LayerCount: 2
Fore
SplineSet
80 739 m 0
 173 739 l 0
 174 737 174 736 174 734 c 0
 174 727 170 723 167 719 c 0
 164 714 164 711 164 707 c 0
 164 600 l 0
 305 600 l 0
 353 600 399 599 445 575 c 0
 515 539 551 467 551 392 c 0
 551 317 515 246 447 211 c 0
 402 188 357 187 311 187 c 0
 164 187 l 0
 164 0 l 0
 80 0 l 0
 80 739 l 0
164 522 m 0
 164 260 l 0
 314 260 l 0
 343 260 371 261 400 275 c 0
 443 297 466 341 466 388 c 0
 466 436 442 483 396 506 c 0
 366 521 336 522 305 522 c 0
 164 522 l 0
EndSplineSet
Validated: 1
EndChar

StartChar: ring
Encoding: 730 730 161
Width: 613
Flags: MW
TeX: 80 0
LayerCount: 2
Fore
SplineSet
423 718 m 0
 423 661 375 613 314 613 c 0
 254 613 206 661 206 718 c 0
 206 775 254 822 314 822 c 0
 375 822 423 775 423 718 c 0
266 719 m 0
 266 689 288 664 315 664 c 0
 342 664 365 688 365 719 c 0
 365 749 342 773 315 773 c 0
 288 773 266 750 266 719 c 0
EndSplineSet
Validated: 1
EndChar

StartChar: circumflex.cap
Encoding: 65536 -1 190
Width: 613
Flags: MW
TeX: 80 0
LayerCount: 2
Fore
SplineSet
145 675 m 0
 301 793 l 0
 327 793 l 0
 473 677 l 0
 434 632 l 0
 311 716 l 0
 179 635 l 0
 145 675 l 0
EndSplineSet
Validated: 1
EndChar

StartChar: ae
Encoding: 230 230 192
Width: 613
Flags: MW
TeX: 99 0
LayerCount: 2
Fore
SplineSet
47 488 m 0
 81 530 132 554 184 554 c 0
 241 554 290 525 316 480 c 0
 343 526 391 554 441 554 c 0
 484 554 531 533 560 484 c 0
 592 433 592 371 592 318 c 0
 592 273 l 0
 345 263 l 0
 345 208 l 0
 345 179 346 156 357 130 c 0
 377 84 422 56 468 56 c 0
 503 56 535 71 555 99 c 0
 597 50 l 0
 563 10 514 -13 462 -13 c 0
 402 -13 345 18 312 69 c 0
 286 19 235 -13 178 -13 c 0
 93 -13 23 57 23 146 c 0
 23 207 56 273 131 307 c 0
 175 326 217 329 246 330 c 0
 272 331 l 0
 272 361 l 0
 272 383 271 404 264 423 c 0
 250 463 216 487 178 487 c 0
 145 487 111 468 89 436 c 0
 47 488 l 0
272 260 m 0
 247 259 l 0
 216 258 186 257 155 242 c 0
 117 223 98 186 98 152 c 0
 98 101 138 59 186 59 c 0
 219 59 252 78 265 115 c 0
 271 132 272 150 272 173 c 0
 272 185 272 200 272 215 c 0
 272 260 l 0
345 331 m 0
 523 338 l 0
 523 361 l 0
 523 386 523 410 512 435 c 0
 498 468 470 487 440 487 c 0
 410 487 385 469 368 443 c 0
 346 411 345 380 345 351 c 0
 345 331 l 0
EndSplineSet
Validated: 1
EndChar

StartChar: oe
Encoding: 339 339 193
Width: 613
Flags: MW
TeX: 114 0
LayerCount: 2
Fore
SplineSet
202 553 m 0
 246 553 286 534 312 499 c 0
 342 534 386 553 432 553 c 0
 487 553 548 525 575 451 c 0
 589 411 592 364 592 318 c 0
 592 304 592 289 592 275 c 0
 592 262 l 0
 322 262 l 0
 323 187 326 152 339 123 c 0
 359 75 403 55 447 55 c 0
 482 55 524 66 555 101 c 0
 597 50 l 0
 557 9 502 -14 445 -14 c 0
 396 -14 348 3 310 35 c 0
 278 5 236 -13 193 -13 c 0
 146 -13 86 10 50 83 c 0
 21 142 17 219 17 281 c 0
 17 335 21 400 51 455 c 0
 86 522 146 553 202 553 c 0
323 330 m 0
 521 330 l 0
 521 340 l 0
 521 343 521 347 521 350 c 0
 521 382 520 415 503 443 c 0
 486 474 454 488 423 488 c 0
 392 488 353 473 335 424 c 0
 333 417 323 389 323 337 c 0
 323 335 323 332 323 330 c 0
89 292 m 0
 89 252 91 193 106 146 c 0
 125 81 168 59 203 59 c 0
 233 59 263 75 263 105 c 0
 263 120 248 178 248 281 c 0
 248 369 258 413 258 430 c 0
 258 461 233 481 201 481 c 0
 167 481 131 458 111 413 c 0
 92 372 89 326 89 292 c 0
EndSplineSet
Validated: 1
EndChar

StartChar: acute.cap
Encoding: 65538 -1 194
Width: 613
Flags: MW
TeX: 80 0
LayerCount: 2
Fore
SplineSet
396 798 m 0
 443 715 l 0
 243 642 l 0
 215 691 l 0
 396 798 l 0
EndSplineSet
Validated: 1
EndChar

StartChar: grave.cap
Encoding: 65539 -1 195
Width: 613
Flags: MW
TeX: 80 0
LayerCount: 2
Fore
SplineSet
256 798 m 0
 437 691 l 0
 410 642 l 0
 209 715 l 0
 256 798 l 0
EndSplineSet
Validated: 1
EndChar

StartChar: ordfeminine
Encoding: 170 170 196
Width: 613
Flags: MW
TeX: 114 0
LayerCount: 2
Fore
SplineSet
156 672 m 0
 199 721 259 738 315 738 c 0
 380 738 434 712 459 660 c 0
 471 633 472 606 472 575 c 0
 472 316 l 0
 397 316 l 0
 397 356 l 0
 362 323 316 305 270 305 c 0
 188 305 131 363 131 429 c 0
 131 468 153 512 202 539 c 0
 246 563 297 564 347 564 c 0
 358 564 369 564 379 564 c 0
 396 564 l 0
 396 579 l 0
 396 599 396 620 383 640 c 0
 370 660 345 675 308 675 c 0
 266 675 224 660 197 623 c 0
 156 672 l 0
399 503 m 0
 380 503 l 0
 366 503 351 503 335 503 c 0
 315 503 296 503 279 500 c 0
 227 491 208 458 208 432 c 0
 208 399 237 370 283 370 c 0
 319 370 353 388 373 407 c 0
 399 431 399 454 399 482 c 0
 399 503 l 0
100 245 m 0
 515 245 l 0
 515 180 l 0
 100 180 l 0
 100 245 l 0
EndSplineSet
Validated: 1
EndChar

StartChar: ordmasculine
Encoding: 186 186 197
Width: 613
Flags: MW
TeX: 114 0
LayerCount: 2
Fore
SplineSet
309 738 m 0
 394 738 481 669 481 527 c 0
 481 373 389 304 302 304 c 0
 208 304 124 384 124 513 c 0
 124 649 210 738 309 738 c 0
196 518 m 0
 196 419 251 373 304 373 c 0
 355 373 411 416 411 518 c 0
 411 620 358 672 303 672 c 0
 249 672 196 620 196 518 c 0
100 245 m 0
 515 245 l 0
 515 180 l 0
 100 180 l 0
 100 245 l 0
EndSplineSet
Validated: 1
EndChar

StartChar: uni02C9
Encoding: 713 713 198
Width: 613
Flags: MW
TeX: 80 0
LayerCount: 2
Fore
SplineSet
157 737 m 0
 458 737 l 0
 458 671 l 0
 157 671 l 0
 157 737 l 0
EndSplineSet
Validated: 1
EndChar

StartChar: cedilla
Encoding: 184 184 201
Width: 613
Flags: MW
TeX: 80 0
LayerCount: 2
Fore
SplineSet
321 0 m 0
 372 0 l 0
 366 -56 l 0
 385 -57 l 0
 400 -58 416 -60 431 -67 c 0
 454 -78 466 -98 466 -122 c 0
 466 -164 424 -210 337 -210 c 0
 292 -210 241 -197 197 -166 c 0
 226 -117 l 0
 263 -147 308 -159 344 -159 c 0
 390 -159 398 -140 398 -130 c 0
 398 -123 394 -115 385 -110 c 0
 373 -102 355 -101 342 -101 c 0
 307 -101 l 0
 321 0 l 0
EndSplineSet
Validated: 1
EndChar

StartChar: uni00B3
Encoding: 179 179 204
Width: 613
Flags: MW
TeX: 120 0
LayerCount: 2
Fore
SplineSet
316 757 m 4
 404 757 471 697 471 629 c 4
 471 586 443 550 404 537 c 4
 454 528 492 485 492 435 c 4
 492 357 407 298 312 298 c 4
 247 298 186 326 143 375 c 4
 199 436 l 4
 209 425 204 414 215 403 c 4
 221 397 257 365 313 365 c 4
 371 365 418 399 418 441 c 4
 418 463 405 507 314 507 c 4
 302 507 290 506 279 505 c 4
 279 564 l 4
 287 563 294 563 302 563 c 4
 380 563 401 597 401 624 c 4
 401 660 365 694 312 694 c 4
 272 694 230 675 202 639 c 4
 159 683 l 4
 199 730 256 757 316 757 c 4
EndSplineSet
Validated: 1
EndChar

StartChar: divide
Encoding: 247 247 205
Width: 613
Flags: MW
TeX: 102 0
LayerCount: 2
Fore
SplineSet
94 413 m 0
 521 413 l 0
 521 334 l 0
 94 334 l 0
 94 413 l 0
367 554 m 0
 367 525 342 501 313 501 c 0
 284 501 260 525 260 554 c 0
 260 583 284 607 313 607 c 0
 342 607 367 583 367 554 c 0
367 188 m 0
 367 159 342 135 313 135 c 0
 284 135 260 159 260 188 c 0
 260 217 284 242 313 242 c 0
 342 242 367 217 367 188 c 0
EndSplineSet
Validated: 1
EndChar

StartChar: Oslash
Encoding: 216 216 206
Width: 613
Flags: MW
TeX: 81 0
LayerCount: 2
Fore
SplineSet
308 670 m 0
 230 670 127 602 127 382 c 0
 127 289 143 221 167 172 c 1
 409 627 l 1
 377 657 341 670 308 670 c 0
569 368 m 0
 569 303 564 211 525 132 c 0
 476 34 392 -11 312 -11 c 0
 268 -11 219 3 174 36 c 1
 115 -75 l 1
 53 -43 l 1
 122 87 l 1
 77 147 45 238 45 371 c 0
 45 662 201 748 311 748 c 0
 358 748 407 733 449 701 c 1
 503 803 l 1
 566 769 l 1
 501 647 l 1
 509 635 517 622 524 608 c 0
 564 529 569 437 569 368 c 0
455 560 m 1
 213 110 l 1
 244 82 280 70 312 70 c 0
 362 70 419 98 453 170 c 0
 483 233 486 309 486 357 c 0
 486 420 483 491 458 553 c 2
 455 560 l 1
EndSplineSet
Validated: 1
EndChar

StartChar: multiply
Encoding: 215 215 207
Width: 613
Flags: MW
TeX: 112 0
LayerCount: 2
Fore
SplineSet
464 597 m 1
 520 545 l 1
 366 386 l 1
 517 226 l 1
 462 172 l 1
 312 330 l 1
 164 177 l 1
 111 229 l 1
 260 385 l 1
 111 543 l 1
 167 597 l 1
 314 441 l 1
 464 597 l 1
EndSplineSet
Validated: 1
EndChar

StartChar: AE
Encoding: 198 198 208
Width: 613
Flags: MW
TeX: 67 0
LayerCount: 2
Fore
SplineSet
248 740 m 0
 585 740 l 0
 585 667 l 0
 379 667 l 0
 381 424 l 0
 554 424 l 0
 554 348 l 0
 382 348 l 0
 384 74 l 0
 582 74 l 0
 582 0 l 0
 309 0 l 0
 309 201 l 0
 155 201 l 0
 91 0 l 0
 15 0 l 0
 248 740 l 0
309 667 m 0
 296 667 l 0
 172 269 l 0
 309 269 l 0
 309 667 l 0
EndSplineSet
Validated: 1
EndChar

StartChar: OE
Encoding: 338 338 209
Width: 613
Flags: MW
TeX: 81 0
LayerCount: 2
Fore
SplineSet
310 707 m 0
 310 740 l 0
 585 740 l 0
 585 667 l 0
 384 667 l 0
 384 424 l 0
 554 424 l 0
 554 348 l 0
 384 348 l 0
 384 74 l 0
 582 74 l 0
 582 0 l 0
 309 0 l 0
 309 37 l 0
 285 8 250 -8 212 -8 c 0
 154 -8 82 31 48 142 c 0
 44 156 22 232 22 371 c 0
 22 470 29 556 61 631 c 0
 100 722 165 750 213 750 c 0
 250 750 284 735 310 707 c 0
97 385 m 0
 97 351 97 227 130 146 c 0
 157 80 195 65 222 65 c 0
 264 65 298 102 309 154 c 0
 309 575 l 0
 297 615 266 681 213 681 c 0
 178 681 143 652 121 587 c 0
 113 565 97 510 97 385 c 0
EndSplineSet
Validated: 1
EndChar

StartChar: currency
Encoding: 164 164 210
Width: 613
Flags: MW
TeX: 80 0
LayerCount: 2
Fore
SplineSet
308 528 m 0
 242 528 188 476 188 410 c 0
 188 344 242 291 308 291 c 0
 374 291 427 344 427 410 c 0
 427 476 374 528 308 528 c 0
91 584 m 1
 133 626 l 1
 200 559 l 1
 231 581 268 594 308 594 c 0
 347 594 384 582 415 560 c 1
 480 626 l 1
 522 584 l 1
 457 518 l 1
 480 487 493 450 493 410 c 0
 493 370 480 332 458 302 c 1
 522 237 l 1
 480 195 l 1
 415 260 l 1
 385 237 348 225 308 225 c 0
 267 225 231 238 200 261 c 1
 133 195 l 1
 91 237 l 1
 158 303 l 1
 136 333 124 370 124 410 c 0
 124 450 136 486 158 516 c 1
 91 584 l 1
EndSplineSet
Validated: 1
EndChar

StartChar: brokenbar
Encoding: 166 166 211
Width: 613
Flags: MW
TeX: 80 0
LayerCount: 2
Fore
SplineSet
267 774 m 0
 347 774 l 0
 347 350 l 0
 267 350 l 0
 267 774 l 0
347 -179 m 0
 267 -179 l 0
 267 232 l 0
 347 232 l 0
 347 -179 l 0
EndSplineSet
Validated: 1
EndChar

StartChar: ogonek
Encoding: 731 731 214
Width: 613
Flags: MW
TeX: 80 0
LayerCount: 2
Fore
SplineSet
432 0 m 0
 511 0 l 0
 471 -36 442 -69 432 -80 c 0
 424 -89 412 -103 412 -121 c 0
 412 -139 424 -154 446 -154 c 0
 453 -154 463 -153 475 -148 c 0
 494 -141 505 -133 513 -127 c 0
 513 -181 l 0
 490 -201 460 -209 431 -209 c 0
 370 -209 338 -176 338 -136 c 0
 338 -98 371 -51 432 0 c 0
EndSplineSet
Validated: 1
EndChar

StartChar: dotaccent
Encoding: 729 729 222
Width: 613
Flags: MW
TeX: 80 0
LayerCount: 2
Fore
SplineSet
312 778 m 0
 346 778 374 751 374 717 c 0
 374 683 346 656 312 656 c 0
 278 656 251 683 251 717 c 0
 251 751 278 778 312 778 c 0
EndSplineSet
Validated: 1
EndChar

StartChar: breve
Encoding: 728 728 241
Width: 613
Flags: MW
LayerCount: 2
Fore
SplineSet
173 767 m 0
 200 724 248 683 307 683 c 0
 356 683 407 714 447 766 c 0
 481 717 l 0
 441 663 379 622 307 622 c 0
 242 622 177 656 130 713 c 0
 173 767 l 0
EndSplineSet
Validated: 1
EndChar

StartChar: eng
Encoding: 331 331 242
Width: 613
Flags: MW
LayerCount: 2
Fore
SplineSet
91 0 m 0
 91 542 l 0
 178 542 l 0
 178 446 l 0
 218 506 284 555 358 555 c 0
 420 555 476 520 503 459 c 0
 522 415 522 371 522 329 c 0
 522 67 l 0
 522 18 523 -33 501 -83 c 0
 468 -164 397 -209 322 -209 c 0
 280 -209 239 -195 206 -169 c 0
 247 -89 l 0
 255 -91 254 -99 257 -104 c 0
 260 -108 287 -129 324 -129 c 0
 357 -129 390 -114 412 -79 c 0
 438 -39 438 11 438 53 c 0
 438 327 l 0
 438 365 438 412 409 447 c 0
 390 470 362 481 335 481 c 0
 278 481 227 434 205 406 c 0
 182 376 178 349 178 312 c 0
 178 0 l 0
 91 0 l 0
EndSplineSet
Validated: 33
EndChar

StartChar: dcaron
Encoding: 271 271 245
Width: 613
Flags: MW
LayerCount: 2
Fore
SplineSet
377 463 m 0
 377 790 l 0
 458 790 l 0
 458 50 l 0
 458 34 459 17 463 0 c 0
 378 0 l 0
 374 13 373 27 373 40 c 0
 373 87 l 0
 340 30 281 -12 215 -12 c 0
 101 -12 10 108 10 275 c 0
 10 454 116 556 226 556 c 0
 291 556 349 520 377 463 c 0
230 487 m 0
 153 487 93 402 93 285 c 0
 93 175 145 63 233 63 c 0
 280 63 321 97 343 133 c 0
 366 171 370 212 370 261 c 0
 370 333 369 372 352 407 c 0
 328 457 274 487 230 487 c 0
EndSplineSet
Refer: 56 8217 N 0.8 0 0 0.8 314 191 2
Validated: 1
EndChar

StartChar: eogonek
Encoding: 281 281 246
Width: 613
Flags: MW
LayerCount: 2
Fore
SplineSet
317 555 m 0
 406 555 508 508 532 362 c 0
 535 340 537 320 537 297 c 0
 537 285 537 272 536 259 c 1
 151 259 l 1
 157 97 262 57 335 57 c 0
 389 57 440 78 475 118 c 1
 522 72 l 1
 480 19 l 2
 439 -32 406 -69 406 -104 c 0
 406 -131 425 -151 452 -151 c 0
 458 -151 479 -150 513 -128 c 1
 512 -186 l 1
 490 -198 462 -208 434 -208 c 0
 375 -208 336 -168 336 -119 c 0
 336 -84 357 -42 401 -1 c 1
 375 -8 346 -12 319 -12 c 0
 177 -12 68 90 68 268 c 0
 68 463 188 555 317 555 c 0
154 325 m 1
 452 325 l 1
 453 331 453 337 453 343 c 0
 453 423 393 490 311 490 c 0
 253 490 171 453 154 325 c 1
EndSplineSet
Validated: 1
EndChar

StartChar: dotlessj
Encoding: 567 567 259
Width: 613
Flags: MW
LayerCount: 2
Fore
SplineSet
160 543 m 0
 447 543 l 0
 447 38 l 0
 447 -9 446 -54 423 -99 c 0
 386 -171 310 -207 233 -207 c 0
 166 -207 107 -179 68 -131 c 0
 123 -57 l 0
 130 -63 128 -71 133 -79 c 0
 137 -86 173 -133 239 -133 c 0
 285 -133 328 -109 348 -65 c 0
 361 -36 361 -7 361 22 c 0
 361 472 l 0
 160 472 l 0
 160 543 l 0
EndSplineSet
Validated: 1
EndChar

StartChar: kgreenlandic
Encoding: 312 312 260
Width: 613
Flags: MW
LayerCount: 2
Fore
SplineSet
89 542 m 4
 186 542 l 4
 186 541 187 540 187 539 c 4
 187 532 182 528 179 524 c 4
 175 519 175 515 175 511 c 4
 175 293 l 4
 446 545 l 4
 468 540 488 539 510 539 c 4
 541 539 l 4
 312 324 l 4
 579 -1 l 4
 576 -1 573 -1 570 -1 c 4
 513 -1 468 -5 468 -5 c 4
 247 271 l 4
 175 205 l 4
 175 -1 l 4
 89 -1 l 4
 89 542 l 4
EndSplineSet
Validated: 1
EndChar

StartChar: uparrow
Encoding: 8593 8593 266
Width: 613
Flags: MW
LayerCount: 2
Fore
SplineSet
80 479 m 1
 302 760 l 1
 328 760 l 1
 534 477 l 1
 474 437 l 1
 348 608 l 1
 348 -40 l 1
 269 -40 l 1
 269 609 l 1
 131 437 l 1
 80 479 l 1
EndSplineSet
Validated: 1
EndChar

StartChar: visiblespace
Encoding: 9251 9251 268
Width: 613
Flags: MW
LayerCount: 2
Fore
SplineSet
68 83 m 0
 123 83 l 0
 123 -25 l 0
 489 -25 l 0
 489 83 l 0
 547 83 l 0
 547 -78 l 0
 68 -78 l 0
 68 83 l 0
EndSplineSet
Validated: 1
EndChar

StartChar: r.serif
Encoding: 65540 -1 269
Width: 613
Flags: MW
LayerCount: 2
Fore
SplineSet
87 542 m 4
 250 542 l 4
 247 437 l 4
 281 505 348 554 426 554 c 4
 477 554 528 534 566 496 c 4
 526 414 l 4
 517 422 514 431 507 440 c 4
 493 459 464 481 421 481 c 4
 381 481 333 460 290 399 c 4
 248 339 247 302 247 273 c 4
 247 63 l 4
 360 63 l 4
 360 -1 l 4
 85 -1 l 4
 85 63 l 4
 162 63 l 4
 162 473 l 4
 87 473 l 4
 87 542 l 4
EndSplineSet
Validated: 1
EndChar

StartChar: hungarumlaut.cap
Encoding: 65541 -1 270
Width: 613
Flags: MW
LayerCount: 2
Fore
SplineSet
498 962 m 0
 553 885 l 0
 380 765 l 0
 342 814 l 0
 498 962 l 0
287 962 m 0
 342 885 l 0
 169 765 l 0
 131 814 l 0
 287 962 l 0
EndSplineSet
Validated: 1
EndChar

StartChar: uni2074
Encoding: 8308 8308 271
Width: 613
Flags: MW
LayerCount: 2
Fore
SplineSet
369 761 m 0
 415 761 l 0
 415 470 l 0
 489 470 l 0
 489 414 l 0
 415 414 l 0
 415 299 l 0
 347 299 l 0
 347 415 l 0
 131 415 l 0
 131 457 l 0
 369 761 l 0
348 645 m 0
 209 470 l 0
 348 470 l 0
 348 645 l 0
EndSplineSet
Validated: 1
EndChar

StartChar: fraction
Encoding: 8260 8260 274
Width: 613
Flags: MW
LayerCount: 2
Fore
SplineSet
100 -19 m 29
 472 788 l 29
 528 757 l 29
 156 -50 l 29
 100 -19 l 29
EndSplineSet
Validated: 1
EndChar

StartChar: lslash
Encoding: 322 322 275
Width: 613
Flags: MW
LayerCount: 2
Fore
SplineSet
111 788 m 1
 350 788 l 1
 350 439 l 1
 427 466 l 2
 439 470 448 475 459 483 c 1
 459 396 l 1
 350 360 l 1
 350 69 l 1
 510 69 l 1
 510 0 l 1
 103 0 l 1
 103 69 l 1
 264 69 l 1
 264 331 l 1
 171 299 l 1
 171 377 l 1
 264 409 l 1
 264 720 l 1
 111 720 l 1
 111 788 l 1
EndSplineSet
Validated: 1
EndChar

StartChar: Lslash
Encoding: 321 321 276
Width: 613
Flags: MW
LayerCount: 2
Fore
SplineSet
97 739 m 1
 194 739 l 1
 194 738 194 737 194 736 c 0
 194 721 183 718 183 699 c 2
 183 390 l 1
 380 454 l 2
 390 457 400 460 411 465 c 1
 411 389 l 1
 183 316 l 1
 183 71 l 1
 540 71 l 1
 540 -1 l 1
 97 -1 l 1
 97 289 l 1
 34 268 l 1
 34 341 l 1
 97 362 l 1
 97 739 l 1
EndSplineSet
Validated: 1
EndChar

StartChar: Eng
Encoding: 330 330 277
Width: 613
Flags: MW
LayerCount: 2
Fore
SplineSet
71 0 m 0
 71 739 l 0
 158 739 l 0
 158 643 l 0
 200 709 272 753 350 753 c 0
 423 753 488 714 520 644 c 0
 542 597 543 550 543 503 c 0
 543 208 l 0
 543 167 541 126 522 85 c 0
 493 23 433 -12 364 -12 c 0
 327 -12 291 -3 259 16 c 0
 301 90 l 0
 308 86 309 80 313 77 c 0
 316 75 338 61 366 61 c 0
 400 61 430 80 445 114 c 0
 458 142 459 174 459 202 c 0
 459 501 l 0
 459 536 458 575 440 611 c 0
 420 654 380 678 335 678 c 0
 272 678 211 628 184 591 c 0
 161 558 158 528 158 489 c 0
 158 0 l 0
 71 0 l 0
EndSplineSet
Validated: 1
EndChar

StartChar: dcroat
Encoding: 273 273 278
Width: 613
Flags: MW
LayerCount: 2
Fore
SplineSet
287 486 m 0
 225 486 138 444 138 290 c 0
 138 111 230 63 291 63 c 0
 348 63 402 101 424 166 c 0
 433 193 435 224 435 265 c 0
 435 326 433 356 426 381 c 0
 404 461 335 486 287 486 c 0
522 645 m 1
 523 50 l 2
 523 34 524 17 528 0 c 1
 443 0 l 1
 439 13 438 27 438 40 c 2
 438 87 l 1
 404 26 340 -12 271 -12 c 0
 166 -12 55 76 55 276 c 0
 55 483 180 556 283 556 c 0
 358 556 416 519 442 463 c 1
 442 645 l 1
 352 645 l 1
 352 709 l 1
 442 709 l 1
 442 790 l 1
 534 790 l 1
 534 782 529 776 527 772 c 0
 523 765 522 762 522 756 c 2
 522 709 l 1
 574 709 l 1
 574 645 l 1
 522 645 l 1
EndSplineSet
Validated: 1
EndChar

StartChar: bullet
Encoding: 8226 8226 287
Width: 613
Flags: MW
LayerCount: 2
Fore
SplineSet
415 352 m 0
 415 298 370 253 314 253 c 0
 258 253 213 298 213 352 c 0
 213 406 258 451 314 451 c 0
 370 451 415 406 415 352 c 0
EndSplineSet
Validated: 1
EndChar

StartChar: florin
Encoding: 402 402 288
Width: 613
Flags: MW
LayerCount: 2
Fore
SplineSet
580 736 m 1
 541 657 l 1
 537 657 532 660 531 667 c 0
 530 672 531 675 528 681 c 0
 517 704 488 731 449 731 c 0
 419 731 384 715 365 672 c 0
 348 635 347 589 344 552 c 2
 336 455 l 1
 482 455 l 1
 482 387 l 1
 331 387 l 1
 302 29 l 2
 298 -24 292 -76 264 -123 c 0
 230 -181 177 -208 128 -208 c 0
 91 -208 57 -193 32 -166 c 1
 80 -90 l 1
 87 -94 89 -100 92 -105 c 0
 99 -116 113 -128 135 -128 c 0
 154 -128 179 -117 196 -85 c 0
 216 -48 219 -4 222 32 c 2
 249 387 l 1
 105 387 l 1
 105 455 l 1
 254 455 l 1
 262 563 l 2
 265 608 270 654 292 699 c 0
 325 764 385 799 447 799 c 0
 498 799 547 776 580 736 c 1
EndSplineSet
Validated: 1
EndChar

StartChar: dagger
Encoding: 8224 8224 289
Width: 613
Flags: MW
LayerCount: 2
Fore
SplineSet
267 774 m 1
 347 774 l 1
 347 542 l 1
 544 542 l 1
 544 471 l 1
 347 471 l 1
 347 -179 l 1
 267 -179 l 1
 267 471 l 1
 69 471 l 1
 69 542 l 1
 267 542 l 1
 267 774 l 1
EndSplineSet
Validated: 1
EndChar

StartChar: daggerdbl
Encoding: 8225 8225 290
Width: 613
Flags: MW
LayerCount: 2
Fore
SplineSet
267 774 m 1
 347 774 l 1
 347 542 l 1
 544 542 l 1
 544 471 l 1
 347 471 l 1
 347 143 l 1
 544 143 l 1
 544 73 l 1
 347 73 l 1
 347 -179 l 1
 267 -179 l 1
 267 73 l 1
 69 73 l 1
 69 143 l 1
 267 143 l 1
 267 471 l 1
 69 471 l 1
 69 542 l 1
 267 542 l 1
 267 774 l 1
EndSplineSet
Validated: 1
EndChar

StartChar: trademark
Encoding: 8482 8482 291
Width: 613
VWidth: 1183
Flags: MW
LayerCount: 2
Fore
SplineSet
293 753 m 5
 293 706 l 5
 187 706 l 5
 187 379 l 5
 133 379 l 5
 133 706 l 5
 31 706 l 5
 31 753 l 5
 293 753 l 5
369 753 m 5
 455 581 l 5
 478 624 477 624 499 667 c 4
 521 710 521 710 544 753 c 5
 583 753 l 5
 583 379 l 5
 534 379 l 5
 534 634 l 5
 516 602 515 603 497 570 c 4
 479 537 479 537 462 506 c 5
 443 508 l 5
 378 634 l 5
 378 379 l 5
 328 379 l 5
 328 753 l 5
 369 753 l 5
EndSplineSet
Validated: 1
EndChar

StartChar: zero.noslash
Encoding: 65542 -1 292
Width: 613
Flags: MW
LayerCount: 2
Fore
SplineSet
529 366 m 4
 529 141 434 -13 305 -13 c 4
 188 -13 85 117 85 350 c 4
 85 589 177 744 307 744 c 4
 431 744 529 599 529 366 c 4
306 672 m 4
 280 672 236 660 206 594 c 4
 182 541 164 465 164 360 c 4
 164 284 179 205 199 157 c 4
 232 78 279 62 310 62 c 4
 337 62 378 74 409 133 c 4
 442 195 453 291 453 351 c 4
 453 430 436 527 413 582 c 4
 381 657 336 672 306 672 c 4
EndSplineSet
Validated: 1
EndChar

StartChar: alpha
Encoding: 945 945 294
Width: 613
Flags: MW
LayerCount: 2
Fore
SplineSet
273 484 m 0
 193 484 123 438 123 275 c 0
 123 125 199 72 272 72 c 0
 277 72 285 72 291 72 c 0
 341 72 413 83 413 279 c 0
 413 410 371 484 273 484 c 0
572 9 m 9
 477 9 l 17
 477 9 450 59 450 82 c 0
 450 83 l 1
 427 22 331 -5 273 -5 c 0
 212 -5 43 28 42 272 c 1
 42 276 42 280 42 284 c 0
 42 547 230 559 273 560 c 1
 404 560 441 468 441 468 c 25
 456 546 l 25
 529 528 l 17
 499 394 l 1
 489 357 484 314 484 271 c 0
 484 228 489 185 501 147 c 0
 525 71 572 9 572 9 c 9
EndSplineSet
Validated: 1
EndChar

StartChar: beta
Encoding: 946 946 295
Width: 613
Flags: MW
LayerCount: 2
Fore
SplineSet
539 207 m 12
 539 94 433 3 330 1 c 4
 329 1 328 1 327 1 c 4
 219 1 156 90 156 90 c 5
 156 -160 l 5
 77 -160 l 5
 77 473 l 6
 77 522 77 574 100 624 c 4
 135 701 208 742 285 742 c 4
 398 742 488 653 488 549 c 4
 488 487 454 430 399 402 c 5
 483 376 539 298 539 207 c 12
330 74 m 5
 402 74 458 128 458 207 c 4
 458 264 426 311 383 337 c 4
 351 356 327 359 290 359 c 6
 211 359 l 5
 211 429 l 5
 288 429 l 6
 387 429 404 508 404 551 c 4
 404 624 356 668 289 668 c 4
 252 668 215 659 188 622 c 4
 158 580 157 530 157 483 c 0
 157 480 157 477 157 474 c 6
 155 145 l 5
 179 139 253 74 323 74 c 4
 325 74 328 74 330 74 c 5
EndSplineSet
Validated: 1
EndChar

StartChar: gamma
Encoding: 947 947 296
Width: 613
Flags: MW
LayerCount: 2
Fore
SplineSet
280 2 m 0
 59 542 l 0
 166 542 l 0
 167 532 161 525 161 516 c 0
 161 513 162 510 163 507 c 0
 322 108 l 0
 425 398 l 0
 441 445 457 494 466 543 c 0
 555 543 l 0
 539 490 520 437 501 386 c 0
 359 0 l 0
 354 -12 353 -31 353 -55 c 0
 353 -90 355 -133 355 -173 c 9
 276 -173 l 25
 277 -105 280 2 280 2 c 0
EndSplineSet
Validated: 1
EndChar

StartChar: delta
Encoding: 948 948 297
Width: 613
Flags: MW
LayerCount: 2
Fore
SplineSet
309 454 m 0
 229 454 156 386 156 263 c 0
 156 139 230 65 313 65 c 0
 389 65 463 129 463 255 c 0
 463 392 384 454 309 454 c 0
464 701 m 1
 399 701 l 1
 184 699 l 1
 424 496 l 1
 512 434 545 325 545 258 c 0
 545 93 435 -3 312 -3 c 0
 182 -3 70 105 70 257 c 0
 70 408 155 520 280 520 c 0
 282 520 283 520 285 520 c 0
 285 522 155 632 71 699 c 5
 70 767 l 5
 511 767 l 1
 511 670 l 1
 464 701 l 1
EndSplineSet
Validated: 1
EndChar

StartChar: epsilon
Encoding: 949 949 298
Width: 613
Flags: MW
LayerCount: 2
Fore
SplineSet
485 146 m 0
 522 91 l 0
 466 33 407 0 322 0 c 0
 197 0 86 65 86 157 c 0
 86 216 114 274 180 285 c 0
 128 300 89 340 89 392 c 0
 89 473 177 551 294 551 c 0
 372 551 455 524 508 468 c 0
 467 414 l 0
 421 460 356 472 293 472 c 0
 224 472 175 438 175 392 c 0
 175 357 196 321 321 321 c 0
 333 321 346 321 359 322 c 0
 359 239 l 0
 340 241 341 242 321 242 c 0
 175 242 171 183 171 155 c 0
 171 111 251 78 321 77 c 0
 411 77 448 116 485 146 c 0
EndSplineSet
Validated: 1
EndChar

StartChar: zeta
Encoding: 950 950 299
Width: 613
Flags: MW
LayerCount: 2
Fore
SplineSet
398 -103 m 5
 417 -57 441 7 441 7 c 4
 441 7 89 28 89 251 c 4
 89 252 89 252 89 253 c 4
 91 534 338 654 404 689 c 5
 401 688 378 688 346 688 c 4
 281 688 181 689 126 689 c 5
 102 688 99 675 96 675 c 4
 97 769 l 4
 519 769 l 4
 519 687 l 4
 519 687 186 585 183 255 c 4
 183 254 183 254 183 253 c 4
 183 60 509 95 515 87 c 4
 523 76 526 62 526 49 c 4
 526 -6 474 -77 468 -134 c 4
 468 -135 419 -137 390 -137 c 4
 378 -137 370 -137 370 -136 c 4
 371 -132 380 -132 388 -123 c 5
 397 -111 395 -110 398 -103 c 5
EndSplineSet
Validated: 1
EndChar

StartChar: eta
Encoding: 951 951 300
Width: 613
Flags: MW
LayerCount: 2
Fore
SplineSet
99 500 m 1
 84 542 l 25
 186 542 l 25
 186 446 l 0
 226 506 293 555 367 555 c 0
 428 555 484 521 511 460 c 0
 530 416 530 371 530 329 c 1
 530 -160 l 25
 446 -160 l 25
 446 327 l 2
 446 329 446 332 446 334 c 0
 446 370 445 413 417 446 c 0
 398 470 371 481 343 481 c 0
 286 481 233 434 213 406 c 0
 190 376 186 349 186 312 c 2
 186 0 l 25
 99 0 l 25
 99 500 l 1
EndSplineSet
Validated: 1
EndChar

StartChar: theta
Encoding: 952 952 301
Width: 613
Flags: MW
LayerCount: 2
Fore
SplineSet
297 768 m 4
 445 768 523 600 523 391 c 0
 523 223 502 2 300 1 c 0
 298 1 l 0
 115 1 89 205 89 387 c 0
 89 610 156 768 297 768 c 4
439 428 m 1
 439 595 372 692 298 692 c 4
 231 692 174 604 173 427 c 1
 225 427 377 428 439 428 c 1
439 352 m 1
 172 352 l 17
 174 218 194 83 300 83 c 0
 417 83 439 212 439 343 c 0
 439 346 439 349 439 352 c 1
EndSplineSet
EndChar

StartChar: iota
Encoding: 953 953 302
Width: 613
Flags: MW
LayerCount: 2
Fore
SplineSet
118 545 m 0
 357 545 l 0
 357 545 357 300 357 143 c 16
 357 85 379 82 422 82 c 1
 422 0 l 1
 408 0 393 -1 380 -1 c 0
 319 -1 271 11 271 144 c 1
 270 153 270 169 270 184 c 0
 270 216 271 252 271 252 c 1
 271 475 l 1
 138 475 l 0
 125 475 119 464 119 464 c 0
 118 545 l 0
EndSplineSet
Validated: 1
EndChar

StartChar: kappa
Encoding: 954 954 303
Width: 613
Flags: MW
LayerCount: 2
Fore
SplineSet
62 542 m 0
 160 542 l 0
 160 541 160 541 160 540 c 0
 160 533 156 528 153 524 c 0
 149 519 148 515 148 511 c 0
 148 293 l 0
 420 546 l 4
 436 542 454 542 471 542 c 0
 478 542 484 542 490 542 c 0
 521 542 l 0
 291 324 l 0
 552 -1 l 0
 549 -1 547 -1 544 -1 c 0
 450 -1 l 0
 228 271 l 0
 148 205 l 0
 148 -1 l 0
 62 -1 l 0
 62 542 l 0
EndSplineSet
Validated: 1
EndChar

StartChar: lambda
Encoding: 955 955 304
Width: 613
Flags: MW
LayerCount: 2
Fore
SplineSet
308 507 m 1
 290 603 246 704 174 714 c 0
 169 715 165 715 160 715 c 0
 136 715 117 707 115 707 c 0
 113 788 l 1
 132 788 153 789 168 789 c 0
 169 789 l 0
 343 789 370 589 406 468 c 1
 456 309 552 18 578 -0 c 1
 578 -0 488 0 485 0 c 1
 457 56 353 379 342 400 c 1
 116 0 l 1
 34 0 l 1
 308 507 l 1
EndSplineSet
Validated: 1
EndChar

StartChar: mu
Encoding: 956 956 305
Width: 613
Flags: MW
LayerCount: 2
Fore
SplineSet
509 98 m 5
 509 72 518 70 527 70 c 4
 530 70 533 70 534 70 c 4
 536 70 l 5
 537 56 537 0 537 0 c 5
 467 0 l 5
 452 0 427 16 427 61 c 5
 427 142 l 5
 427 129 372 0 261 0 c 4
 229 0 183 16 161 66 c 5
 161 33 l 4
 161 -172 l 5
 77 -172 l 5
 77 228 l 5
 77 541 l 5
 158 541 l 5
 158 258 l 5
 158 256 l 6
 158 121 204 86 260 86 c 4
 330 86 427 185 427 288 c 6
 427 541 l 5
 509 541 l 5
 509 98 l 5
EndSplineSet
Validated: 1
EndChar

StartChar: nu
Encoding: 957 957 306
Width: 613
Flags: MW
LayerCount: 2
Fore
SplineSet
57 542 m 0
 160 542 l 0
 162 533 156 536 156 529 c 0
 156 525 155 518 314 116 c 1
 432 272 491 410 491 508 c 0
 491 520 490 531 488 542 c 1
 575 542 l 1
 575 522 571 428 552 372 c 0
 486 183 339 -4 339 -4 c 0
 272 -4 l 0
 57 542 l 0
EndSplineSet
Validated: 33
EndChar

StartChar: xi
Encoding: 958 958 307
Width: 613
Flags: MW
LayerCount: 2
Fore
SplineSet
419 -32 m 0
 391 38 106 -23 106 202 c 0
 106 315 189 397 267 400 c 1
 198 439 174 481 174 520 c 0
 174 585 241 642 287 664 c 1
 283 663 262 663 234 663 c 0
 205 663 188 663 147 663 c 1
 122 662 121 648 118 648 c 0
 118 742 l 0
 519 742 l 0
 519 660 l 0
 519 660 440 660 435 660 c 1
 356 651 267 582 267 523 c 0
 267 487 300 455 385 442 c 1
 484 442 l 25
 484 351 l 25
 389 350 l 1
 278 350 191 324 191 204 c 1
 194 67 404 120 489 31 c 0
 500 20 510 4 510 -9 c 0
 510 -50 472 -92 461 -143 c 9
 369 -144 l 17
 386 -104 420 -62 420 -38 c 0
 420 -36 420 -34 419 -32 c 0
EndSplineSet
Validated: 1
EndChar

StartChar: omicron
Encoding: 959 959 308
Width: 613
Flags: MW
LayerCount: 2
Fore
SplineSet
556 268 m 4
 556 89 440 -14 312 -14 c 4
 176 -14 58 102 58 267 c 4
 58 435 176 554 314 554 c 4
 437 554 556 455 556 268 c 4
309 481 m 4
 226 481 148 407 148 274 c 4
 148 140 227 59 313 59 c 4
 392 59 470 129 470 265 c 4
 470 413 387 481 309 481 c 4
EndSplineSet
Validated: 1
EndChar

StartChar: pi
Encoding: 960 960 309
Width: 613
Flags: MW
HStem: 610 60
LayerCount: 2
Fore
SplineSet
40 543 m 1
 573 543 l 1
 573 462 l 1
 507 462 l 1
 507 79 l 1
 537 79 l 1
 542 84 l 1
 542 84 541 33 541 0 c 1
 467 0 l 2
 430 0 423 24 423 41 c 2
 423 462 l 1
 194 462 l 1
 194 0 l 1
 105 0 l 1
 105 462 l 1
 40 462 l 1
 40 543 l 1
EndSplineSet
Validated: 1
EndChar

StartChar: rho
Encoding: 961 961 310
Width: 613
Flags: MW
LayerCount: 2
Fore
SplineSet
76 286 m 2
 76 464 152 554 307 554 c 0
 448 554 550 481 550 290 c 0
 550 91 424 -8 313 -8 c 0
 201 -8 164 62 156 70 c 9
 156 -198 l 25
 76 -198 l 25
 76 286 l 2
306 484 m 0
 228 484 152 460 152 288 c 0
 152 122 238 68 312 68 c 0
 363 68 471 119 471 289 c 0
 471 465 384 484 306 484 c 0
EndSplineSet
Validated: 1
EndChar

StartChar: sigma
Encoding: 963 963 311
Width: 613
Flags: MW
LayerCount: 2
Fore
SplineSet
538 268 m 0
 538 89 420 -14 292 -14 c 0
 156 -14 40 102 40 267 c 0
 40 436 124 543 296 543 c 2
 588 543 l 1
 583 532 l 0
 583 474 l 1
 469 474 l 1
 513 426 538 360 538 268 c 0
288 469 m 1
 205 469 130 407 130 274 c 0
 130 140 207 59 293 59 c 0
 372 59 452 129 452 265 c 0
 452 388 396 460 288 469 c 1
EndSplineSet
Validated: 1
EndChar

StartChar: tau
Encoding: 964 964 312
Width: 613
Flags: MW
LayerCount: 2
Fore
SplineSet
100 542 m 5
 555 542 l 4
 555 466 l 4
 341 466 l 4
 339 143 l 4
 339 89 404 78 451 78 c 4
 478 78 499 82 499 82 c 4
 500 7 l 4
 500 7 473 2 438 2 c 4
 365 2 255 22 255 144 c 5
 254 153 254 168 254 184 c 4
 254 216 255 252 255 252 c 5
 255 467 l 5
 213 467 171 468 137 468 c 4
 100 468 71 467 59 460 c 5
 100 542 l 5
EndSplineSet
Validated: 1
EndChar

StartChar: upsilon
Encoding: 965 965 313
Width: 613
Flags: MW
LayerCount: 2
Fore
SplineSet
85 542 m 0
 85 542 137 542 171 542 c 25
 171 240 l 2
 171 234 l 0
 171 176 173 65 299 65 c 0
 376 65 440 142 440 242 c 2
 440 542 l 1
 526 542 l 25
 526 244 l 0
 526 174 500 113 470 75 c 4
 413 2 357 -14 294 -14 c 0
 223 -14 138 24 105 97 c 0
 85 139 84 185 84 228 c 0
 84 232 84 236 84 240 c 0
 85 477 l 0
 85 477 53 481 33 483 c 25
 47 542 l 25
 85 542 l 0
EndSplineSet
Validated: 1
EndChar

StartChar: Xi
Encoding: 926 926 322
Width: 613
Flags: MW
LayerCount: 2
Fore
SplineSet
346 76 m 20
 499 76 l 4
 499 -1 l 4
 115 -1 l 4
 115 77 l 4
 263 77 l 4
 263 77 313 76 346 76 c 20
346 663 m 12
 263 663 l 4
 115 663 l 4
 115 739 l 4
 499 739 l 4
 499 663 l 4
 346 663 l 12
151 425 m 5
 465 425 l 5
 465 348 l 5
 151 348 l 5
 151 425 l 5
EndSplineSet
Validated: 1
EndChar

StartChar: tonos
Encoding: 900 900 328
Width: 613
Flags: MW
LayerCount: 2
Fore
SplineSet
362 827 m 4
 313 647 l 4
 262 647 l 4
 269 835 l 4
 362 827 l 4
EndSplineSet
Validated: 1
EndChar

StartChar: sigma1
Encoding: 962 962 346
Width: 613
Flags: MW
LayerCount: 2
Fore
SplineSet
89 293 m 1
 90 397 162 510 257 537 c 0
 312 552 393 554 440 554 c 0
 462 554 476 554 478 554 c 0
 479 554 479 551 479 547 c 0
 479 532 479 496 478 469 c 9
 432 468 385 467 361 467 c 0
 247 467 180 414 180 288 c 0
 180 226 235 155 280 136 c 0
 368 99 497 110 497 9 c 0
 496 -48 446 -108 439 -136 c 9
 348 -137 l 17
 365 -89 412 -45 412 -16 c 0
 412 49 298 17 196 84 c 0
 153 113 89 205 89 293 c 1
EndSplineSet
Validated: 1
EndChar

StartChar: chi
Encoding: 967 967 347
Width: 613
Flags: MW
LayerCount: 2
Fore
SplineSet
442 543 m 1
 524 543 l 1
 357 184 l 1
 499 -102 l 0
 510 -124 533 -128 544 -128 c 0
 552 -128 l 0
 552 -198 l 1
 552 -198 548 -198 542 -198 c 0
 517 -198 456 -194 427 -147 c 1
 312 91 l 1
 179 -198 l 1
 88 -198 l 1
 267 182 l 1
 142 399 l 0
 104 459 92 465 76 465 c 0
 72 465 67 465 61 465 c 9
 61 545 l 1
 69 545 80 545 89 545 c 0
 118 545 150 540 179 497 c 1
 189 482 236 426 313 269 c 1
 442 543 l 1
EndSplineSet
Validated: 1
EndChar

StartChar: psi
Encoding: 968 968 348
Width: 613
Flags: MW
LayerCount: 2
Fore
SplineSet
92 542 m 2
 171 542 l 1
 171 439 171 337 171 234 c 0
 171 182 175 86 267 68 c 1
 267 632 l 1
 348 662 l 1
 348 75 l 1
 402 99 444 163 444 242 c 2
 443 542 l 1
 521 542 l 1
 521 244 l 2
 521 174 496 114 466 76 c 0
 425 24 391 0 348 -9 c 1
 348 -197 l 1
 267 -197 l 1
 267 -12 l 1
 204 -3 142 35 113 97 c 0
 93 139 92 185 92 228 c 0
 92 232 92 236 92 240 c 0
 92 321 92 381 92 426 c 0
 92 542 l 2
EndSplineSet
Validated: 1
EndChar

StartChar: phi
Encoding: 966 966 349
Width: 613
Flags: MW
LayerCount: 2
Fore
SplineSet
267 609 m 1
 353 621 l 1
 353 553 l 1
 459 534 556 434 556 268 c 0
 556 109 463 10 353 -10 c 1
 353 -197 l 1
 267 -197 l 1
 267 -11 l 1
 148 9 58 119 58 267 c 0
 58 417 148 530 267 553 c 1
 267 609 l 1
267 61 m 1
 267 480 l 1
 199 461 143 387 143 274 c 0
 143 162 198 83 267 61 c 1
353 477 m 1
 353 62 l 1
 415 82 474 153 474 265 c 0
 474 384 414 454 353 477 c 1
EndSplineSet
Validated: 1
EndChar

StartChar: omega
Encoding: 969 969 350
Width: 613
Flags: MW
LayerCount: 2
Fore
SplineSet
193 76 m 0
 252 76 263 162 264 251 c 2
 264 372 l 1
 343 372 l 1
 344 251 l 2
 344 161 360 76 420 76 c 0
 473 76 498 167 498 272 c 0
 498 339 481 424 461 544 c 1
 543 544 l 1
 549 509 580 405 580 283 c 0
 580 209 576 158 537 69 c 0
 517 23 463 -2 421 -2 c 0
 420 -2 420 -2 419 -2 c 0
 391 -2 341 16 306 52 c 1
 272 16 222 -2 194 -2 c 0
 193 -2 192 -2 191 -2 c 0
 149 -2 99 24 76 69 c 0
 39 141 36 189 36 244 c 0
 36 257 36 270 36 283 c 0
 36 405 64 509 70 544 c 1
 153 544 l 1
 131 422 112 337 112 270 c 0
 112 161 134 76 193 76 c 0
EndSplineSet
Validated: 1
EndChar

StartChar: Lambda
Encoding: 923 923 352
Width: 613
Flags: MW
LayerCount: 2
Fore
SplineSet
293 562 m 1
 232 374 172 186 110 -1 c 1
 28 -1 l 0
 289 753 l 0
 298 753 l 4
 584 0 l 0
 498 0 l 1
 428 185 360 373 293 562 c 1
EndSplineSet
Validated: 1
EndChar

StartChar: Delta
Encoding: 916 916 353
Width: 613
Flags: MW
LayerCount: 2
Fore
SplineSet
28 0 m 21
 289 753 l 5
 298 753 l 5
 584 0 l 5
 28 0 l 21
136 81 m 5
 467 81 l 5
 293 562 l 5
 136 81 l 5
EndSplineSet
Validated: 1
EndChar

StartChar: Gamma
Encoding: 915 915 355
Width: 613
Flags: MW
LayerCount: 2
Fore
SplineSet
159 424 m 12
 159 348 l 4
 159 74 l 12
 160 0 l 29
 80 0 l 29
 80 740 l 29
 534 740 l 29
 534 667 l 29
 159 667 l 4
 159 424 l 12
EndSplineSet
Validated: 1
EndChar

StartChar: Theta
Encoding: 920 920 356
Width: 613
Flags: MW
LayerCount: 2
Fore
SplineSet
308 672 m 0
 146 672 130 525 130 381 c 0
 130 190 197 76 314 76 c 3
 422 76 487 170 487 382 c 0
 487 522 463 672 308 672 c 0
310 0 m 0
 90 0 45 221 45 381 c 4
 45 585 111 750 309 750 c 0
 485 750 569 608 569 382 c 0
 569 220 539 0 310 0 c 0
444 422 m 1025
176 421 m 1025
444 340 m 1
 176 340 l 9
 176 421 l 25
 176 421 378 422 444 422 c 9
 444 340 l 1
EndSplineSet
Validated: 1
EndChar

StartChar: Pi
Encoding: 928 928 357
Width: 613
Flags: MW
LayerCount: 2
Fore
SplineSet
159 424 m 1
 159 348 l 1
 159 74 l 1
 160 0 l 1
 80 0 l 1
 80 740 l 1
 455 740 l 1
 534 740 l 1
 534 667 l 1
 534 0 l 1
 455 0 l 1
 455 667 l 1
 159 667 l 1
 159 424 l 1
EndSplineSet
Validated: 1
EndChar

StartChar: Phi
Encoding: 934 934 358
Width: 613
Flags: MW
LayerCount: 2
Fore
SplineSet
309 737 m 0
 452 737 604 599 604 400 c 0
 604 201 453 108 347 83 c 1
 347 0 l 1
 270 0 l 1
 270 82 l 1
 155 107 10 212 10 397 c 0
 10 600 153 737 309 737 c 0
266 161 m 1
 266 665 l 1
 194 641 90 543 90 399 c 0
 90 255 193 187 266 161 c 1
351 664 m 1
 351 161 l 1
 418 187 526 258 526 401 c 0
 526 554 417 636 351 664 c 1
EndSplineSet
Validated: 1
EndChar

StartChar: Chi
Encoding: 935 935 359
Width: 613
Flags: MW
LayerCount: 2
Fore
SplineSet
437 739 m 1
 520 739 l 1
 347 380 l 1
 544 1 l 1
 451 1 l 1
 303 288 l 1
 163 1 l 1
 74 1 l 1
 260 376 l 1
 75 739 l 1
 163 739 l 1
 303 466 l 1
 437 739 l 1
EndSplineSet
Validated: 1
EndChar

StartChar: Sigma
Encoding: 931 931 362
Width: 613
Flags: MW
LayerCount: 2
Fore
SplineSet
257 362 m 5
 89 681 l 0
 88 739 l 0
 545 739 l 0
 545 665 l 0
 186 665 l 0
 345 361 l 1
 174 52 l 0
 523 52 l 0
 537 52 544 59 555 59 c 0
 556 59 558 59 559 59 c 0
 559 -22 l 0
 70 -22 l 0
 70 28 l 0
 257 362 l 5
346 362 m 1025
EndSplineSet
Validated: 1
EndChar

StartChar: Psi
Encoding: 936 936 363
Width: 613
Flags: MW
LayerCount: 2
Fore
SplineSet
269 705 m 1
 351 705 l 1
 351 290 l 1
 442 309 458 412 458 467 c 2
 458 740 l 1
 542 740 l 1
 542 469 l 2
 542 414 538 368 506 317 c 0
 468 256 408 230 351 220 c 1
 351 0 l 1
 269 0 l 1
 269 218 l 1
 206 227 152 251 109 317 c 0
 78 364 74 413 74 465 c 2
 75 740 l 1
 75 740 124 740 158 740 c 1
 158 467 l 2
 158 415 178 306 269 288 c 1
 269 705 l 1
EndSplineSet
Validated: 1
EndChar

StartChar: Omega
Encoding: 937 937 364
Width: 613
Flags: MW
LayerCount: 2
Fore
SplineSet
172 77 m 5
 102 172 64 236 63 337 c 1
 63 691 184 740 307 740 c 1
 424 740 551 693 551 339 c 0
 551 248 503 138 446 77 c 9
 548 77 l 25
 548 0 l 25
 361 0 l 25
 361 76 l 17
 392 105 469 247 469 339 c 0
 469 563 429 670 307 670 c 0
 184 670 147 564 147 340 c 0
 147 248 222 105 254 77 c 9
 254 0 l 25
 67 0 l 25
 67 77 l 25
 172 77 l 5
EndSplineSet
Validated: 1
EndChar

StartChar: anoteleia
Encoding: 903 903 366
Width: 613
Flags: MW
LayerCount: 2
Fore
SplineSet
364 485 m 4
 364 448 332 418 293 418 c 4
 254 418 223 448 223 486 c 4
 223 523 254 554 293 554 c 4
 332 554 364 522 364 485 c 4
EndSplineSet
Validated: 1
EndChar

StartChar: afii10018
Encoding: 1041 1041 368
Width: 613
VWidth: 1046
Flags: MW
LayerCount: 2
Fore
SplineSet
67 0 m 1
 67 739 l 1
 520 739 l 1
 520 665 l 1
 149 665 l 1
 149 432 l 1
 265 432 l 2
 347 432 397 432 457 391 c 0
 517 350 551 290 551 204 c 0
 551 128 507 56 428 22 c 0
 377 0 326 0 276 0 c 2
 147 0 l 1
 67 0 l 1
149 73 m 1
 290 73 l 2
 322 73 353 73 385 87 c 0
 436 110 464 160 464 213 c 0
 464 266 435 318 380 344 c 0
 343 361 307 363 270 363 c 2
 149 363 l 1
 149 73 l 1
EndSplineSet
EndChar

StartChar: afii10021
Encoding: 1044 1044 371
Width: 613
VWidth: 1046
Flags: MW
LayerCount: 2
Fore
SplineSet
57 69 m 1
 108 69 l 1
 110 72 111 76 113 81 c 0
 120 100 130 127 135 149 c 0
 170 312 182 547 186 665 c 0
 187 700 178 739 178 739 c 1
 532 739 l 1
 532 69 l 1
 593 69 l 1
 593 -172 l 1
 509 -172 l 1
 509 -1 l 1
 143 -1 l 1
 143 -171 l 1
 57 -171 l 1
 57 69 l 1
198 69 m 1
 454 69 l 1
 454 665 l 1
 268 665 l 1
 259 537 246 261 211 114 c 0
 208 99 203 84 198 69 c 1
EndSplineSet
EndChar

StartChar: afii10024
Encoding: 1046 1046 373
Width: 613
VWidth: 1046
Flags: MW
LayerCount: 2
Fore
SplineSet
17 0 m 1
 226 377 l 1
 46 739 l 1
 77 739 l 2
 98 739 119 740 140 745 c 1
 267 469 l 1
 267 738 l 1
 355 738 l 1
 356 736 356 734 356 732 c 0
 356 723 348 722 348 709 c 2
 348 475 l 1
 467 745 l 1
 488 740 509 739 530 739 c 2
 561 739 l 1
 390 382 l 1
 595 0 l 1
 537 0 489 -4 489 -4 c 1
 348 306 l 1
 348 0 l 1
 267 0 l 1
 267 292 l 1
 123 -4 l 1
 123 -4 75 0 17 0 c 1
EndSplineSet
EndChar

StartChar: afii10025
Encoding: 1047 1047 374
Width: 613
VWidth: 1046
Flags: MW
LayerCount: 2
Fore
SplineSet
38 125 m 0
 117 181 l 0
 128 167 118 158 128 143 c 0
 133 135 187 63 282 63 c 0
 401 63 470 132 470 213 c 0
 470 301 385 353 248 353 c 0
 231 353 214 352 197 350 c 0
 197 417 l 0
 293 417 339 430 357 436 c 0
 427 458 449 507 449 552 c 0
 449 614 393 667 289 667 c 0
 226 667 160 624 126 585 c 0
 73 634 l 0
 126 708 211 740 294 740 c 0
 440 740 530 654 530 553 c 0
 530 481 492 418 409 393 c 0
 504 365 551 291 551 203 c 0
 551 88 460 -12 284 -12 c 0
 192 -12 82 55 38 125 c 0
EndSplineSet
EndChar

StartChar: afii10026
Encoding: 1048 1048 375
Width: 613
VWidth: 1046
Flags: MW
LayerCount: 2
Fore
SplineSet
69 0 m 0
 69 738 l 0
 161 738 l 0
 162 736 163 734 163 732 c 0
 163 723 155 722 155 709 c 0
 155 203 l 1
 458 738 l 0
 539 738 l 1
 539 -1 l 0
 459 -1 l 0
 460 581 l 1
 135 0 l 0
 69 0 l 0
EndSplineSet
EndChar

StartChar: afii10029
Encoding: 1051 1051 378
Width: 613
VWidth: 1046
Flags: MW
LayerCount: 2
Fore
SplineSet
19 37 m 1
 48 113 l 1
 53 108 52 100 54 94 c 0
 56 88 75 62 95 62 c 0
 103 62 108 68 113 81 c 0
 120 100 130 127 135 149 c 0
 170 312 182 547 186 665 c 0
 187 700 178 739 178 739 c 1
 532 739 l 1
 532 0 l 1
 454 0 l 1
 454 665 l 1
 268 665 l 1
 259 537 246 261 211 114 c 0
 204 83 193 49 177 23 c 0
 162 -2 119 -8 95 -8 c 0
 66 -8 39 7 19 37 c 1
EndSplineSet
EndChar

StartChar: afii10037
Encoding: 1059 1059 386
Width: 613
VWidth: 1046
Flags: MW
LayerCount: 2
Fore
SplineSet
41 739 m 0
 155 739 l 0
 156 728 150 722 150 713 c 0
 150 710 151 707 152 704 c 0
 336 332 l 0
 429 595 l 0
 446 642 461 689 470 739 c 0
 559 739 l 0
 543 686 524 634 505 582 c 0
 336 136 l 0
 324 105 314 77 290 50 c 0
 254 9 210 -8 174 -8 c 0
 130 -8 88 7 57 37 c 0
 101 113 l 0
 108 108 107 100 110 94 c 0
 113 88 134 62 174 62 c 0
 191 62 206 73 229 97 c 0
 246 115 258 137 267 159 c 0
 294 227 l 0
 41 739 l 0
EndSplineSet
EndChar

StartChar: afii10038
Encoding: 1060 1060 387
Width: 613
VWidth: 1046
Flags: MW
LayerCount: 2
Fore
SplineSet
266 814 m 1
 350 814 l 5
 350 732 l 1
 479 708 603 578 603 399 c 0
 603 201 452 108 346 83 c 1
 346 0 l 1
 270 0 l 1
 270 82 l 1
 156 107 10 211 10 396 c 0
 10 579 128 709 266 732 c 1
 266 814 l 1
266 663 m 1
 194 640 90 542 90 398 c 0
 90 254 193 186 266 160 c 1
 266 663 l 1
350 662 m 1
 350 160 l 1
 416 186 525 257 525 400 c 0
 525 552 415 634 350 662 c 1
EndSplineSet
EndChar

StartChar: afii10040
Encoding: 1062 1062 389
Width: 613
VWidth: 1046
Flags: MW
LayerCount: 2
Fore
SplineSet
54 0 m 0
 54 738 l 0
 146 738 l 0
 147 736 147 734 147 732 c 0
 147 723 140 722 140 709 c 0
 140 70 l 0
 429 70 l 0
 429 738 l 0
 519 738 l 0
 520 737 520 735 520 733 c 0
 520 724 512 723 512 711 c 0
 512 71 l 0
 595 70 l 1
 595 -172 l 0
 512 -172 l 0
 512 0 l 1
 54 0 l 0
EndSplineSet
EndChar

StartChar: afii10041
Encoding: 1063 1063 390
Width: 613
VWidth: 1046
Flags: MW
LayerCount: 2
Fore
SplineSet
69 512 m 2
 69 738 l 1
 162 738 l 1
 163 736 164 734 164 732 c 0
 164 725 159 719 156 715 c 0
 152 709 151 705 151 700 c 2
 151 511 l 2
 151 474 152 438 169 402 c 0
 196 345 251 315 310 315 c 0
 368 315 423 345 450 401 c 0
 468 438 469 476 469 514 c 2
 469 738 l 1
 548 738 l 1
 548 0 l 1
 548 0 l 1
 469 0 l 1
 469 299 l 1
 425 262 367 244 308 244 c 0
 221 244 139 283 98 359 c 0
 71 410 69 460 69 512 c 2
EndSplineSet
EndChar

StartChar: afii10042
Encoding: 1064 1064 391
Width: 613
VWidth: 1046
Flags: MW
LayerCount: 2
Fore
SplineSet
44 0 m 1
 44 738 l 1
 136 738 l 1
 137 736 137 734 137 732 c 0
 137 723 130 722 130 709 c 2
 130 70 l 1
 271 70 l 1
 271 738 l 1
 361 738 l 1
 362 737 362 735 362 733 c 0
 362 724 353 723 353 711 c 2
 353 70 l 1
 490 70 l 1
 490 738 l 1
 579 738 l 1
 580 737 581 735 581 733 c 0
 581 724 572 723 572 711 c 2
 572 0 l 1
 44 0 l 1
EndSplineSet
EndChar

StartChar: afii10043
Encoding: 1065 1065 392
Width: 613
VWidth: 1046
Flags: MW
LayerCount: 2
Fore
SplineSet
18 0 m 1
 18 738 l 1
 110 738 l 1
 111 736 112 734 112 732 c 0
 112 723 104 722 104 709 c 2
 104 70 l 1
 245 70 l 1
 245 738 l 1
 335 738 l 1
 336 737 336 735 336 733 c 0
 336 724 328 723 328 711 c 2
 328 70 l 1
 464 70 l 1
 464 738 l 1
 554 738 l 1
 555 737 555 735 555 733 c 0
 555 724 547 723 547 711 c 2
 547 70 l 1
 595 70 l 1
 595 -172 l 1
 512 -172 l 1
 512 0 l 1
 18 0 l 1
EndSplineSet
EndChar

StartChar: afii10044
Encoding: 1066 1066 393
Width: 613
VWidth: 1046
Flags: MW
LayerCount: 2
Fore
SplineSet
47 663 m 1
 47 738 l 1
 241 738 l 1
 241 432 l 1
 265 432 l 2
 347 432 411 432 471 391 c 0
 531 350 566 290 566 204 c 0
 566 128 522 56 443 22 c 0
 392 0 341 0 291 0 c 2
 159 0 l 1
 159 663 l 1
 47 663 l 1
241 73 m 1
 305 73 l 2
 337 73 368 73 400 87 c 0
 451 110 479 160 479 213 c 0
 479 266 450 318 395 344 c 0
 358 361 321 363 284 363 c 2
 241 363 l 1
 241 73 l 1
EndSplineSet
EndChar

StartChar: afii10045
Encoding: 1067 1067 394
Width: 613
VWidth: 1046
Flags: MW
LayerCount: 2
Fore
SplineSet
57 0 m 0
 57 738 l 0
 145 738 l 0
 146 736 146 734 146 732 c 0
 146 723 139 722 139 709 c 0
 139 432 l 0
 154 432 l 0
 226 432 270 432 323 391 c 0
 376 350 406 290 406 204 c 0
 406 128 367 56 297 22 c 0
 252 0 208 0 164 0 c 0
 57 0 l 0
139 73 m 0
 176 73 l 0
 204 73 227 73 253 87 c 0
 295 110 318 160 318 213 c 0
 318 266 294 318 249 344 c 0
 219 361 191 363 158 363 c 0
 139 363 l 0
 139 73 l 0
470 0 m 0
 470 738 l 0
 557 738 l 0
 558 736 559 734 559 732 c 0
 559 723 551 722 551 709 c 0
 551 0 l 1
 470 0 l 0
EndSplineSet
EndChar

StartChar: afii10046
Encoding: 1068 1068 395
Width: 613
VWidth: 1046
Flags: MW
LayerCount: 2
Fore
SplineSet
67 0 m 0
 67 738 l 0
 155 738 l 0
 156 736 157 734 157 732 c 0
 157 723 149 722 149 709 c 0
 149 432 l 0
 265 432 l 0
 347 432 397 432 457 391 c 0
 517 350 551 290 551 204 c 0
 551 128 507 56 428 22 c 0
 377 0 326 0 276 0 c 0
 67 0 l 0
149 73 m 0
 290 73 l 0
 322 73 353 73 385 87 c 0
 436 110 464 160 464 213 c 0
 464 266 435 318 380 344 c 0
 343 361 307 363 270 363 c 0
 149 363 l 0
 149 73 l 0
EndSplineSet
EndChar

StartChar: afii10047
Encoding: 1069 1069 396
Width: 613
VWidth: 1046
Flags: MW
LayerCount: 2
Fore
SplineSet
58 134 m 1
 137 173 l 1
 143 169 142 162 142 161 c 0
 142 158 142 155 142 152 c 0
 142 146 144 144 146 140 c 0
 176 89 229 54 287 54 c 0
 389 54 480 159 484 347 c 1
 194 347 l 1
 194 423 l 1
 481 423 l 1
 463 583 376 672 280 672 c 0
 222 672 164 638 130 582 c 1
 68 622 l 1
 114 698 197 744 285 744 c 0
 407 744 565 652 565 367 c 0
 565 72 399 -12 284 -12 c 0
 186 -12 98 45 58 134 c 1
EndSplineSet
EndChar

StartChar: afii10048
Encoding: 1070 1070 397
Width: 613
VWidth: 1046
Flags: MW
LayerCount: 2
Fore
SplineSet
30 0 m 1
 30 738 l 1
 118 738 l 1
 119 736 119 734 119 732 c 0
 119 723 112 722 112 709 c 2
 112 423 l 1
 196 423 l 1
 209 671 316 746 394 746 c 0
 455 746 518 702 554 607 c 0
 584 528 588 436 588 367 c 0
 588 302 585 210 555 131 c 0
 518 33 455 -11 395 -11 c 0
 312 -11 200 75 194 347 c 1
 112 347 l 1
 112 0 l 1
 30 0 l 1
276 381 m 0
 276 146 342 69 395 69 c 0
 427 69 463 97 485 169 c 0
 504 233 506 308 506 356 c 0
 506 418 504 490 488 552 c 0
 466 638 426 668 392 668 c 0
 342 668 276 601 276 381 c 0
EndSplineSet
EndChar

StartChar: afii10049
Encoding: 1071 1071 398
Width: 613
VWidth: 1046
Flags: MW
LayerCount: 2
Fore
SplineSet
53 0 m 0
 224 329 l 0
 135 353 73 437 73 535 c 0
 73 609 110 679 178 713 c 0
 225 737 271 738 319 738 c 0
 536 738 l 0
 536 0 l 0
 453 0 l 0
 453 326 l 0
 310 326 l 0
 146 0 l 0
 53 0 l 0
158 526 m 0
 158 479 181 436 224 414 c 0
 252 400 281 398 310 398 c 0
 453 398 l 0
 453 660 l 0
 319 660 l 0
 288 660 258 659 228 644 c 0
 182 621 158 574 158 526 c 0
EndSplineSet
EndChar

StartChar: afii10066
Encoding: 1073 1073 400
Width: 613
VWidth: 1046
Flags: MW
LayerCount: 2
Fore
SplineSet
148 277 m 0
 148 153 210 59 312 59 c 0
 391 59 469 128 469 264 c 0
 469 413 386 480 308 480 c 0
 225 480 148 410 148 277 c 0
59 336 m 0
 59 406 65 493 91 563 c 0
 136 692 232 746 320 746 c 0
 360 746 414 769 417 775 c 0
 420 781 419 789 426 794 c 1
 470 717 l 1
 439 687 364 672 320 672 c 0
 276 672 188 651 159 496 c 1
 202 532 257 553 314 553 c 0
 437 553 555 455 555 268 c 0
 555 89 440 -14 312 -14 c 0
 226 -14 157 21 114 86 c 0
 67 158 59 249 59 336 c 0
EndSplineSet
EndChar

StartChar: afii10067
Encoding: 1074 1074 401
Width: 613
VWidth: 1046
Flags: MW
LayerCount: 2
Fore
SplineSet
91 0 m 0
 91 541 l 0
 285 541 l 0
 330 541 368 541 414 526 c 0
 483 504 508 458 508 409 c 0
 508 357 475 310 415 290 c 1
 509 270 536 213 536 150 c 0
 536 94 506 41 427 16 c 0
 376 0 334 0 284 0 c 0
 91 0 l 0
173 72 m 0
 298 72 l 0
 330 72 353 72 385 81 c 0
 436 95 450 125 450 156 c 0
 450 188 435 239 380 250 c 0
 343 258 314 258 277 258 c 0
 173 258 l 0
 173 72 l 0
173 328 m 0
 272 328 l 0
 305 328 332 328 366 335 c 0
 412 345 424 380 424 404 c 0
 424 428 412 452 363 463 c 0
 330 471 305 471 273 471 c 0
 173 471 l 0
 173 328 l 0
EndSplineSet
EndChar

StartChar: afii10068
Encoding: 1075 1075 402
Width: 613
VWidth: 1046
Flags: MW
LayerCount: 2
Fore
SplineSet
103 0 m 0
 103 543 l 0
 507 541 l 0
 507 467 l 0
 186 468 l 0
 186 0 l 0
 103 0 l 0
EndSplineSet
EndChar

StartChar: afii10069
Encoding: 1076 1076 403
Width: 613
VWidth: 1046
Flags: MW
LayerCount: 2
Fore
SplineSet
57 69 m 1
 108 69 l 1
 112 70 114 74 117 81 c 0
 124 100 134 127 139 149 c 0
 159 244 172 364 180 470 c 0
 183 513 174 540 174 540 c 1
 531 540 l 1
 531 69 l 1
 593 69 l 1
 593 -172 l 1
 509 -172 l 1
 509 -1 l 1
 143 -1 l 1
 143 -171 l 1
 57 -171 l 1
 57 69 l 1
202 69 m 1
 448 69 l 1
 448 470 l 1
 260 470 l 1
 251 346 236 204 215 114 c 0
 212 99 207 84 202 69 c 1
EndSplineSet
EndChar

StartChar: afii10072
Encoding: 1078 1078 405
Width: 613
VWidth: 1046
Flags: MW
LayerCount: 2
Fore
SplineSet
21 0 m 1
 208 297 l 1
 47 541 l 1
 78 541 l 2
 99 541 120 543 141 548 c 1
 263 343 l 1
 263 541 l 1
 350 541 l 1
 351 539 352 538 352 536 c 0
 352 527 344 526 344 513 c 2
 344 343 l 1
 462 548 l 1
 483 543 504 541 525 541 c 2
 556 541 l 1
 401 295 l 1
 590 0 l 1
 532 0 485 -4 485 -4 c 1
 352 227 l 1
 350 224 346 220 344 217 c 1
 344 0 l 1
 263 0 l 1
 263 224 l 1
 256 234 l 1
 127 -4 l 1
 127 -4 79 0 21 0 c 1
EndSplineSet
EndChar

StartChar: afii10073
Encoding: 1079 1079 406
Width: 613
VWidth: 1046
Flags: MW
LayerCount: 2
Fore
SplineSet
93 91 m 0
 130 146 l 0
 167 117 203 76 293 76 c 0
 363 77 442 111 442 155 c 0
 442 182 438 241 293 241 c 0
 273 241 274 240 255 238 c 0
 255 321 l 0
 268 320 281 320 293 320 c 0
 417 320 438 352 438 387 c 0
 438 433 390 466 321 466 c 0
 257 466 193 454 147 408 c 0
 107 462 l 0
 160 518 242 545 320 545 c 0
 436 545 525 467 525 387 c 0
 525 335 485 299 433 284 c 0
 499 273 528 216 528 157 c 0
 528 65 416 0 292 -0 c 0
 207 0 149 33 93 91 c 0
EndSplineSet
EndChar

StartChar: afii10074
Encoding: 1080 1080 407
Width: 613
VWidth: 1046
Flags: MW
LayerCount: 2
Fore
SplineSet
85 0 m 0
 85 540 l 0
 171 540 l 1
 171 150 l 1
 443 540 l 0
 525 540 l 1
 525 0 l 0
 444 0 l 0
 445 425 l 1
 151 0 l 0
 85 0 l 0
EndSplineSet
EndChar

StartChar: afii10077
Encoding: 1083 1083 410
Width: 613
VWidth: 1046
Flags: MW
LayerCount: 2
Fore
SplineSet
19 37 m 1
 48 113 l 1
 53 108 52 100 54 94 c 0
 56 88 75 62 95 62 c 0
 103 62 108 68 113 81 c 0
 120 100 130 127 135 149 c 0
 155 244 168 364 176 470 c 0
 179 513 170 540 170 540 c 0
 527 540 l 1
 527 -1 l 0
 444 -1 l 0
 444 470 l 0
 256 470 l 0
 247 346 232 204 211 114 c 0
 204 83 193 49 177 23 c 0
 162 -2 119 -8 95 -8 c 0
 66 -8 39 7 19 37 c 1
EndSplineSet
EndChar

StartChar: afii10078
Encoding: 1084 1084 411
Width: 613
VWidth: 1046
Flags: MW
LayerCount: 2
Fore
SplineSet
58 -1 m 0
 58 541 l 0
 124 541 l 0
 306 287 l 0
 492 542 l 0
 555 542 l 0
 555 -1 l 0
 476 -1 l 0
 476 403 l 0
 317 174 l 0
 285 174 l 0
 136 399 l 0
 136 -1 l 0
 58 -1 l 0
EndSplineSet
EndChar

StartChar: afii10079
Encoding: 1085 1085 412
Width: 613
VWidth: 1046
Flags: MW
LayerCount: 2
Fore
SplineSet
84 0 m 0
 84 540 l 0
 170 540 l 1
 170 315 l 0
 445 315 l 0
 445 540 l 0
 527 540 l 1
 527 -1 l 0
 444 -1 l 0
 444 244 l 0
 170 244 l 0
 170 0 l 0
 84 0 l 0
EndSplineSet
EndChar

StartChar: afii10081
Encoding: 1087 1087 414
Width: 613
VWidth: 1046
Flags: MW
LayerCount: 2
Fore
SplineSet
84 0 m 0
 84 540 l 0
 527 540 l 0
 527 -1 l 0
 444 -1 l 0
 444 470 l 0
 170 470 l 0
 170 0 l 0
 84 0 l 0
EndSplineSet
EndChar

StartChar: afii10084
Encoding: 1090 1090 417
Width: 613
VWidth: 1046
Flags: MW
LayerCount: 2
Fore
SplineSet
69 467 m 0
 69 541 l 0
 526 541 l 0
 526 467 l 0
 340 467 l 0
 340 -1 l 0
 256 -1 l 0
 256 467 l 0
 69 467 l 0
EndSplineSet
EndChar

StartChar: afii10086
Encoding: 1092 1092 419
Width: 613
VWidth: 1046
Flags: MW
LayerCount: 2
Fore
SplineSet
267 687 m 1
 352 699 l 1
 352 549 l 1
 458 530 555 434 555 268 c 0
 555 110 461 10 352 -10 c 1
 352 -196 l 1
 267 -196 l 1
 267 -11 l 1
 148 9 58 119 58 267 c 0
 58 416 148 527 267 549 c 1
 267 687 l 1
267 61 m 1
 267 479 l 1
 200 460 143 386 143 274 c 0
 143 163 199 82 267 61 c 1
352 476 m 1
 352 62 l 1
 414 82 473 154 473 265 c 0
 473 384 413 454 352 476 c 1
EndSplineSet
EndChar

StartChar: afii10088
Encoding: 1094 1094 421
Width: 613
VWidth: 1046
Flags: MW
LayerCount: 2
Fore
SplineSet
82 0 m 0
 82 541 l 0
 168 541 l 1
 168 70 l 0
 440 70 l 0
 440 541 l 0
 523 541 l 1
 523 70 l 0
 590 70 l 1
 590 -172 l 0
 507 -172 l 0
 507 0 l 1
 82 0 l 0
EndSplineSet
EndChar

StartChar: afii10089
Encoding: 1095 1095 422
Width: 613
VWidth: 1046
Flags: MW
LayerCount: 2
Fore
SplineSet
84 419 m 0
 85 540 l 0
 171 540 l 0
 171 419 l 0
 171 382 171 340 190 302 c 0
 211 259 250 236 293 236 c 0
 345 236 393 270 418 315 c 0
 436 349 439 381 439 423 c 0
 439 540 l 0
 525 540 l 0
 525 540 525 211 525 0 c 25
 439 0 l 25
 439 102 440 262 440 262 c 0
 405 203 341 166 274 166 c 0
 204 166 137 205 105 277 c 0
 84 324 84 372 84 419 c 0
EndSplineSet
EndChar

StartChar: afii10090
Encoding: 1096 1096 423
Width: 613
VWidth: 1046
Flags: MW
LayerCount: 2
Fore
SplineSet
44 0 m 1
 44 541 l 1
 130 541 l 1
 130 70 l 1
 271 70 l 1
 271 541 l 1
 353 541 l 1
 353 70 l 1
 490 70 l 1
 490 541 l 1
 572 541 l 1
 572 0 l 1
 44 0 l 1
EndSplineSet
EndChar

StartChar: afii10091
Encoding: 1097 1097 424
Width: 613
VWidth: 1046
Flags: MW
LayerCount: 2
Fore
SplineSet
18 0 m 1
 18 541 l 1
 104 541 l 1
 104 70 l 1
 245 70 l 1
 245 541 l 1
 328 541 l 1
 328 70 l 1
 464 70 l 1
 464 541 l 1
 547 541 l 1
 547 70 l 1
 595 70 l 1
 595 -172 l 5
 512 -172 l 5
 512 0 l 1
 18 0 l 1
EndSplineSet
EndChar

StartChar: afii10092
Encoding: 1098 1098 425
Width: 613
VWidth: 1046
Flags: MW
LayerCount: 2
Fore
SplineSet
47 467 m 1
 47 541 l 1
 241 541 l 1
 241 328 l 1
 255 328 l 0
 369 328 426 320 461 294 c 0
 511 257 541 213 541 150 c 0
 541 94 487 35 427 16 c 0
 399 7 311 0 267 0 c 0
 159 0 l 1
 159 467 l 1
 47 467 l 1
241 72 m 0
 281 72 l 0
 313 72 352 72 381 81 c 0
 428 95 451 125 451 156 c 0
 451 188 427 239 377 250 c 0
 343 258 298 258 261 258 c 0
 241 258 l 0
 241 72 l 0
EndSplineSet
EndChar

StartChar: afii10093
Encoding: 1099 1099 426
Width: 613
VWidth: 1046
Flags: MW
LayerCount: 2
Fore
SplineSet
58 0 m 0
 58 541 l 0
 146 541 l 0
 147 539 147 538 147 536 c 0
 147 527 140 526 140 513 c 0
 140 328 l 0
 154 328 l 0
 268 328 301 320 336 294 c 0
 386 257 407 213 407 150 c 0
 407 94 362 35 302 16 c 0
 274 7 210 0 166 0 c 0
 58 0 l 0
140 72 m 0
 180 72 l 0
 212 72 227 72 256 81 c 0
 303 95 316 125 316 156 c 0
 316 188 302 239 252 250 c 0
 218 258 196 258 159 258 c 0
 140 258 l 0
 140 72 l 0
470 0 m 0
 470 541 l 0
 557 541 l 0
 558 539 559 538 559 536 c 0
 559 527 551 526 551 513 c 0
 551 0 l 1
 470 0 l 0
EndSplineSet
EndChar

StartChar: afii10094
Encoding: 1100 1100 427
Width: 613
VWidth: 1046
Flags: MW
LayerCount: 2
Fore
SplineSet
107 0 m 0
 107 541 l 0
 195 541 l 0
 196 539 196 538 196 536 c 0
 196 527 189 526 189 513 c 0
 189 328 l 0
 250 328 l 0
 364 328 404 320 440 294 c 0
 492 257 514 213 514 150 c 0
 514 94 467 35 405 16 c 0
 376 7 305 0 261 0 c 0
 107 0 l 0
189 72 m 0
 275 72 l 0
 307 72 330 72 362 81 c 0
 413 95 427 125 427 156 c 0
 427 188 412 239 357 250 c 0
 320 258 292 258 255 258 c 0
 189 258 l 0
 189 72 l 0
EndSplineSet
EndChar

StartChar: afii10095
Encoding: 1101 1101 428
Width: 613
VWidth: 1046
Flags: MW
LayerCount: 2
Fore
SplineSet
77 87 m 1
 137 157 l 1
 146 150 139 139 144 130 c 0
 147 124 192 59 284 59 c 0
 383 59 463 135 463 258 c 1
 196 258 l 1
 196 324 l 1
 455 324 l 1
 433 415 363 474 277 474 c 0
 223 474 171 450 134 409 c 1
 85 466 l 1
 137 522 208 552 284 552 c 0
 437 552 551 431 551 268 c 0
 551 106 438 -13 279 -13 c 0
 192 -13 120 25 77 87 c 1
EndSplineSet
EndChar

StartChar: afii10096
Encoding: 1102 1102 429
Width: 613
VWidth: 1046
Flags: MW
LayerCount: 2
Fore
SplineSet
62 0 m 1
 62 541 l 1
 150 541 l 1
 151 539 151 538 151 536 c 0
 151 527 144 526 144 513 c 2
 144 324 l 1
 229 324 l 1
 245 460 315 553 395 553 c 0
 476 553 555 455 555 268 c 0
 555 89 479 -14 394 -14 c 0
 305 -14 228 98 226 258 c 1
 144 258 l 1
 144 0 l 1
 62 0 l 1
392 480 m 0
 352 480 315 407 315 274 c 0
 315 141 352 59 393 59 c 0
 431 59 469 128 469 264 c 0
 469 413 429 480 392 480 c 0
EndSplineSet
EndChar

StartChar: afii10097
Encoding: 1103 1103 430
Width: 613
VWidth: 1046
Flags: MW
LayerCount: 2
Fore
SplineSet
86 0 m 1
 238 219 l 1
 212 224 196 233 177 247 c 0
 128 284 107 329 107 392 c 0
 107 448 151 506 210 525 c 0
 238 534 285 541 320 541 c 2
 514 541 l 1
 514 0 l 1
 432 0 l 1
 432 213 l 1
 329 213 l 1
 326 213 l 1
 179 0 l 1
 86 0 l 1
194 385 m 0
 194 353 203 302 255 291 c 0
 290 283 296 283 325 283 c 2
 432 283 l 1
 432 469 l 1
 309 469 l 2
 284 469 280 469 250 460 c 0
 202 446 194 416 194 385 c 0
EndSplineSet
EndChar

StartChar: afii10051
Encoding: 1026 1026 433
Width: 613
VWidth: 1046
Flags: W
LayerCount: 2
Fore
SplineSet
15 664 m 1
 15 739 l 1
 388 739 l 1
 388 664 l 1
 211 664 l 1
 211 411 l 1
 247 469 323 502 383 502 c 0
 443 502 528 481 555 421 c 0
 574 378 575 322 575 282 c 2
 575 54 l 2
 575 1 573 -55 544 -108 c 0
 509 -171 432 -206 362 -206 c 0
 298 -206 235 -177 191 -125 c 0
 246 -57 l 0
 253 -63 248 -72 253 -79 c 0
 256 -82 302 -133 364 -133 c 0
 399 -133 445 -116 464 -86 c 0
 490 -48 491 0 491 44 c 2
 491 280 l 2
 491 316 490 360 464 393 c 0
 447 415 391 425 353 425 c 0
 315 425 253 399 234 373 c 0
 220 354 214 317 211 297 c 1
 211 -1 l 1
 127 -1 l 1
 127 664 l 1
 15 664 l 1
EndSplineSet
EndChar

StartChar: afii10053
Encoding: 1028 1028 435
Width: 613
VWidth: 1046
Flags: W
LayerCount: 2
Fore
SplineSet
58 365 m 0
 58 660 224 744 339 744 c 0
 437 744 525 687 565 598 c 1
 486 559 l 1
 480 563 481 569 481 570 c 0
 481 573 481 576 481 579 c 0
 481 585 479 588 477 592 c 0
 447 643 394 678 336 678 c 0
 241 678 156 587 141 423 c 1
 429 423 l 1
 429 347 l 1
 139 347 l 1
 146 163 239 59 343 59 c 0
 401 59 459 93 493 149 c 1
 555 109 l 1
 509 33 426 -12 338 -12 c 0
 216 -12 58 80 58 365 c 0
EndSplineSet
EndChar

StartChar: afii10058
Encoding: 1033 1033 440
Width: 613
VWidth: 1046
Flags: W
LayerCount: 2
Fore
SplineSet
19 37 m 1
 48 113 l 1
 53 108 52 100 54 94 c 0
 56 88 66 62 80 62 c 0
 88 62 91 127 93 149 c 0
 99 231 105 541 107 665 c 0
 108 700 99 739 99 739 c 1
 383 739 l 1
 384 737 384 735 384 733 c 0
 384 724 377 723 377 710 c 2
 377 433 l 1
 389 433 l 2
 447 433 483 433 526 392 c 0
 569 351 593 291 593 205 c 0
 593 129 562 57 505 23 c 0
 469 1 433 1 397 1 c 2
 295 1 l 1
 295 665 l 1
 189 665 l 1
 185 526 178 203 169 114 c 0
 159 13 125 -8 95 -8 c 0
 66 -8 39 7 19 37 c 1
377 74 m 1
 402 74 l 2
 421 74 441 74 460 88 c 0
 491 111 507 161 507 214 c 0
 507 267 490 320 457 346 c 0
 435 363 412 364 390 364 c 2
 377 364 l 1
 377 74 l 1
EndSplineSet
EndChar

StartChar: afii10059
Encoding: 1034 1034 441
Width: 613
VWidth: 1046
Flags: W
LayerCount: 2
Fore
SplineSet
32 0 m 1
 32 738 l 1
 124 738 l 1
 125 736 125 734 125 732 c 0
 125 723 117 722 117 709 c 2
 117 422 l 1
 282 422 l 1
 282 739 l 1
 370 739 l 1
 371 737 371 735 371 733 c 0
 371 724 364 723 364 710 c 2
 364 433 l 1
 377 433 l 2
 438 433 476 433 521 392 c 0
 566 351 591 291 591 205 c 0
 591 129 559 57 499 23 c 0
 461 1 423 1 385 1 c 2
 282 1 l 1
 282 351 l 1
 117 351 l 1
 117 0 l 1
 32 0 l 1
364 74 m 1
 392 74 l 2
 413 74 433 74 454 88 c 0
 487 111 505 161 505 214 c 0
 505 267 487 320 451 346 c 0
 427 363 402 364 378 364 c 2
 364 364 l 1
 364 74 l 1
EndSplineSet
EndChar

StartChar: afii10060
Encoding: 1035 1035 442
Width: 613
VWidth: 1046
Flags: W
LayerCount: 2
Fore
SplineSet
31 664 m 1
 31 739 l 1
 404 739 l 1
 404 664 l 1
 227 664 l 1
 227 411 l 1
 263 469 339 502 399 502 c 0
 459 502 531 481 558 421 c 0
 577 378 577 322 577 282 c 2
 577 -1 l 1
 493 -1 l 1
 493 280 l 2
 493 316 493 360 467 393 c 0
 450 415 407 425 369 425 c 0
 331 425 268 399 249 373 c 0
 235 354 230 317 227 297 c 1
 227 -1 l 1
 143 -1 l 1
 143 664 l 1
 31 664 l 1
EndSplineSet
EndChar

StartChar: afii10145
Encoding: 1039 1039 445
Width: 613
VWidth: 1046
Flags: W
LayerCount: 2
Fore
SplineSet
65 0 m 1
 65 738 l 1
 156 738 l 1
 157 736 158 734 158 732 c 0
 158 723 150 722 150 709 c 2
 150 70 l 1
 469 70 l 1
 469 738 l 1
 559 738 l 1
 560 737 560 735 560 733 c 0
 560 724 552 723 552 711 c 2
 552 0 l 1
 353 0 l 1
 353 -172 l 1
 271 -172 l 1
 271 0 l 1
 65 0 l 1
EndSplineSet
EndChar

StartChar: afii10099
Encoding: 1106 1106 446
Width: 613
VWidth: 1046
Flags: W
LayerCount: 2
Fore
SplineSet
46 644 m 1
 46 707 l 1
 120 707 l 1
 120 787 l 1
 218 787 l 1
 218 786 219 784 219 783 c 0
 219 777 214 773 211 770 c 0
 207 766 207 763 207 759 c 2
 207 707 l 1
 340 707 l 1
 340 644 l 1
 207 644 l 1
 207 445 l 1
 247 505 314 554 387 554 c 0
 449 554 504 519 531 458 c 0
 550 415 550 370 550 328 c 2
 550 38 l 2
 550 -9 548 -53 525 -98 c 0
 488 -170 413 -207 336 -207 c 0
 269 -207 210 -179 171 -131 c 1
 226 -57 l 1
 233 -63 231 -71 236 -79 c 0
 240 -86 276 -133 341 -133 c 0
 387 -133 430 -109 450 -65 c 0
 463 -36 466 -8 466 21 c 2
 466 326 l 2
 466 364 466 411 437 446 c 0
 418 469 391 480 364 480 c 0
 307 480 255 431 234 404 c 0
 212 374 207 348 207 312 c 2
 207 0 l 1
 120 0 l 1
 120 644 l 1
 46 644 l 1
EndSplineSet
EndChar

StartChar: afii10101
Encoding: 1108 1108 448
Width: 613
VWidth: 1046
Flags: W
LayerCount: 2
Fore
SplineSet
77 270 m 0
 77 432 189 552 348 552 c 0
 435 552 508 514 551 452 c 1
 490 381 l 1
 481 388 488 399 483 408 c 0
 480 414 435 479 343 479 c 0
 256 479 185 421 168 324 c 1
 431 324 l 1
 431 258 l 1
 165 258 l 1
 173 143 250 64 350 64 c 0
 404 64 456 89 493 130 c 1
 543 73 l 1
 491 17 419 -13 343 -13 c 0
 190 -13 77 107 77 270 c 0
EndSplineSet
EndChar

StartChar: afii10106
Encoding: 1113 1113 453
Width: 613
VWidth: 1046
Flags: W
LayerCount: 2
Fore
SplineSet
19 37 m 1
 48 113 l 1
 53 108 52 100 54 94 c 0
 56 88 66 62 80 62 c 0
 88 62 91 127 93 149 c 0
 97 200 100 338 104 466 c 0
 105 501 96 540 96 540 c 1
 383 540 l 1
 384 538 384 537 384 535 c 0
 384 526 377 525 377 512 c 2
 377 327 l 1
 389 327 l 2
 480 327 506 319 535 293 c 0
 577 256 594 212 594 149 c 0
 594 93 556 34 506 15 c 0
 483 6 434 -1 398 -1 c 2
 377 -1 l 1
 293 -1 l 1
 294 466 l 1
 184 466 l 1
 180 326 175 171 169 114 c 0
 159 13 125 -8 95 -8 c 0
 66 -8 39 7 19 37 c 1
377 71 m 1
 392 71 l 2
 416 71 441 71 465 80 c 0
 503 94 514 124 514 155 c 0
 514 187 503 238 462 249 c 0
 434 257 420 257 392 257 c 2
 377 257 l 1
 377 71 l 1
EndSplineSet
EndChar

StartChar: afii10107
Encoding: 1114 1114 454
Width: 613
VWidth: 1046
Flags: W
LayerCount: 2
Fore
SplineSet
31 0 m 1
 31 540 l 1
 117 540 l 1
 117 315 l 1
 287 315 l 1
 287 540 l 1
 370 540 l 1
 370 540 l 1
 376 540 l 1
 377 538 377 537 377 535 c 0
 377 526 370 525 370 512 c 2
 370 327 l 1
 382 327 l 2
 473 327 506 319 535 293 c 0
 577 256 594 212 594 149 c 0
 594 93 556 34 506 15 c 0
 483 6 427 -1 391 -1 c 2
 370 -1 l 1
 286 -1 l 1
 286 244 l 1
 117 244 l 1
 117 0 l 1
 31 0 l 1
370 71 m 1
 400 71 l 2
 424 71 441 71 465 80 c 0
 503 94 514 124 514 155 c 0
 514 187 503 238 462 249 c 0
 434 257 413 257 385 257 c 2
 370 257 l 1
 370 71 l 1
EndSplineSet
EndChar

StartChar: afii10108
Encoding: 1115 1115 455
Width: 613
VWidth: 1046
Flags: W
LayerCount: 2
Fore
SplineSet
46 644 m 1
 46 707 l 1
 120 707 l 1
 120 787 l 1
 218 787 l 1
 218 786 219 784 219 783 c 0
 219 777 214 773 211 770 c 0
 207 766 207 763 207 759 c 2
 207 707 l 1
 340 707 l 1
 340 644 l 1
 207 644 l 1
 207 445 l 1
 247 505 314 554 387 554 c 0
 449 554 504 519 531 458 c 0
 550 415 550 370 550 328 c 2
 550 0 l 1
 466 0 l 1
 466 326 l 2
 466 364 466 411 437 446 c 0
 418 469 391 480 364 480 c 0
 307 480 255 431 234 404 c 0
 212 374 207 348 207 312 c 2
 207 0 l 1
 120 0 l 1
 120 644 l 1
 46 644 l 1
EndSplineSet
EndChar

StartChar: afii10193
Encoding: 1119 1119 458
Width: 613
VWidth: 1046
Flags: W
LayerCount: 2
Fore
SplineSet
75 0 m 1
 75 541 l 1
 161 541 l 1
 161 70 l 1
 459 70 l 1
 459 541 l 1
 542 541 l 1
 542 0 l 1
 353 -0 l 1
 353 -172 l 1
 271 -172 l 1
 271 -0 l 1
 75 0 l 1
EndSplineSet
EndChar

StartChar: afii10050
Encoding: 1168 1168 459
Width: 613
VWidth: 1046
Flags: W
LayerCount: 2
Fore
SplineSet
80 0 m 1
 80 739 l 1
 449 739 l 1
 449 937 l 1
 532 937 l 1
 532 665 l 1
 158 665 l 1
 158 423 l 2
 158 347 l 1
 158 74 l 2
 158 45 159 29 159 0 c 1
 80 0 l 1
EndSplineSet
EndChar

StartChar: afii10098
Encoding: 1169 1169 460
Width: 613
VWidth: 1046
Flags: W
LayerCount: 2
Fore
SplineSet
103 0 m 1
 103 543 l 1
 423 542 l 1
 423 689 l 1
 507 689 l 1
 507 467 l 1
 186 468 l 1
 186 0 l 1
 103 0 l 1
EndSplineSet
EndChar

StartChar: afii61352
Encoding: 8470 8470 461
Width: 613
VWidth: 1046
Flags: W
LayerCount: 2
Fore
SplineSet
483 557 m 0
 528 557 574 488 574 346 c 0
 574 193 525 124 479 124 c 0
 429 124 385 203 385 332 c 0
 385 468 431 557 483 557 c 0
441 337 m 0
 441 238 461 192 480 192 c 0
 498 192 518 235 518 337 c 0
 518 438 500 490 480 490 c 0
 461 490 441 439 441 337 c 0
373 64 m 0
 592 64 l 0
 592 0 l 0
 373 0 l 0
 373 64 l 0
31 0 m 0
 31 738 l 0
 111 738 l 0
 265 252 l 0
 265 739 l 0
 353 739 l 0
 354 732 351 727 350 724 c 0
 347 719 345 715 345 707 c 0
 345 -1 l 0
 279 -1 l 0
 110 519 l 0
 110 0 l 0
 31 0 l 0
EndSplineSet
EndChar

StartChar: Hbar
Encoding: 294 294 462
Width: 613
VWidth: 1046
Flags: W
LayerCount: 2
Fore
SplineSet
75 738 m 1
 167 738 l 1
 168 736 168 734 168 732 c 0
 168 723 160 722 160 709 c 2
 160 639 l 1
 450 639 l 1
 450 738 l 1
 539 738 l 1
 540 737 541 735 541 733 c 0
 541 724 532 723 532 711 c 2
 532 639 l 1
 582 639 l 1
 582 575 l 1
 532 575 l 1
 532 -1 l 1
 449 -1 l 1
 449 351 l 1
 160 351 l 1
 160 0 l 1
 75 0 l 1
 75 575 l 1
 31 575 l 1
 31 639 l 1
 75 639 l 1
 75 738 l 1
450 575 m 1
 160 575 l 1
 160 422 l 1
 450 422 l 1
 450 575 l 1
EndSplineSet
EndChar

StartChar: Tbar
Encoding: 358 358 485
Width: 613
VWidth: 1046
Flags: W
LayerCount: 2
Fore
SplineSet
47 739 m 1
 558 739 l 1
 558 664 l 1
 340 664 l 1
 340 429 l 1
 508 429 l 1
 508 363 l 1
 340 363 l 1
 340 -1 l 1
 256 -1 l 1
 256 363 l 1
 101 363 l 1
 101 429 l 1
 256 429 l 1
 256 664 l 1
 47 664 l 1
 47 739 l 1
EndSplineSet
EndChar

StartChar: tbar
Encoding: 359 359 491
Width: 613
VWidth: 1046
Flags: W
LayerCount: 2
Fore
SplineSet
233 686 m 1
 326 701 l 1
 327 699 327 697 327 695 c 0
 327 686 321 679 319 669 c 0
 314 638 305 541 305 541 c 1
 482 541 l 1
 482 471 l 1
 304 471 l 1
 299 423 296 375 295 327 c 1
 457 327 l 1
 457 261 l 1
 294 261 l 1
 294 260 l 2
 294 181 297 160 297 155 c 0
 306 91 348 68 388 68 c 0
 422 68 464 83 510 117 c 1
 536 50 l 1
 490 16 428 -10 364 -10 c 0
 309 -10 266 11 240 47 c 0
 208 92 208 146 208 194 c 0
 208 216 209 239 209 261 c 1
 99 261 l 1
 99 327 l 1
 211 327 l 1
 213 375 216 423 220 471 c 1
 93 471 l 1
 94 540 l 1
 223 540 l 1
 233 686 l 1
EndSplineSet
EndChar

StartChar: Uogonek
Encoding: 370 370 499
Width: 613
VWidth: 1046
Flags: W
LayerCount: 2
Fore
SplineSet
69 738 m 1
 162 738 l 1
 163 736 164 734 164 732 c 0
 164 725 159 719 156 715 c 0
 152 709 151 705 151 700 c 2
 151 253 l 2
 151 216 152 181 169 145 c 0
 196 88 251 57 310 57 c 0
 368 57 423 88 450 144 c 0
 468 182 469 218 469 256 c 2
 469 738 l 1
 548 738 l 1
 548 258 l 2
 548 204 546 153 518 102 c 0
 507 81 494 63 477 48 c 0
 437 12 353 -68 343 -79 c 0
 335 -88 323 -102 323 -120 c 0
 323 -138 336 -154 358 -154 c 0
 365 -154 375 -153 387 -148 c 0
 405 -141 417 -133 425 -127 c 1
 425 -181 l 1
 402 -201 372 -208 343 -208 c 0
 282 -208 250 -175 250 -136 c 0
 250 -101 277 -59 329 -13 c 1
 322 -14 315 -13 308 -13 c 0
 221 -13 139 25 98 101 c 0
 71 152 69 202 69 254 c 2
 69 738 l 1
EndSplineSet
EndChar

StartChar: IJ
Encoding: 306 306 515
Width: 613
VWidth: 1046
Flags: W
LayerCount: 2
Fore
SplineSet
31 -1 m 1
 31 68 l 1
 110 68 l 1
 110 668 l 1
 39 668 l 1
 39 738 l 1
 598 738 l 1
 598 668 l 1
 525 668 l 1
 525 62 l 2
 525 9 526 -47 497 -100 c 0
 462 -163 398 -198 328 -198 c 0
 264 -198 200 -168 156 -116 c 1
 211 -49 l 1
 218 -55 214 -63 219 -70 c 0
 222 -73 268 -125 330 -125 c 0
 365 -125 398 -108 417 -78 c 0
 443 -40 443 8 443 52 c 2
 443 61 l 1
 443 668 l 1
 193 668 l 1
 193 67 l 1
 294 67 l 1
 294 -1 l 1
 31 -1 l 1
EndSplineSet
EndChar

StartChar: ij
Encoding: 307 307 516
Width: 613
VWidth: 1046
Flags: W
LayerCount: 2
Fore
SplineSet
31 0 m 1
 31 68 l 1
 159 68 l 1
 159 472 l 1
 38 472 l 1
 38 541 l 1
 532 541 l 1
 532 38 l 2
 532 -9 531 -53 508 -98 c 0
 471 -170 395 -207 318 -207 c 0
 251 -207 192 -179 153 -131 c 1
 208 -57 l 1
 215 -63 214 -71 219 -79 c 0
 223 -86 259 -133 324 -133 c 0
 370 -133 413 -109 433 -65 c 0
 446 -36 446 -8 446 21 c 2
 446 471 l 1
 245 471 l 1
 245 68 l 1
 347 68 l 1
 347 0 l 1
 31 0 l 1
143 716 m 0
 143 749 170 776 204 776 c 0
 238 776 266 749 266 716 c 0
 266 683 238 655 204 655 c 0
 170 655 143 683 143 716 c 0
429 716 m 0
 429 749 456 776 490 776 c 0
 524 776 552 749 552 716 c 0
 552 683 524 655 490 655 c 0
 456 655 429 683 429 716 c 0
EndSplineSet
EndChar

StartChar: napostrophe
Encoding: 329 329 519
Width: 613
VWidth: 1046
Flags: W
LayerCount: 2
Fore
SplineSet
184 0 m 0
 184 540 l 0
 271 540 l 0
 271 445 l 0
 311 505 356 554 429 554 c 0
 491 554 546 519 573 458 c 0
 592 415 593 370 593 328 c 0
 593 0 l 0
 509 0 l 0
 509 326 l 0
 509 364 508 411 479 446 c 0
 460 469 433 480 406 480 c 0
 349 480 319 431 298 404 c 0
 276 374 271 348 271 312 c 0
 271 0 l 0
 184 0 l 0
EndSplineSet
Refer: 56 8217 N 1 0 0 1 -194 0 2
EndChar

StartChar: longs
Encoding: 383 383 526
Width: 613
VWidth: 1046
Flags: W
LayerCount: 2
Fore
SplineSet
202 0 m 1
 202 562 l 1
 202 610 204 655 232 700 c 0
 270 761 341 794 417 794 c 0
 485 794 543 767 582 720 c 1
 544 642 l 1
 540 642 534 644 534 652 c 0
 533 657 534 660 530 665 c 0
 508 700 465 727 413 727 c 0
 368 727 325 707 303 667 c 0
 284 634 284 597 284 561 c 0
 284 557 284 555 284 551 c 2
 284 0 l 1
 202 0 l 1
EndSplineSet
EndChar

StartChar: endash
Encoding: 8211 8211 541
Width: 613
VWidth: 1046
Flags: W
LayerCount: 2
Fore
SplineSet
126 412 m 0
 487 412 l 0
 487 333 l 0
 126 333 l 0
 126 412 l 0
EndSplineSet
EndChar

StartChar: emdash
Encoding: 8212 8212 542
Width: 613
VWidth: 1046
Flags: W
LayerCount: 2
Fore
SplineSet
55 412 m 0
 568 412 l 0
 568 333 l 0
 55 333 l 0
 55 412 l 0
EndSplineSet
EndChar

StartChar: afii00208
Encoding: 8213 8213 543
Width: 613
VWidth: 1046
Flags: W
LayerCount: 2
Fore
SplineSet
0 412 m 0
 613 412 l 0
 613 333 l 0
 0 333 l 0
 0 412 l 0
EndSplineSet
EndChar

StartChar: quotereversed
Encoding: 8219 8219 545
Width: 613
VWidth: 1046
Flags: W
LayerCount: 2
Fore
SplineSet
205 657 m 0
 205 718 246 755 288 755 c 0
 327 755 356 723 356 687 c 0
 356 655 333 642 323 635 c 0
 313 628 295 617 295 593 c 0
 295 573 307 553 313 544 c 0
 325 525 344 496 372 470 c 0
 331 434 l 0
 249 518 205 595 205 657 c 0
EndSplineSet
EndChar

StartChar: uni201F
Encoding: 8223 8223 546
Width: 613
VWidth: 1046
Flags: W
LayerCount: 2
Fore
SplineSet
83 657 m 0
 83 718 123 755 165 755 c 0
 204 755 233 723 233 687 c 0
 233 655 210 642 200 635 c 0
 190 628 172 617 172 593 c 0
 172 573 184 553 190 544 c 0
 202 525 221 496 249 470 c 0
 209 434 l 0
 127 518 83 595 83 657 c 0
328 657 m 0
 328 718 368 755 410 755 c 0
 449 755 478 723 478 687 c 0
 478 655 455 642 445 635 c 0
 435 628 418 617 418 593 c 0
 418 573 429 553 435 544 c 0
 447 525 467 496 495 470 c 0
 454 434 l 0
 372 518 328 595 328 657 c 0
EndSplineSet
EndChar

StartChar: perthousand
Encoding: 8240 8240 547
Width: 613
VWidth: 1046
Flags: W
LayerCount: 2
Fore
SplineSet
295 298 m 0
 346 298 389 232 389 142 c 0
 389 54 347 -12 296 -12 c 0
 245 -12 202 55 202 143 c 0
 202 234 245 298 295 298 c 0
294 235 m 0
 283 235 268 217 268 147 c 0
 268 67 285 51 295 51 c 0
 306 51 321 70 321 138 c 0
 321 222 303 235 294 235 c 0
504 298 m 0
 555 298 598 232 598 142 c 0
 598 54 555 -12 504 -12 c 0
 453 -12 411 55 411 143 c 0
 411 234 454 298 504 298 c 0
503 235 m 0
 492 235 476 217 476 147 c 0
 476 67 493 51 503 51 c 0
 514 51 530 70 530 138 c 0
 530 222 512 235 503 235 c 0
269 738 m 0
 348 738 l 0
 140 0 l 0
 64 0 l 0
 269 738 l 0
116 751 m 0
 167 751 210 685 210 595 c 0
 210 507 168 441 117 441 c 0
 66 441 23 508 23 596 c 0
 23 687 66 751 116 751 c 0
115 689 m 0
 104 689 89 670 89 600 c 0
 89 520 106 505 116 505 c 0
 127 505 143 524 143 592 c 0
 143 676 124 689 115 689 c 0
EndSplineSet
EndChar

StartChar: minute
Encoding: 8242 8242 548
Width: 613
VWidth: 1046
Flags: W
LayerCount: 2
Fore
SplineSet
311 756 m 0
 417 756 l 0
 311 553 l 0
 237 553 l 0
 311 756 l 0
EndSplineSet
EndChar

StartChar: uni207F
Encoding: 8319 8319 552
Width: 613
VWidth: 1046
Flags: W
LayerCount: 2
Fore
SplineSet
240 298 m 1
 167 298 l 1
 167 623 l 1
 240 623 l 1
 240 585 l 1
 266 612 299 631 337 631 c 0
 378 631 415 607 433 567 c 0
 446 546 446 524 446 505 c 0
 446 298 l 1
 375 298 l 1
 375 504 l 0
 375 520 375 537 360 549 c 0
 350 561 338 566 324 566 c 0
 295 566 265 553 254 545 c 0
 242 529 240 517 240 496 c 0
 240 298 l 1
EndSplineSet
EndChar

StartChar: franc
Encoding: 8355 8355 553
Width: 613
VWidth: 1046
Flags: W
LayerCount: 2
Fore
SplineSet
207 0 m 1
 124 0 l 1
 124 243 l 1
 32 243 l 5
 32 315 l 5
 124 315 l 1
 124 398 l 1
 32 398 l 5
 32 470 l 5
 124 470 l 1
 124 739 l 1
 549 739 l 1
 549 666 l 1
 207 666 l 1
 207 470 l 1
 483 470 l 1
 483 398 l 1
 207 398 l 1
 207 315 l 1
 483 315 l 1
 483 243 l 1
 207 243 l 1
 207 0 l 1
EndSplineSet
EndChar

StartChar: lira
Encoding: 8356 8356 554
Width: 613
VWidth: 1046
Flags: W
LayerCount: 2
Fore
SplineSet
505 677 m 1
 453 612 l 1
 443 619 444 628 437 636 c 0
 432 642 399 670 349 670 c 0
 285 670 222 623 222 524 c 0
 222 499 226 473 232 447 c 1
 349 447 l 1
 349 380 l 1
 248 380 l 1
 253 359 258 337 261 315 c 1
 349 315 l 1
 349 247 l 1
 264 247 l 1
 261 195 246 147 221 106 c 1
 231 108 241 109 252 109 c 0
 331 109 380 60 448 60 c 0
 481 60 511 72 535 93 c 1
 567 32 l 1
 540 11 496 -18 444 -18 c 0
 369 -18 319 35 233 35 c 0
 209 35 163 31 87 -9 c 1
 56 58 l 1
 111 83 125 89 144 118 c 0
 168 155 183 199 185 247 c 1
 90 247 l 1
 90 315 l 1
 181 315 l 1
 178 337 172 358 167 380 c 1
 90 380 l 1
 90 447 l 1
 152 447 l 1
 147 472 143 497 143 523 c 0
 143 656 241 738 351 738 c 0
 407 738 463 716 505 677 c 1
EndSplineSet
EndChar

StartChar: peseta
Encoding: 8359 8359 555
Width: 613
VWidth: 0
LayerCount: 2
Fore
SplineSet
397 -12 m 0
 365 -12 336 11 321 47 c 0
 303 92 303 146 303 194 c 0
 303 286 305 378 309 471 c 1
 288 471 l 1
 280 420 262 374 234 349 c 0
 209 327 185 326 159 326 c 2
 96 326 l 1
 96 0 l 1
 31 0 l 1
 31 738 l 1
 156 738 l 2
 183 738 208 737 234 712 c 0
 271 678 290 611 292 540 c 1
 311 540 l 1
 317 686 l 1
 382 701 l 1
 382 699 382 697 382 695 c 0
 382 686 380 679 379 669 c 0
 377 638 374 541 374 541 c 1
 456 541 l 1
 468 549 481 554 495 554 c 0
 531 554 563 524 586 469 c 1
 564 394 l 1
 563 394 561 397 561 404 c 0
 561 408 562 411 560 415 c 0
 551 442 514 489 490 489 c 0
 471 489 455 460 455 416 c 0
 455 398 458 371 472 350 c 0
 488 326 526 313 554 279 c 0
 583 243 591 194 591 157 c 0
 591 75 555 -12 488 -12 c 0
 451 -12 434 -12 397 -12 c 0
96 660 m 1
 95 398 l 1
 150 398 l 2
 163 398 176 400 189 414 c 0
 209 435 220 479 220 526 c 0
 220 574 209 622 188 644 c 0
 174 659 160 660 146 660 c 2
 96 660 l 1
410 471 m 1
 373 471 l 1
 370 401 369 330 369 260 c 0
 369 181 371 160 371 155 c 0
 375 91 392 60 415 60 c 0
 434 60 459 59 487 59 c 0
 511 59 530 94 530 145 c 0
 530 165 528 193 514 214 c 0
 502 233 481 246 460 263 c 0
 447 274 400 309 400 403 c 0
 400 427 404 450 410 471 c 1
EndSplineSet
EndChar

StartChar: afii61248
Encoding: 8453 8453 556
Width: 613
VWidth: 1046
Flags: W
LayerCount: 2
Fore
SplineSet
290 694 m 0
 294 688 l 1
 253 639 l 1
 245 645 l 0
 235 652 238 663 238 663 c 1
 234 668 216 692 178 692 c 0
 134 692 99 659 99 602 c 0
 99 543 135 505 181 505 c 0
 205 505 229 515 245 534 c 0
 253 543 l 1
 291 499 l 1
 285 492 l 0
 257 462 218 446 178 446 c 0
 96 446 34 512 34 598 c 0
 34 684 95 749 180 749 c 0
 226 749 267 728 290 694 c 0
467 287 m 0
 534 287 597 234 597 139 c 0
 597 48 535 -7 465 -7 c 0
 391 -7 328 54 328 138 c 0
 328 223 392 287 467 287 c 0
534 137 m 0
 534 203 496 230 464 230 c 0
 430 230 394 201 394 142 c 0
 394 82 430 50 466 50 c 0
 499 50 534 76 534 137 c 0
EndSplineSet
Refer: 274 8260 N 1 0 0 1 0 0 2
EndChar

StartChar: afii61289
Encoding: 8467 8467 557
Width: 613
VWidth: 1046
Flags: W
LayerCount: 2
Fore
SplineSet
400 75 m 0
 426 75 447 79 477 81 c 1
 475 0 l 1
 469 0 462 0 456 0 c 0
 444 0 411 1 400 1 c 0
 338 1 279 39 233 111 c 1
 198 93 160 82 118 82 c 1
 119 156 l 1
 147 156 173 165 198 180 c 1
 163 263 138 372 138 507 c 0
 138 599 167 794 305 794 c 0
 401 794 446 696 446 509 c 0
 446 393 393 248 300 160 c 1
 329 105 364 75 400 75 c 0
299 721 m 0
 264 721 224 648 228 515 c 0
 231 407 246 314 267 243 c 1
 325 318 360 426 360 506 c 0
 360 655 350 721 299 721 c 0
EndSplineSet
EndChar

StartChar: estimated
Encoding: 8494 8494 559
Width: 613
VWidth: 1046
Flags: W
LayerCount: 2
Fore
SplineSet
317 746 m 0
 405 746 532 683 557 489 c 0
 561 462 563 435 563 404 c 0
 563 386 562 368 561 350 c 1
 184 350 l 1
 184 148 l 1
 230 88 292 68 334 68 c 0
 388 68 465 98 501 154 c 1
 548 100 l 1
 502 26 405 -12 327 -12 c 0
 181 -12 41 117 41 359 c 0
 41 623 187 746 317 746 c 0
184 421 m 1
 419 421 l 1
 419 612 l 1
 388 648 349 670 311 670 c 0
 277 670 224 651 184 596 c 1
 184 421 l 1
EndSplineSet
EndChar

StartChar: uni2070
Encoding: 8304 8304 560
Width: 613
VWidth: 1046
Flags: W
LayerCount: 2
Fore
SplineSet
114 531 m 0
 114 678 212 769 308 769 c 0
 401 769 499 683 499 527 c 0
 499 370 397 296 309 296 c 0
 213 296 114 383 114 531 c 0
197 466 m 1
 390 661 l 1
 365 697 335 712 307 712 c 0
 254 712 187 653 187 540 c 0
 187 513 191 488 197 466 c 1
426 521 m 0
 426 551 423 578 417 600 c 1
 223 408 l 1
 248 372 280 354 311 354 c 0
 358 354 426 398 426 521 c 0
EndSplineSet
EndChar

StartChar: uni2075
Encoding: 8309 8309 561
Width: 613
VWidth: 1046
Flags: W
LayerCount: 2
Fore
SplineSet
146 527 m 1
 167 759 l 1
 473 759 l 1
 473 702 l 1
 233 702 l 1
 225 590 l 1
 255 600 283 604 313 604 c 0
 412 604 495 550 495 452 c 0
 495 350 407 296 305 296 c 0
 235 296 168 321 128 367 c 0
 123 372 l 1
 191 412 l 1
 194 410 l 0
 206 404 203 391 203 391 c 1
 206 387 245 352 304 352 c 0
 364 352 415 388 415 453 c 0
 415 520 362 554 303 554 c 0
 265 554 225 539 198 513 c 0
 196 511 l 1
 146 527 l 1
EndSplineSet
EndChar

StartChar: uni2076
Encoding: 8310 8310 562
Width: 613
VWidth: 1046
Flags: W
LayerCount: 2
Fore
SplineSet
155 656 m 1
 192 737 270 771 341 771 c 0
 389 771 437 755 472 728 c 0
 478 724 l 1
 424 677 l 1
 420 679 l 0
 409 685 408 694 406 696 c 0
 403 698 378 714 341 714 c 0
 302 714 217 697 207 563 c 1
 236 591 278 606 323 606 c 0
 407 606 489 550 489 453 c 0
 489 356 408 296 317 296 c 0
 264 296 210 317 175 358 c 0
 136 403 130 462 130 515 c 0
 130 558 134 612 155 656 c 1
413 450 m 0
 413 524 361 550 317 550 c 0
 277 550 234 527 209 493 c 1
 208 488 209 484 209 479 c 0
 209 406 257 353 319 353 c 0
 366 353 413 384 413 450 c 0
EndSplineSet
EndChar

StartChar: uni2077
Encoding: 8311 8311 563
Width: 613
VWidth: 1046
Flags: W
LayerCount: 2
Fore
SplineSet
140 699 m 1
 140 759 l 1
 482 759 l 1
 482 725 l 1
 481 723 l 0
 442 655 405 587 371 518 c 0
 338 449 306 379 278 308 c 0
 277 304 l 1
 190 304 l 1
 194 312 l 0
 228 392 265 471 305 549 c 0
 330 599 358 649 385 699 c 1
 140 699 l 1
EndSplineSet
EndChar

StartChar: uni2078
Encoding: 8312 8312 564
Width: 613
VWidth: 1046
Flags: W
LayerCount: 2
Fore
SplineSet
151 654 m 0
 151 720 224 771 314 771 c 0
 401 771 471 723 471 659 c 0
 471 616 437 575 388 551 c 1
 449 525 491 479 491 426 c 0
 491 352 409 296 306 296 c 0
 205 296 123 351 123 423 c 0
 123 475 169 523 230 549 c 1
 183 572 151 610 151 654 c 0
412 426 m 0
 412 465 367 504 295 522 c 1
 241 504 203 468 203 430 c 0
 203 390 248 354 309 354 c 0
 369 354 412 388 412 426 c 0
395 649 m 0
 395 682 359 710 309 710 c 0
 260 710 226 682 226 652 c 0
 226 604 307 574 322 569 c 1
 367 588 395 619 395 649 c 0
EndSplineSet
EndChar

StartChar: uni2079
Encoding: 8313 8313 565
Width: 613
VWidth: 1046
Flags: W
LayerCount: 2
Fore
SplineSet
462 404 m 1
 425 330 349 296 276 296 c 0
 226 296 180 312 144 339 c 0
 138 343 l 1
 192 389 l 1
 195 388 l 0
 208 381 207 372 211 370 c 1
 211 370 237 355 278 355 c 0
 318 355 364 370 387 413 c 1
 392 422 405 450 409 506 c 1
 380 481 340 467 296 467 c 0
 209 467 131 524 131 615 c 0
 131 706 210 770 303 770 c 0
 365 770 435 741 467 669 c 0
 481 637 487 597 487 540 c 0
 487 466 472 425 462 404 c 1
207 617 m 0
 207 554 254 523 303 523 c 0
 343 523 383 544 407 574 c 1
 408 582 408 588 408 594 c 0
 408 669 359 713 302 713 c 0
 252 713 207 679 207 617 c 0
EndSplineSet
EndChar

StartChar: arrowleft
Encoding: 8592 8592 570
Width: 613
VWidth: 1046
Flags: W
LayerCount: 2
Fore
SplineSet
208 133 m 1
 31 355 l 1
 31 380 l 1
 210 585 l 1
 250 526 l 1
 131 400 l 1
 582 400 l 1
 582 322 l 1
 130 322 l 1
 250 184 l 1
 208 133 l 1
EndSplineSet
EndChar

StartChar: arrowright
Encoding: 8594 8594 571
Width: 613
VWidth: 1046
Flags: W
LayerCount: 2
Fore
SplineSet
405 133 m 1
 363 184 l 1
 483 322 l 1
 31 322 l 1
 31 400 l 1
 482 400 l 1
 363 526 l 1
 403 585 l 1
 582 380 l 1
 582 355 l 1
 405 133 l 1
EndSplineSet
EndChar

StartChar: arrowboth
Encoding: 8596 8596 572
Width: 613
VWidth: 1046
Flags: W
LayerCount: 2
Fore
SplineSet
405 133 m 1
 363 184 l 1
 483 322 l 1
 130 322 l 1
 250 184 l 1
 208 133 l 1
 31 355 l 1
 31 380 l 1
 210 585 l 1
 250 526 l 1
 131 400 l 1
 482 400 l 1
 363 526 l 1
 403 585 l 1
 582 380 l 1
 582 355 l 1
 405 133 l 1
EndSplineSet
EndChar

StartChar: arrowupdn
Encoding: 8597 8597 573
Width: 613
VWidth: 1046
Flags: W
LayerCount: 2
Fore
SplineSet
532 240 m 1
 311 -40 l 1
 285 -40 l 1
 80 242 l 1
 139 282 l 1
 265 112 l 1
 265 607 l 1
 127 436 l 1
 76 478 l 1
 297 758 l 1
 323 758 l 1
 528 476 l 1
 469 436 l 1
 343 607 l 1
 343 111 l 1
 481 282 l 1
 532 240 l 1
EndSplineSet
EndChar

StartChar: partialdiff
Encoding: 8706 8706 574
Width: 613
VWidth: 1046
Flags: W
LayerCount: 2
Fore
SplineSet
312 480 m 0
 232 480 148 414 148 275 c 0
 148 137 228 59 313 59 c 0
 380 59 469 111 469 275 c 0
 469 439 373 480 312 480 c 0
175 776 m 1
 271 796 l 1
 453 693 555 522 555 300 c 0
 555 236 547 161 509 97 c 0
 466 25 392 -14 313 -14 c 0
 176 -14 58 101 58 264 c 0
 58 426 173 553 304 553 c 0
 359 553 410 530 446 491 c 1
 395 623 296 721 175 776 c 1
EndSplineSet
EndChar

StartChar: radical
Encoding: 8730 8730 580
Width: 613
VWidth: 1046
Flags: W
LayerCount: 2
Fore
SplineSet
289 118 m 1
 534 787 l 1
 605 751 l 1
 331 0 l 1
 245 0 l 1
 127 376 l 1
 31 195 l 1
 31 349 l 1
 97 470 l 1
 178 470 l 1
 289 118 l 1
EndSplineSet
EndChar

StartChar: infinity
Encoding: 8734 8734 581
Width: 613
VWidth: 1046
Flags: W
LayerCount: 2
Fore
SplineSet
300 331 m 1
 277 290 229 252 185 252 c 0
 119 252 57 336 57 415 c 0
 57 491 116 573 180 573 c 0
 241 573 289 533 313 490 c 1
 336 531 384 573 428 573 c 0
 494 573 556 489 556 410 c 0
 556 334 497 252 433 252 c 0
 372 252 324 288 300 331 c 1
423 318 m 0
 456 318 495 370 495 414 c 0
 495 457 457 508 427 508 c 0
 379 508 338 416 333 403 c 1
 352 364 382 318 423 318 c 0
190 507 m 0
 157 507 118 455 118 411 c 0
 118 368 156 317 186 317 c 0
 234 317 275 409 280 422 c 1
 261 461 231 507 190 507 c 0
EndSplineSet
EndChar

StartChar: orthogonal
Encoding: 8735 8735 582
Width: 613
VWidth: 1046
Flags: W
LayerCount: 2
Fore
SplineSet
187 274 m 1
 499 274 l 1
 499 201 l 1
 114 201 l 1
 114 585 l 1
 187 585 l 1
 187 274 l 1
EndSplineSet
EndChar

StartChar: intersection
Encoding: 8745 8745 583
Width: 613
VWidth: 1046
Flags: W
LayerCount: 2
Fore
SplineSet
69 102 m 1
 69 281 l 0
 69 335 71 386 99 437 c 0
 141 514 224 553 309 553 c 0
 396 553 478 514 519 438 c 0
 546 387 548 337 548 285 c 0
 548 102 l 1
 466 102 l 1
 466 286 l 0
 466 323 465 359 448 395 c 0
 421 452 366 482 307 482 c 0
 249 482 194 452 167 396 c 0
 149 358 148 321 148 283 c 0
 148 102 l 1
 69 102 l 1
EndSplineSet
EndChar

StartChar: integral
Encoding: 8747 8747 584
Width: 613
VWidth: 1046
Flags: W
LayerCount: 2
Fore
SplineSet
352 38 m 1
 352 -9 355 -53 332 -98 c 0
 295 -170 240 -207 163 -207 c 0
 96 -207 57 -179 18 -131 c 1
 74 -57 l 1
 81 -63 79 -71 84 -79 c 0
 88 -86 104 -133 169 -133 c 0
 215 -133 237 -109 257 -65 c 0
 270 -36 271 -8 271 21 c 2
 271 562 l 2
 271 610 272 655 300 700 c 0
 338 761 389 794 465 794 c 0
 533 794 571 767 610 720 c 1
 571 642 l 1
 567 642 562 644 562 652 c 1
 561 657 562 660 558 665 c 0
 536 700 513 727 461 727 c 0
 416 727 394 707 372 667 c 0
 353 634 352 597 352 561 c 0
 352 551 l 1
 352 38 l 1
EndSplineSet
EndChar

StartChar: equivalence
Encoding: 8801 8801 587
Width: 613
VWidth: 1046
Flags: W
LayerCount: 2
Fore
SplineSet
63 222 m 25
 550 222 l 25
 550 149 l 25
 63 149 l 25
 63 222 l 25
63 553 m 25
 550 553 l 25
 550 480 l 25
 63 480 l 25
 63 553 l 25
63 387 m 25
 550 387 l 25
 550 315 l 25
 63 315 l 25
 63 387 l 25
EndSplineSet
EndChar

StartChar: SF100000
Encoding: 9472 9472 590
Width: 613
VWidth: 1046
Flags: W
LayerCount: 2
Fore
SplineSet
0 367 m 0
 613 367 l 0
 613 289 l 0
 0 289 l 0
 0 367 l 0
EndSplineSet
EndChar

StartChar: SF110000
Encoding: 9474 9474 591
Width: 613
VWidth: 1046
Flags: W
LayerCount: 2
Fore
SplineSet
346 838 m 0
 346 -184 l 0
 267 -184 l 0
 267 838 l 0
 346 838 l 0
EndSplineSet
EndChar

StartChar: SF010000
Encoding: 9484 9484 592
Width: 613
VWidth: 1046
Flags: W
LayerCount: 2
Fore
SplineSet
267 367 m 5
 613 367 l 5
 613 289 l 5
 346 289 l 5
 346 -184 l 1
 267 -184 l 1
 267 367 l 5
EndSplineSet
EndChar

StartChar: SF030000
Encoding: 9488 9488 593
Width: 613
VWidth: 1046
Flags: W
LayerCount: 2
Fore
SplineSet
346 367 m 5
 346 -184 l 1
 267 -184 l 1
 267 289 l 5
 0 289 l 5
 0 367 l 5
 346 367 l 5
EndSplineSet
EndChar

StartChar: SF020000
Encoding: 9492 9492 594
Width: 613
VWidth: 1046
Flags: W
LayerCount: 2
Fore
SplineSet
267 289 m 5
 267 838 l 1
 346 838 l 1
 346 367 l 5
 613 367 l 5
 613 289 l 5
 267 289 l 5
EndSplineSet
EndChar

StartChar: SF040000
Encoding: 9496 9496 595
Width: 613
VWidth: 1046
Flags: W
LayerCount: 2
Fore
SplineSet
346 289 m 5
 0 289 l 5
 0 367 l 5
 267 367 l 5
 267 838 l 1
 346 838 l 1
 346 289 l 5
EndSplineSet
EndChar

StartChar: SF080000
Encoding: 9500 9500 596
Width: 613
VWidth: 1046
Flags: W
LayerCount: 2
Fore
SplineSet
267 838 m 1
 346 838 l 1
 346 367 l 5
 613 367 l 5
 613 289 l 5
 346 289 l 5
 346 -184 l 1
 267 -184 l 1
 267 838 l 1
EndSplineSet
EndChar

StartChar: SF090000
Encoding: 9508 9508 597
Width: 613
VWidth: 1046
Flags: W
LayerCount: 2
Fore
SplineSet
346 -184 m 1
 267 -184 l 1
 267 289 l 5
 0 289 l 5
 0 367 l 5
 267 367 l 5
 267 838 l 1
 346 838 l 1
 346 -184 l 1
EndSplineSet
EndChar

StartChar: SF060000
Encoding: 9516 9516 598
Width: 613
VWidth: 1046
Flags: W
LayerCount: 2
Fore
SplineSet
613 367 m 5
 613 289 l 5
 346 289 l 5
 346 -184 l 1
 267 -184 l 1
 267 289 l 5
 0 289 l 5
 0 367 l 5
 613 367 l 5
EndSplineSet
EndChar

StartChar: SF070000
Encoding: 9524 9524 599
Width: 613
VWidth: 1046
Flags: W
LayerCount: 2
Fore
SplineSet
0 289 m 5
 0 367 l 5
 267 367 l 5
 267 838 l 1
 346 838 l 1
 346 367 l 5
 613 367 l 5
 613 289 l 5
 0 289 l 5
EndSplineSet
EndChar

StartChar: SF050000
Encoding: 9532 9532 600
Width: 613
VWidth: 1046
Flags: W
LayerCount: 2
Fore
SplineSet
346 289 m 5
 346 -184 l 1
 267 -184 l 1
 267 289 l 5
 0 289 l 5
 0 367 l 5
 267 367 l 5
 267 838 l 1
 346 838 l 1
 346 367 l 5
 613 367 l 5
 613 289 l 5
 346 289 l 5
EndSplineSet
EndChar

StartChar: SF510000
Encoding: 9554 9554 603
Width: 613
VWidth: 1046
Flags: W
LayerCount: 2
Fore
SplineSet
267 470 m 5
 613 469 l 5
 613 391 l 5
 346 391 l 5
 346 265 l 5
 613 265 l 5
 613 186 l 5
 346 186 l 5
 346 -184 l 1
 267 -184 l 1
 267 470 l 5
 267 470 l 5
EndSplineSet
EndChar

StartChar: SF520000
Encoding: 9555 9555 604
Width: 613
VWidth: 1046
Flags: W
LayerCount: 2
Fore
SplineSet
165 367 m 5
 613 367 l 5
 613 289 l 5
 448 289 l 5
 448 -184 l 1
 369 -184 l 1
 369 289 l 5
 244 289 l 5
 244 -184 l 1
 165 -184 l 1
 165 367 l 5
EndSplineSet
EndChar

StartChar: SF390000
Encoding: 9556 9556 605
Width: 613
VWidth: 1046
Flags: W
LayerCount: 2
Fore
SplineSet
244 -184 m 1
 165 -184 l 1
 165 469 l 5
 613 469 l 5
 613 391 l 5
 244 391 l 5
 244 -184 l 1
369 265 m 5
 613 265 l 5
 613 186 l 5
 448 186 l 5
 448 -184 l 1
 369 -184 l 1
 369 265 l 5
EndSplineSet
EndChar

StartChar: SF220000
Encoding: 9557 9557 606
Width: 613
VWidth: 1046
Flags: W
LayerCount: 2
Fore
SplineSet
346 470 m 5
 346 470 l 5
 346 -184 l 1
 267 -184 l 1
 267 186 l 5
 0 186 l 5
 0 265 l 5
 267 265 l 5
 267 391 l 5
 0 391 l 5
 0 469 l 5
 346 470 l 5
EndSplineSet
EndChar

StartChar: SF210000
Encoding: 9558 9558 607
Width: 613
VWidth: 1046
Flags: W
LayerCount: 2
Fore
SplineSet
448 367 m 1
 448 -184 l 1
 369 -184 l 1
 369 289 l 1
 244 289 l 1
 244 -184 l 1
 165 -184 l 1
 165 289 l 1
 0 289 l 1
 0 367 l 1
 448 367 l 1
EndSplineSet
EndChar

StartChar: SF250000
Encoding: 9559 9559 608
Width: 613
VWidth: 1046
Flags: W
LayerCount: 2
Fore
SplineSet
369 -184 m 1
 369 391 l 1
 0 391 l 1
 0 469 l 1
 448 469 l 1
 448 -184 l 1
 369 -184 l 1
244 265 m 1
 244 -184 l 1
 165 -184 l 1
 165 186 l 1
 0 186 l 1
 0 265 l 1
 244 265 l 1
EndSplineSet
EndChar

StartChar: SF500000
Encoding: 9560 9560 609
Width: 613
VWidth: 1046
Flags: W
LayerCount: 2
Fore
SplineSet
267 184 m 5
 267 184 l 5
 267 838 l 1
 346 838 l 1
 346 467 l 5
 613 467 l 5
 613 389 l 5
 346 389 l 5
 346 263 l 5
 613 263 l 5
 613 184 l 5
 267 184 l 5
EndSplineSet
EndChar

StartChar: SF490000
Encoding: 9561 9561 610
Width: 613
VWidth: 1046
Flags: W
LayerCount: 2
Fore
SplineSet
165 287 m 5
 165 838 l 1
 244 838 l 1
 244 365 l 5
 369 365 l 5
 369 838 l 1
 448 838 l 1
 448 365 l 5
 613 365 l 5
 613 287 l 5
 165 287 l 5
EndSplineSet
EndChar

StartChar: SF380000
Encoding: 9562 9562 611
Width: 613
VWidth: 1046
Flags: W
LayerCount: 2
Fore
SplineSet
244 838 m 1
 244 263 l 5
 613 263 l 5
 613 184 l 5
 165 184 l 5
 165 838 l 1
 244 838 l 1
369 389 m 5
 369 838 l 1
 448 838 l 1
 448 467 l 5
 613 467 l 5
 613 389 l 5
 369 389 l 5
EndSplineSet
EndChar

StartChar: SF280000
Encoding: 9563 9563 612
Width: 613
VWidth: 1046
Flags: W
LayerCount: 2
Fore
SplineSet
346 184 m 5
 0 184 l 5
 0 263 l 5
 267 263 l 5
 267 389 l 5
 0 389 l 5
 0 467 l 5
 267 467 l 5
 267 838 l 1
 346 838 l 1
 346 184 l 5
 346 184 l 5
EndSplineSet
EndChar

StartChar: SF270000
Encoding: 9564 9564 613
Width: 613
VWidth: 1046
Flags: W
LayerCount: 2
Fore
SplineSet
448 287 m 1
 0 287 l 1
 0 365 l 1
 165 365 l 1
 165 838 l 1
 244 838 l 1
 244 365 l 1
 369 365 l 1
 369 838 l 1
 448 838 l 1
 448 287 l 1
EndSplineSet
EndChar

StartChar: SF260000
Encoding: 9565 9565 614
Width: 613
VWidth: 1046
Flags: W
LayerCount: 2
Fore
SplineSet
369 838 m 1
 448 838 l 1
 448 184 l 1
 0 184 l 1
 0 263 l 1
 369 263 l 1
 369 838 l 1
244 389 m 1
 0 389 l 1
 0 467 l 1
 165 467 l 1
 165 838 l 1
 244 838 l 1
 244 389 l 1
EndSplineSet
EndChar

StartChar: SF360000
Encoding: 9566 9566 615
Width: 613
VWidth: 1046
Flags: W
LayerCount: 2
Fore
SplineSet
267 838 m 1
 346 838 l 1
 346 469 l 1
 613 469 l 1
 613 391 l 1
 346 391 l 1
 346 265 l 1
 613 265 l 1
 613 186 l 1
 346 186 l 1
 346 -184 l 1
 267 -184 l 1
 267 838 l 1
EndSplineSet
EndChar

StartChar: SF370000
Encoding: 9567 9567 616
Width: 613
VWidth: 1046
Flags: W
LayerCount: 2
Fore
SplineSet
244 -184 m 1
 165 -184 l 1
 165 838 l 1
 244 838 l 1
 244 -184 l 1
369 838 m 1
 448 838 l 1
 448 367 l 1
 613 367 l 1
 613 289 l 1
 448 289 l 1
 448 -184 l 1
 369 -184 l 1
 369 838 l 1
EndSplineSet
EndChar

StartChar: SF420000
Encoding: 9568 9568 617
Width: 613
VWidth: 1046
Flags: W
LayerCount: 2
Fore
SplineSet
244 -184 m 1
 165 -184 l 1
 165 838 l 1
 244 838 l 1
 244 -184 l 1
369 838 m 1
 448 838 l 1
 448 469 l 1
 613 469 l 1
 613 391 l 1
 369 391 l 1
 369 838 l 1
369 265 m 1
 613 265 l 1
 613 186 l 1
 448 186 l 1
 448 -184 l 1
 369 -184 l 1
 369 265 l 1
EndSplineSet
EndChar

StartChar: SF190000
Encoding: 9569 9569 618
Width: 613
VWidth: 1046
Flags: W
LayerCount: 2
Fore
SplineSet
346 838 m 1
 346 -184 l 1
 267 -184 l 1
 267 186 l 1
 0 186 l 1
 0 265 l 1
 267 265 l 1
 267 391 l 1
 0 391 l 1
 0 469 l 1
 267 469 l 1
 267 838 l 1
 346 838 l 1
EndSplineSet
EndChar

StartChar: SF200000
Encoding: 9570 9570 619
Width: 613
VWidth: 1046
Flags: W
LayerCount: 2
Fore
SplineSet
369 -184 m 1
 369 838 l 1
 448 838 l 1
 448 -184 l 1
 369 -184 l 1
244 838 m 1
 244 -184 l 1
 165 -184 l 1
 165 289 l 1
 0 289 l 1
 0 367 l 1
 165 367 l 1
 165 838 l 1
 244 838 l 1
EndSplineSet
EndChar

StartChar: SF230000
Encoding: 9571 9571 620
Width: 613
VWidth: 1046
Flags: W
LayerCount: 2
Fore
SplineSet
369 -184 m 1
 369 838 l 1
 448 838 l 1
 448 -184 l 1
 369 -184 l 1
244 838 m 1
 244 391 l 1
 0 391 l 1
 0 469 l 1
 165 469 l 1
 165 838 l 1
 244 838 l 1
244 265 m 1
 244 -184 l 1
 165 -184 l 1
 165 186 l 1
 0 186 l 1
 0 265 l 1
 244 265 l 1
EndSplineSet
EndChar

StartChar: SF470000
Encoding: 9572 9572 621
Width: 613
VWidth: 1046
Flags: W
LayerCount: 2
Fore
SplineSet
0 469 m 1
 613 469 l 1
 613 391 l 1
 0 391 l 1
 0 469 l 1
0 265 m 1
 613 265 l 1
 613 186 l 1
 346 186 l 1
 346 -184 l 1
 267 -184 l 1
 267 186 l 1
 0 186 l 1
 0 265 l 1
EndSplineSet
EndChar

StartChar: SF480000
Encoding: 9573 9573 622
Width: 613
VWidth: 1046
Flags: W
LayerCount: 2
Fore
SplineSet
0 367 m 1
 613 367 l 1
 613 289 l 1
 448 289 l 1
 448 -184 l 1
 369 -184 l 1
 369 289 l 1
 244 289 l 1
 244 -184 l 1
 165 -184 l 1
 165 289 l 1
 0 289 l 1
 0 367 l 1
EndSplineSet
EndChar

StartChar: SF410000
Encoding: 9574 9574 623
Width: 613
VWidth: 1046
Flags: W
LayerCount: 2
Fore
SplineSet
0 469 m 1
 613 469 l 1
 613 391 l 1
 0 391 l 1
 0 469 l 1
165 186 m 1
 0 186 l 1
 0 265 l 1
 244 265 l 1
 244 -184 l 1
 165 -184 l 1
 165 186 l 1
448 186 m 1
 448 -184 l 1
 369 -184 l 1
 369 265 l 1
 613 265 l 1
 613 186 l 1
 448 186 l 1
EndSplineSet
EndChar

StartChar: SF450000
Encoding: 9575 9575 624
Width: 613
VWidth: 1046
Flags: W
LayerCount: 2
Fore
SplineSet
0 184 m 1
 0 263 l 1
 613 263 l 1
 613 184 l 1
 0 184 l 1
0 389 m 1
 0 467 l 1
 267 467 l 1
 267 838 l 1
 346 838 l 1
 346 467 l 1
 613 467 l 1
 613 389 l 1
 0 389 l 1
EndSplineSet
EndChar

StartChar: SF460000
Encoding: 9576 9576 625
Width: 613
VWidth: 1046
Flags: W
LayerCount: 2
Fore
SplineSet
0 287 m 1
 0 365 l 1
 165 365 l 1
 165 838 l 1
 244 838 l 1
 244 365 l 1
 369 365 l 1
 369 838 l 1
 448 838 l 1
 448 365 l 1
 613 365 l 1
 613 287 l 1
 0 287 l 1
EndSplineSet
EndChar

StartChar: SF400000
Encoding: 9577 9577 626
Width: 613
VWidth: 1046
Flags: W
LayerCount: 2
Fore
SplineSet
0 184 m 1
 0 263 l 1
 613 263 l 1
 613 184 l 1
 0 184 l 1
165 467 m 1
 165 838 l 1
 244 838 l 1
 244 389 l 1
 0 389 l 1
 0 467 l 1
 165 467 l 1
448 467 m 1
 613 467 l 1
 613 389 l 1
 369 389 l 1
 369 838 l 1
 448 838 l 1
 448 467 l 1
EndSplineSet
EndChar

StartChar: SF540000
Encoding: 9578 9578 627
Width: 613
VWidth: 1046
Flags: W
LayerCount: 2
Fore
SplineSet
267 265 m 1
 267 391 l 1
 0 391 l 1
 0 469 l 1
 267 469 l 1
 267 838 l 1
 346 838 l 1
 346 469 l 1
 613 469 l 1
 613 391 l 1
 346 391 l 1
 346 265 l 1
 613 265 l 1
 613 186 l 1
 346 186 l 1
 346 -184 l 1
 267 -184 l 1
 267 186 l 1
 0 186 l 1
 0 265 l 1
 267 265 l 1
EndSplineSet
EndChar

StartChar: SF530000
Encoding: 9579 9579 628
Width: 613
VWidth: 1046
Flags: W
LayerCount: 2
Fore
SplineSet
165 367 m 1
 165 838 l 1
 244 838 l 1
 244 367 l 1
 369 367 l 1
 369 838 l 1
 448 838 l 1
 448 367 l 1
 613 367 l 1
 613 289 l 1
 448 289 l 1
 448 -184 l 1
 369 -184 l 1
 369 289 l 1
 244 289 l 1
 244 -184 l 1
 165 -184 l 1
 165 289 l 1
 0 289 l 1
 0 367 l 1
 165 367 l 1
EndSplineSet
EndChar

StartChar: SF440000
Encoding: 9580 9580 629
Width: 613
VWidth: 1046
Flags: W
LayerCount: 2
Fore
SplineSet
369 391 m 1
 369 838 l 1
 448 838 l 1
 448 469 l 1
 613 469 l 1
 613 391 l 1
 369 391 l 1
369 265 m 1
 613 265 l 1
 613 186 l 1
 448 186 l 1
 448 -184 l 1
 369 -184 l 1
 369 265 l 1
244 265 m 1
 244 -184 l 1
 165 -184 l 1
 165 186 l 1
 0 186 l 1
 0 265 l 1
 244 265 l 1
244 391 m 1
 0 391 l 1
 0 469 l 1
 165 469 l 1
 165 838 l 1
 244 838 l 1
 244 391 l 1
EndSplineSet
EndChar

StartChar: dnblock
Encoding: 9604 9604 630
Width: 613
VWidth: 1046
Flags: W
LayerCount: 2
Fore
SplineSet
0 327 m 29
 613 327 l 29
 613 -184 l 29
 0 -184 l 29
 0 327 l 29
EndSplineSet
EndChar

StartChar: block
Encoding: 9608 9608 631
Width: 613
VWidth: 1046
Flags: W
LayerCount: 2
Fore
SplineSet
0 838 m 25
 613 838 l 25
 613 -184 l 25
 0 -184 l 25
 0 838 l 25
EndSplineSet
EndChar

StartChar: lfblock
Encoding: 9612 9612 632
Width: 613
VWidth: 1046
Flags: W
LayerCount: 2
Fore
SplineSet
0 838 m 25
 306 838 l 25
 306 -184 l 29
 0 -184 l 25
 0 838 l 25
EndSplineSet
EndChar

StartChar: shade
Encoding: 9618 9618 633
Width: 613
VWidth: 1046
Flags: W
LayerCount: 2
Fore
SplineSet
0 838 m 1
 61 838 l 1
 61 787 l 1
 0 787 l 1
 0 838 l 1
123 838 m 1
 184 838 l 1
 184 787 l 1
 123 787 l 1
 123 736 l 1
 61 736 l 1
 61 787 l 1
 123 787 l 1
 123 838 l 1
245 838 m 1
 306 838 l 1
 306 787 l 1
 245 787 l 1
 245 736 l 1
 184 736 l 1
 184 787 l 1
 245 787 l 1
 245 838 l 1
368 838 m 1
 429 838 l 1
 429 787 l 1
 368 787 l 1
 368 736 l 1
 306 736 l 1
 306 787 l 1
 368 787 l 1
 368 838 l 1
490 838 m 1
 552 838 l 1
 552 787 l 1
 490 787 l 1
 490 736 l 1
 429 736 l 1
 429 787 l 1
 490 787 l 1
 490 838 l 1
552 787 m 1
 613 787 l 1
 613 736 l 1
 552 736 l 1
 552 787 l 1
61 736 m 1
 61 685 l 1
 0 685 l 1
 0 736 l 1
 61 736 l 1
61 685 m 1
 123 685 l 1
 123 633 l 1
 61 633 l 1
 61 685 l 1
123 685 m 1
 123 736 l 1
 184 736 l 1
 184 685 l 1
 123 685 l 1
184 685 m 1
 245 685 l 1
 245 633 l 1
 184 633 l 1
 184 685 l 1
245 685 m 1
 245 736 l 1
 306 736 l 1
 306 685 l 1
 245 685 l 1
306 685 m 1
 368 685 l 1
 368 633 l 1
 306 633 l 1
 306 685 l 1
368 685 m 1
 368 736 l 1
 429 736 l 1
 429 685 l 1
 368 685 l 1
429 685 m 1
 490 685 l 1
 490 633 l 1
 429 633 l 1
 429 685 l 1
490 685 m 1
 490 736 l 1
 552 736 l 1
 552 685 l 1
 490 685 l 1
552 685 m 1
 613 685 l 1
 613 633 l 1
 552 633 l 1
 552 685 l 1
61 633 m 1
 61 582 l 1
 0 582 l 1
 0 633 l 1
 61 633 l 1
61 582 m 1
 123 582 l 1
 123 531 l 1
 61 531 l 1
 61 582 l 1
123 582 m 1
 123 633 l 1
 184 633 l 1
 184 582 l 1
 123 582 l 1
184 582 m 1
 245 582 l 1
 245 531 l 1
 184 531 l 1
 184 582 l 1
245 582 m 1
 245 633 l 1
 306 633 l 1
 306 582 l 1
 245 582 l 1
306 582 m 1
 368 582 l 1
 368 531 l 1
 306 531 l 1
 306 582 l 1
368 582 m 1
 368 633 l 1
 429 633 l 1
 429 582 l 1
 368 582 l 1
429 582 m 1
 490 582 l 1
 490 531 l 1
 429 531 l 1
 429 582 l 1
490 582 m 1
 490 633 l 1
 552 633 l 1
 552 582 l 1
 490 582 l 1
552 582 m 1
 613 582 l 1
 613 531 l 1
 552 531 l 1
 552 582 l 1
61 531 m 1
 61 480 l 1
 0 480 l 1
 0 531 l 1
 61 531 l 1
61 480 m 1
 123 480 l 1
 123 429 l 1
 61 429 l 1
 61 480 l 1
123 480 m 1
 123 531 l 1
 184 531 l 1
 184 480 l 1
 123 480 l 1
184 480 m 1
 245 480 l 1
 245 429 l 1
 184 429 l 1
 184 480 l 1
245 480 m 1
 245 531 l 1
 306 531 l 1
 306 480 l 1
 245 480 l 1
306 480 m 1
 368 480 l 1
 368 429 l 1
 306 429 l 1
 306 480 l 1
368 480 m 1
 368 531 l 1
 429 531 l 1
 429 480 l 1
 368 480 l 1
429 480 m 1
 490 480 l 1
 490 429 l 1
 429 429 l 1
 429 480 l 1
490 480 m 1
 490 531 l 1
 552 531 l 1
 552 480 l 1
 490 480 l 1
552 480 m 1
 613 480 l 1
 613 429 l 1
 552 429 l 1
 552 480 l 1
61 429 m 1
 61 378 l 1
 0 378 l 1
 0 429 l 1
 61 429 l 1
61 378 m 1
 123 378 l 1
 123 327 l 1
 61 327 l 1
 61 378 l 1
123 378 m 1
 123 429 l 1
 184 429 l 1
 184 378 l 1
 123 378 l 1
184 378 m 1
 245 378 l 1
 245 327 l 1
 184 327 l 1
 184 378 l 1
245 378 m 1
 245 429 l 1
 306 429 l 1
 306 378 l 1
 245 378 l 1
306 378 m 1
 368 378 l 1
 368 327 l 1
 306 327 l 1
 306 378 l 1
368 378 m 1
 368 429 l 1
 429 429 l 1
 429 378 l 1
 368 378 l 1
429 378 m 1
 490 378 l 1
 490 327 l 1
 429 327 l 1
 429 378 l 1
490 378 m 1
 490 429 l 1
 552 429 l 1
 552 378 l 1
 490 378 l 1
552 378 m 1
 613 378 l 1
 613 327 l 1
 552 327 l 1
 552 378 l 1
61 327 m 1
 61 276 l 1
 0 276 l 1
 0 327 l 1
 61 327 l 1
61 276 m 1
 123 276 l 1
 123 225 l 1
 61 225 l 1
 61 276 l 1
123 276 m 1
 123 327 l 1
 184 327 l 1
 184 276 l 1
 123 276 l 1
184 276 m 1
 245 276 l 1
 245 225 l 1
 184 225 l 1
 184 276 l 1
245 276 m 1
 245 327 l 1
 306 327 l 1
 306 276 l 1
 245 276 l 1
306 276 m 1
 368 276 l 1
 368 225 l 1
 306 225 l 1
 306 276 l 1
368 276 m 1
 368 327 l 1
 429 327 l 1
 429 276 l 1
 368 276 l 1
429 276 m 1
 490 276 l 1
 490 225 l 1
 429 225 l 1
 429 276 l 1
490 276 m 1
 490 327 l 1
 552 327 l 1
 552 276 l 1
 490 276 l 1
552 276 m 1
 613 276 l 1
 613 225 l 1
 552 225 l 1
 552 276 l 1
61 225 m 1
 61 174 l 1
 0 174 l 1
 0 225 l 1
 61 225 l 1
61 174 m 1
 123 174 l 1
 123 123 l 1
 61 123 l 1
 61 174 l 1
123 174 m 1
 123 225 l 1
 184 225 l 1
 184 174 l 1
 123 174 l 1
184 174 m 1
 245 174 l 1
 245 123 l 1
 184 123 l 1
 184 174 l 1
245 174 m 1
 245 225 l 1
 306 225 l 1
 306 174 l 1
 245 174 l 1
306 174 m 1
 368 174 l 1
 368 123 l 1
 306 123 l 1
 306 174 l 1
368 174 m 1
 368 225 l 1
 429 225 l 1
 429 174 l 1
 368 174 l 1
429 174 m 1
 490 174 l 1
 490 123 l 1
 429 123 l 1
 429 174 l 1
490 174 m 1
 490 225 l 1
 552 225 l 1
 552 174 l 1
 490 174 l 1
552 174 m 1
 613 174 l 1
 613 123 l 1
 552 123 l 1
 552 174 l 1
61 123 m 1
 61 72 l 1
 0 72 l 1
 0 123 l 1
 61 123 l 1
61 72 m 1
 123 72 l 1
 123 20 l 1
 61 20 l 1
 61 72 l 1
123 72 m 1
 123 123 l 1
 184 123 l 1
 184 72 l 1
 123 72 l 1
184 72 m 1
 245 72 l 1
 245 20 l 1
 184 20 l 1
 184 72 l 1
245 72 m 1
 245 123 l 1
 306 123 l 1
 306 72 l 1
 245 72 l 1
306 72 m 1
 368 72 l 1
 368 20 l 1
 306 20 l 1
 306 72 l 1
368 72 m 1
 368 123 l 1
 429 123 l 1
 429 72 l 1
 368 72 l 1
429 72 m 1
 490 72 l 1
 490 20 l 1
 429 20 l 1
 429 72 l 1
490 72 m 1
 490 123 l 1
 552 123 l 1
 552 72 l 1
 490 72 l 1
552 72 m 1
 613 72 l 1
 613 20 l 1
 552 20 l 1
 552 72 l 1
61 20 m 1
 61 -31 l 1
 0 -31 l 1
 0 20 l 1
 61 20 l 1
61 -31 m 1
 123 -31 l 1
 123 -82 l 1
 61 -82 l 1
 61 -31 l 1
123 -31 m 1
 123 20 l 1
 184 20 l 1
 184 -31 l 1
 123 -31 l 1
184 -31 m 1
 245 -31 l 1
 245 -82 l 1
 184 -82 l 1
 184 -31 l 1
245 -31 m 1
 245 20 l 1
 306 20 l 1
 306 -31 l 1
 245 -31 l 1
306 -31 m 1
 368 -31 l 1
 368 -82 l 1
 306 -82 l 1
 306 -31 l 1
368 -31 m 1
 368 20 l 1
 429 20 l 1
 429 -31 l 1
 368 -31 l 1
429 -31 m 1
 490 -31 l 1
 490 -82 l 1
 429 -82 l 1
 429 -31 l 1
490 -31 m 1
 490 20 l 1
 552 20 l 1
 552 -31 l 1
 490 -31 l 1
552 -31 m 1
 613 -31 l 1
 613 -82 l 1
 552 -82 l 1
 552 -31 l 1
61 -82 m 1
 61 -133 l 1
 0 -133 l 1
 0 -82 l 1
 61 -82 l 1
61 -133 m 1
 123 -133 l 1
 123 -184 l 1
 61 -184 l 1
 61 -133 l 1
123 -133 m 1
 123 -82 l 1
 184 -82 l 1
 184 -133 l 1
 123 -133 l 1
184 -133 m 1
 245 -133 l 1
 245 -184 l 1
 184 -184 l 1
 184 -133 l 1
245 -133 m 1
 245 -82 l 1
 306 -82 l 1
 306 -133 l 1
 245 -133 l 1
306 -133 m 1
 368 -133 l 1
 368 -184 l 1
 306 -184 l 1
 306 -133 l 1
368 -133 m 1
 368 -82 l 1
 429 -82 l 1
 429 -133 l 1
 368 -133 l 1
429 -133 m 1
 490 -133 l 1
 490 -184 l 1
 429 -184 l 1
 429 -133 l 1
490 -133 m 1
 490 -82 l 1
 552 -82 l 1
 552 -133 l 1
 490 -133 l 1
552 -133 m 1
 613 -133 l 1
 613 -184 l 1
 552 -184 l 1
 552 -133 l 1
EndSplineSet
EndChar

StartChar: dkshade
Encoding: 9619 9619 634
Width: 613
VWidth: 1046
Flags: W
LayerCount: 2
Fore
SplineSet
0 838 m 1
 61 838 l 1
 61 787 l 1
 123 787 l 1
 123 838 l 1
 184 838 l 1
 184 787 l 1
 245 787 l 1
 245 838 l 1
 306 838 l 1
 306 787 l 1
 368 787 l 1
 368 838 l 1
 429 838 l 1
 429 787 l 1
 490 787 l 1
 490 838 l 1
 552 838 l 1
 552 787 l 1
 613 787 l 1
 613 633 l 1
 552 633 l 1
 552 582 l 1
 613 582 l 1
 613 429 l 1
 552 429 l 1
 552 378 l 1
 613 378 l 1
 613 225 l 1
 552 225 l 1
 552 174 l 1
 613 174 l 1
 613 20 l 1
 552 20 l 1
 552 -31 l 1
 613 -31 l 1
 613 -184 l 1
 409 -184 204 -184 0 -184 c 1
 0 -133 l 1
 61 -133 l 1
 61 -82 l 1
 0 -82 l 1
 0 72 l 1
 61 72 l 1
 61 123 l 1
 0 123 l 1
 0 276 l 1
 61 276 l 1
 61 327 l 1
 0 327 l 1
 0 480 l 1
 61 480 l 1
 61 531 l 1
 0 531 l 1
 0 685 l 1
 61 685 l 1
 61 736 l 1
 0 736 l 1
 0 770 0 804 0 838 c 1
123 736 m 1
 123 685 l 1
 184 685 l 1
 184 736 l 1
 123 736 l 1
245 736 m 1
 245 685 l 1
 306 685 l 1
 306 736 l 1
 245 736 l 1
368 736 m 1
 368 685 l 1
 429 685 l 1
 429 736 l 1
 368 736 l 1
490 736 m 1
 490 685 l 1
 552 685 l 1
 552 736 l 1
 490 736 l 1
61 633 m 1
 61 582 l 1
 123 582 l 1
 123 633 l 1
 61 633 l 1
184 633 m 1
 184 582 l 1
 245 582 l 1
 245 633 l 1
 184 633 l 1
306 633 m 1
 306 582 l 1
 368 582 l 1
 368 633 l 1
 306 633 l 1
429 633 m 1
 429 582 l 1
 490 582 l 1
 490 633 l 1
 429 633 l 1
123 531 m 1
 123 480 l 1
 184 480 l 1
 184 531 l 1
 123 531 l 1
245 531 m 1
 245 480 l 1
 306 480 l 1
 306 531 l 1
 245 531 l 1
368 531 m 1
 368 480 l 1
 429 480 l 1
 429 531 l 1
 368 531 l 1
490 531 m 1
 490 480 l 1
 552 480 l 1
 552 531 l 1
 490 531 l 1
61 429 m 1
 61 378 l 1
 123 378 l 1
 123 429 l 1
 61 429 l 1
184 429 m 1
 184 378 l 1
 245 378 l 1
 245 429 l 1
 184 429 l 1
306 429 m 1
 306 378 l 1
 368 378 l 1
 368 429 l 1
 306 429 l 1
429 429 m 1
 429 378 l 1
 490 378 l 1
 490 429 l 1
 429 429 l 1
123 327 m 1
 123 276 l 1
 184 276 l 1
 184 327 l 1
 123 327 l 1
245 327 m 1
 245 276 l 1
 306 276 l 1
 306 327 l 1
 245 327 l 1
368 327 m 1
 368 276 l 1
 429 276 l 1
 429 327 l 1
 368 327 l 1
490 327 m 1
 490 276 l 1
 552 276 l 1
 552 327 l 1
 490 327 l 1
61 225 m 1
 61 174 l 1
 123 174 l 1
 123 225 l 1
 61 225 l 1
184 225 m 1
 184 174 l 1
 245 174 l 1
 245 225 l 1
 184 225 l 1
306 225 m 1
 306 174 l 1
 368 174 l 1
 368 225 l 1
 306 225 l 1
429 225 m 1
 429 174 l 1
 490 174 l 1
 490 225 l 1
 429 225 l 1
123 123 m 1
 123 72 l 1
 184 72 l 1
 184 123 l 1
 123 123 l 1
245 123 m 1
 245 72 l 1
 306 72 l 1
 306 123 l 1
 245 123 l 1
368 123 m 1
 368 72 l 1
 429 72 l 1
 429 123 l 1
 368 123 l 1
490 123 m 1
 490 72 l 1
 552 72 l 1
 552 123 l 1
 490 123 l 1
61 20 m 1
 61 -31 l 1
 123 -31 l 1
 123 20 l 1
 61 20 l 1
184 20 m 1
 184 -31 l 1
 245 -31 l 1
 245 20 l 1
 184 20 l 1
306 20 m 1
 306 -31 l 1
 368 -31 l 1
 368 20 l 1
 306 20 l 1
429 20 m 1
 429 -31 l 1
 490 -31 l 1
 490 20 l 1
 429 20 l 1
123 -82 m 1
 123 -133 l 1
 184 -133 l 1
 184 -82 l 1
 123 -82 l 1
245 -82 m 1
 245 -133 l 1
 306 -133 l 1
 306 -82 l 1
 245 -82 l 1
368 -82 m 1
 368 -133 l 1
 429 -133 l 1
 429 -82 l 1
 368 -82 l 1
490 -82 m 1
 490 -133 l 1
 552 -133 l 1
 552 -82 l 1
 490 -82 l 1
EndSplineSet
EndChar

StartChar: filledbox
Encoding: 9632 9632 635
Width: 613
VWidth: 1046
Flags: W
LayerCount: 2
Fore
SplineSet
82 552 m 25
 531 552 l 29
 531 102 l 29
 82 102 l 25
 82 552 l 25
EndSplineSet
EndChar

StartChar: H22073
Encoding: 9633 9633 636
Width: 613
VWidth: 1046
Flags: W
LayerCount: 2
Fore
SplineSet
82 552 m 25
 531 552 l 25
 531 102 l 25
 82 102 l 25
 82 552 l 25
153 480 m 25
 153 174 l 25
 460 174 l 25
 460 480 l 25
 153 480 l 25
EndSplineSet
EndChar

StartChar: H18543
Encoding: 9642 9642 637
Width: 613
VWidth: 1046
Flags: W
LayerCount: 2
Fore
SplineSet
143 490 m 25
 470 490 l 25
 470 163 l 25
 143 163 l 25
 143 490 l 25
EndSplineSet
EndChar

StartChar: H18551
Encoding: 9643 9643 638
Width: 613
VWidth: 1046
Flags: W
LayerCount: 2
Fore
SplineSet
143 490 m 25
 470 490 l 25
 470 163 l 25
 143 163 l 25
 143 490 l 25
215 419 m 25
 215 235 l 29
 398 235 l 29
 398 419 l 25
 215 419 l 25
EndSplineSet
EndChar

StartChar: triagup
Encoding: 9650 9650 639
Width: 613
VWidth: 1046
Flags: W
LayerCount: 2
Fore
SplineSet
306 552 m 1
 531 102 l 1
 82 102 l 1
 306 552 l 1
EndSplineSet
EndChar

StartChar: triagdn
Encoding: 9660 9660 640
Width: 613
VWidth: 1046
Flags: W
LayerCount: 2
Fore
SplineSet
82 552 m 1
 531 552 l 1
 306 102 l 1
 82 552 l 1
EndSplineSet
EndChar

StartChar: lozenge
Encoding: 9674 9674 641
Width: 613
VWidth: 1046
Flags: W
LayerCount: 2
Fore
SplineSet
306 654 m 25
 531 327 l 25
 306 0 l 25
 82 327 l 25
 306 654 l 25
306 562 m 25
 153 327 l 25
 306 92 l 25
 460 327 l 25
 306 562 l 25
EndSplineSet
EndChar

StartChar: circle
Encoding: 9675 9675 642
Width: 613
VWidth: 1046
Flags: W
LayerCount: 2
Fore
SplineSet
123 327 m 0
 123 225 204 143 306 143 c 0
 408 143 490 225 490 327 c 0
 490 429 408 511 306 511 c 0
 204 511 123 429 123 327 c 0
41 327 m 0
 41 474 159 593 306 593 c 0
 453 593 572 474 572 327 c 0
 572 180 453 61 306 61 c 0
 159 61 41 180 41 327 c 0
EndSplineSet
EndChar

StartChar: H18533
Encoding: 9679 9679 643
Width: 613
VWidth: 1046
Flags: W
LayerCount: 2
Fore
SplineSet
41 327 m 0
 41 474 159 593 306 593 c 0
 453 593 572 474 572 327 c 0
 572 180 453 61 306 61 c 0
 159 61 41 180 41 327 c 0
EndSplineSet
EndChar

StartChar: openbullet
Encoding: 9702 9702 644
Width: 613
VWidth: 1046
Flags: W
LayerCount: 2
Fore
SplineSet
313 429 m 0
 268 429 233 394 233 351 c 0
 233 308 268 273 313 273 c 0
 358 273 393 308 393 351 c 0
 393 394 358 429 313 429 c 0
313 501 m 0
 396 501 465 434 465 351 c 0
 465 268 396 201 313 201 c 0
 230 201 161 268 161 351 c 0
 161 434 230 501 313 501 c 0
EndSplineSet
EndChar

StartChar: female
Encoding: 9792 9792 645
Width: 613
VWidth: 1046
Flags: W
LayerCount: 2
Fore
SplineSet
94 533 m 0
 94 650 189 746 306 746 c 0
 423 746 519 650 519 533 c 0
 519 430 445 344 347 325 c 1
 347 225 l 1
 550 225 l 1
 550 152 l 1
 347 152 l 1
 347 0 l 1
 273 0 l 1
 273 152 l 1
 63 152 l 1
 63 225 l 1
 273 225 l 1
 273 323 l 1
 172 339 94 427 94 533 c 0
159 533 m 0
 159 452 225 386 306 386 c 0
 387 386 454 452 454 533 c 0
 454 614 387 680 306 680 c 0
 225 680 159 614 159 533 c 0
EndSplineSet
EndChar

StartChar: male
Encoding: 9794 9794 646
Width: 613
VWidth: 1046
Flags: W
LayerCount: 2
Fore
SplineSet
80 478 m 1
 301 758 l 1
 327 758 l 1
 532 476 l 1
 473 436 l 1
 347 607 l 1
 347 408 l 1
 445 389 519 302 519 199 c 0
 519 82 423 -13 306 -13 c 0
 189 -13 94 82 94 199 c 0
 94 303 170 390 269 408 c 1
 269 607 l 1
 131 436 l 1
 80 478 l 1
159 199 m 0
 159 118 225 52 306 52 c 0
 387 52 454 118 454 199 c 0
 454 280 387 346 306 346 c 0
 225 346 159 280 159 199 c 0
EndSplineSet
EndChar

StartChar: spade
Encoding: 9824 9824 647
Width: 613
VWidth: 1046
Flags: W
LayerCount: 2
Fore
SplineSet
26 391 m 0
 26 565 288 751 288 751 c 1
 297 751 l 1
 297 751 559 565 559 391 c 0
 559 323 558 312 530 262 c 0
 510 226 469 207 427 207 c 0
 426 207 426 207 425 207 c 0
 407 207 367 228 334 259 c 1
 334 67 l 1
 487 67 l 1
 487 -1 l 1
 106 -1 l 1
 106 68 l 1
 251 68 l 1
 251 261 l 1
 218 230 177 207 159 207 c 0
 158 207 158 207 157 207 c 0
 115 207 73 226 53 262 c 0
 25 312 26 323 26 391 c 0
EndSplineSet
EndChar

StartChar: club
Encoding: 9827 9827 648
Width: 613
VWidth: 1046
Flags: W
LayerCount: 2
Fore
SplineSet
560 358 m 0
 560 263 498 208 429 208 c 0
 393 208 359 223 334 249 c 1
 334 67 l 1
 487 67 l 1
 487 -1 l 1
 106 -1 l 1
 106 68 l 1
 251 68 l 1
 251 246 l 1
 227 221 196 208 162 208 c 0
 89 208 25 270 25 357 c 0
 25 446 89 509 163 509 c 0
 170 509 178 508 185 507 c 1
 169 531 160 561 160 594 c 0
 160 683 224 746 298 746 c 0
 364 746 427 694 427 595 c 0
 427 560 418 529 404 506 c 1
 413 508 422 509 431 509 c 0
 497 509 560 457 560 358 c 0
EndSplineSet
EndChar

StartChar: heart
Encoding: 9829 9829 649
Width: 613
VWidth: 1046
Flags: W
LayerCount: 2
Fore
SplineSet
559 471 m 8
 559 261 296 0 296 0 c 0
 287 0 l 0
 287 0 26 261 26 471 c 16
 26 539 26 592 47 643 c 0
 65 687 94 751 157 751 c 0
 158 751 158 751 159 751 c 0
 245 751 271 687 292 620 c 1
 313 685 339 751 425 751 c 0
 426 751 426 751 427 751 c 0
 499 751 527 688 541 643 c 0
 556 594 559 539 559 471 c 8
EndSplineSet
EndChar

StartChar: diamond
Encoding: 9830 9830 650
Width: 613
VWidth: 1046
Flags: W
LayerCount: 2
Fore
SplineSet
533 375 m 5
 297 -1 l 1
 288 -1 l 1
 65 375 l 5
 288 751 l 1
 297 751 l 1
 533 375 l 5
EndSplineSet
EndChar

StartChar: musicalnote
Encoding: 9834 9834 651
Width: 613
VWidth: 1046
Flags: W
LayerCount: 2
Fore
SplineSet
326 104 m 0
 298 28 218 -16 146 -16 c 0
 84 -16 41 16 41 66 c 0
 41 77 43 90 48 103 c 0
 74 174 158 225 235 225 c 0
 240 225 246 225 251 224 c 1
 251 668 l 1
 251 738 l 1
 288 739 l 1
 297 739 l 1
 297 739 551 561 551 394 c 0
 551 309 498 249 425 219 c 1
 425 294 l 1
 449 318 465 351 465 394 c 0
 465 471 383 551 334 592 c 1
 334 146 l 2
 334 133 332 120 326 104 c 0
EndSplineSet
EndChar

StartChar: afii10146
Encoding: 1122 1122 656
Width: 613
VWidth: 1046
Flags: W
LayerCount: 2
Fore
SplineSet
241 73 m 1
 305 73 l 2
 337 73 368 73 400 87 c 0
 451 110 479 160 479 213 c 0
 479 266 450 318 395 344 c 0
 358 361 321 363 284 363 c 2
 241 363 l 1
 241 73 l 1
241 553 m 1
 241 432 l 1
 265 432 l 2
 347 432 411 432 471 391 c 0
 531 350 566 290 566 204 c 0
 566 128 522 56 443 22 c 0
 392 0 341 0 291 0 c 2
 159 0 l 1
 159 553 l 1
 47 553 l 1
 47 616 l 1
 159 616 l 1
 159 738 l 1
 252 738 l 1
 252 737 253 735 253 734 c 0
 253 728 248 724 245 721 c 0
 241 717 241 714 241 710 c 2
 241 616 l 1
 447 616 l 1
 447 553 l 1
 241 553 l 1
EndSplineSet
EndChar

StartChar: afii10194
Encoding: 1123 1123 657
Width: 613
VWidth: 1046
Flags: W
LayerCount: 2
Fore
SplineSet
241 72 m 1
 281 72 l 2
 313 72 352 72 381 81 c 0
 428 95 451 125 451 156 c 0
 451 188 427 239 377 250 c 0
 343 258 298 258 261 258 c 2
 241 258 l 1
 241 72 l 1
159 467 m 1
 47 467 l 1
 47 541 l 1
 159 541 l 1
 159 700 l 1
 254 700 l 1
 256 693 250 689 248 687 c 0
 242 683 241 680 241 674 c 2
 241 541 l 1
 406 541 l 1
 406 467 l 1
 241 467 l 1
 241 328 l 1
 255 328 l 2
 369 328 426 320 461 294 c 0
 511 257 541 213 541 150 c 0
 541 94 487 35 427 16 c 0
 399 7 311 0 267 0 c 2
 159 0 l 1
 159 467 l 1
EndSplineSet
EndChar

StartChar: afii10195
Encoding: 1139 1139 659
Width: 613
VWidth: 1046
Flags: W
LayerCount: 2
Fore
SplineSet
555 268 m 4
 555 89 440 -14 312 -14 c 4
 176 -14 58 101 58 266 c 4
 58 433 176 553 314 553 c 4
 437 553 555 455 555 268 c 4
308 480 m 4
 225 480 148 407 148 274 c 4
 148 141 226 59 312 59 c 4
 391 59 469 128 469 264 c 4
 469 413 386 480 308 480 c 4
418 258 m 1
 202 258 l 1
 202 324 l 1
 418 324 l 1
 418 258 l 1
EndSplineSet
EndChar

StartChar: acute.cap.pl
Encoding: 65544 -1 662
Width: 613
VWidth: 1046
Flags: W
HStem: 641 159
VStem: 271 116
LayerCount: 2
Fore
SplineSet
293 799 m 4
 387 780 l 4
 326 641 l 4
 271 652 l 4
 293 799 l 4
EndSplineSet
EndChar

StartChar: acute.pl
Encoding: 65545 -1 663
Width: 613
VWidth: 1046
Flags: W
HStem: 632 212
VStem: 271 123
LayerCount: 2
Fore
SplineSet
307 844 m 0
 394 824 l 0
 339 632 l 0
 271 645 l 0
 307 844 l 0
EndSplineSet
EndChar

StartChar: uni2574
Encoding: 9588 9588 678
Width: 613
VWidth: 1046
Flags: MW
LayerCount: 2
Fore
SplineSet
346 289 m 1
 0 289 l 1
 0 367 l 1
 346 367 l 1
 346 289 l 1
EndSplineSet
EndChar

StartChar: uni2575
Encoding: 9589 9589 679
Width: 613
VWidth: 1046
Flags: MW
LayerCount: 2
Fore
SplineSet
346 289 m 1
 267 289 l 1
 267 838 l 1
 346 838 l 1
 346 289 l 1
EndSplineSet
EndChar

StartChar: uni2576
Encoding: 9590 9590 680
Width: 613
VWidth: 1046
Flags: MW
LayerCount: 2
Fore
SplineSet
267 289 m 1
 267 367 l 1
 613 367 l 1
 613 289 l 1
 267 289 l 1
EndSplineSet
EndChar

StartChar: uni2577
Encoding: 9591 9591 681
Width: 613
VWidth: 1046
Flags: MW
LayerCount: 2
Fore
SplineSet
346 367 m 1
 346 -184 l 1
 267 -184 l 1
 267 367 l 1
 346 367 l 1
EndSplineSet
EndChar

StartChar: uni2501
Encoding: 9473 9473 682
Width: 613
VWidth: 1046
Flags: MW
LayerCount: 2
Fore
SplineSet
0 408 m 1
 613 408 l 1
 613 248 l 1
 0 248 l 1
 0 408 l 1
EndSplineSet
EndChar

StartChar: uni2503
Encoding: 9475 9475 683
Width: 613
VWidth: 1046
Flags: MW
LayerCount: 2
Fore
SplineSet
387 838 m 1
 387 -184 l 1
 226 -184 l 1
 226 838 l 1
 387 838 l 1
EndSplineSet
EndChar

StartChar: uni250D
Encoding: 9485 9485 684
Width: 613
VWidth: 1046
Flags: MW
LayerCount: 2
Fore
SplineSet
267 -184 m 1
 267 408 l 1
 613 408 l 1
 613 248 l 1
 346 248 l 1
 346 -184 l 1
 267 -184 l 1
EndSplineSet
EndChar

StartChar: uni250E
Encoding: 9486 9486 685
Width: 613
VWidth: 1046
Flags: MW
LayerCount: 2
Fore
SplineSet
226 367 m 1
 613 367 l 1
 613 289 l 1
 387 289 l 1
 387 -184 l 1
 226 -184 l 1
 226 367 l 1
EndSplineSet
EndChar

StartChar: uni250F
Encoding: 9487 9487 686
Width: 613
VWidth: 1046
Flags: MW
LayerCount: 2
Fore
SplineSet
226 -184 m 1
 226 408 l 1
 613 408 l 1
 613 248 l 1
 387 248 l 1
 387 -184 l 1
 226 -184 l 1
EndSplineSet
EndChar

StartChar: uni2511
Encoding: 9489 9489 687
Width: 613
VWidth: 1046
Flags: MW
LayerCount: 2
Fore
SplineSet
267 248 m 1
 0 248 l 1
 0 408 l 1
 346 408 l 1
 346 -184 l 1
 267 -184 l 1
 267 248 l 1
EndSplineSet
EndChar

StartChar: uni2512
Encoding: 9490 9490 688
Width: 613
VWidth: 1046
Flags: MW
LayerCount: 2
Fore
SplineSet
387 367 m 1
 387 -184 l 1
 226 -184 l 1
 226 289 l 1
 0 289 l 1
 0 367 l 1
 387 367 l 1
EndSplineSet
EndChar

StartChar: uni2513
Encoding: 9491 9491 689
Width: 613
VWidth: 1046
Flags: MW
LayerCount: 2
Fore
SplineSet
226 248 m 1
 0 248 l 1
 0 408 l 1
 387 408 l 1
 387 -184 l 1
 226 -184 l 1
 226 248 l 1
EndSplineSet
EndChar

StartChar: uni2515
Encoding: 9493 9493 690
Width: 613
VWidth: 1046
Flags: MW
LayerCount: 2
Fore
SplineSet
346 408 m 1
 613 408 l 1
 613 248 l 1
 267 248 l 1
 267 838 l 1
 346 838 l 1
 346 408 l 1
EndSplineSet
EndChar

StartChar: uni2516
Encoding: 9494 9494 691
Width: 613
VWidth: 1046
Flags: MW
LayerCount: 2
Fore
SplineSet
613 289 m 1
 226 289 l 1
 226 838 l 1
 387 838 l 1
 387 367 l 1
 613 367 l 1
 613 289 l 1
EndSplineSet
EndChar

StartChar: uni2517
Encoding: 9495 9495 692
Width: 613
VWidth: 1046
Flags: MW
LayerCount: 2
Fore
SplineSet
613 248 m 1
 226 248 l 1
 226 838 l 1
 387 838 l 1
 387 408 l 1
 613 408 l 1
 613 248 l 1
EndSplineSet
EndChar

StartChar: uni2519
Encoding: 9497 9497 693
Width: 613
VWidth: 1046
Flags: MW
LayerCount: 2
Fore
SplineSet
346 248 m 1
 0 248 l 1
 0 408 l 1
 267 408 l 1
 267 838 l 1
 346 838 l 1
 346 248 l 1
EndSplineSet
EndChar

StartChar: uni251A
Encoding: 9498 9498 694
Width: 613
VWidth: 1046
Flags: MW
LayerCount: 2
Fore
SplineSet
226 367 m 1
 226 838 l 1
 387 838 l 1
 387 289 l 1
 0 289 l 1
 0 367 l 1
 226 367 l 1
EndSplineSet
EndChar

StartChar: uni251B
Encoding: 9499 9499 695
Width: 613
VWidth: 1046
Flags: MW
LayerCount: 2
Fore
SplineSet
387 248 m 1
 0 248 l 1
 0 408 l 1
 226 408 l 1
 226 838 l 1
 387 838 l 1
 387 248 l 1
EndSplineSet
EndChar

StartChar: uni2578
Encoding: 9592 9592 696
Width: 613
VWidth: 1046
Flags: MW
LayerCount: 2
Fore
SplineSet
346 248 m 1
 0 248 l 1
 0 408 l 1
 346 408 l 1
 346 248 l 1
EndSplineSet
EndChar

StartChar: uni2579
Encoding: 9593 9593 697
Width: 613
VWidth: 1046
Flags: MW
LayerCount: 2
Fore
SplineSet
387 289 m 1
 226 289 l 1
 226 838 l 1
 387 838 l 1
 387 289 l 1
EndSplineSet
EndChar

StartChar: uni257A
Encoding: 9594 9594 698
Width: 613
VWidth: 1046
Flags: MW
LayerCount: 2
Fore
SplineSet
267 248 m 1
 267 408 l 1
 613 408 l 1
 613 248 l 1
 267 248 l 1
EndSplineSet
EndChar

StartChar: uni257B
Encoding: 9595 9595 699
Width: 613
VWidth: 1046
Flags: MW
LayerCount: 2
Fore
SplineSet
387 367 m 1
 387 -184 l 1
 226 -184 l 1
 226 367 l 1
 387 367 l 1
EndSplineSet
EndChar

StartChar: uni251D
Encoding: 9501 9501 700
Width: 613
VWidth: 1046
Flags: MW
LayerCount: 2
Fore
SplineSet
346 408 m 1
 613 408 l 1
 613 248 l 1
 346 248 l 1
 346 -184 l 1
 267 -184 l 1
 267 838 l 1
 346 838 l 1
 346 408 l 1
EndSplineSet
EndChar

StartChar: uni251E
Encoding: 9502 9502 701
Width: 613
VWidth: 1046
Flags: MW
LayerCount: 2
Fore
SplineSet
613 289 m 1
 524 289 435 289 346 289 c 1
 346 -184 l 1
 267 -184 l 1
 267 289 l 1
 226 289 l 1
 226 838 l 1
 387 838 l 1
 387 367 l 1
 613 367 l 1
 613 289 l 1
EndSplineSet
EndChar

StartChar: uni251F
Encoding: 9503 9503 702
Width: 613
VWidth: 1046
Flags: MW
LayerCount: 2
Fore
SplineSet
267 367 m 1
 267 838 l 1
 346 838 l 1
 346 367 l 1
 435 367 524 367 613 367 c 1
 613 289 l 1
 387 289 l 1
 387 -184 l 1
 226 -184 l 1
 226 367 l 1
 267 367 l 1
EndSplineSet
EndChar

StartChar: uni2520
Encoding: 9504 9504 703
Width: 613
VWidth: 1046
Flags: MW
LayerCount: 2
Fore
SplineSet
226 -184 m 1
 226 838 l 1
 387 838 l 1
 387 367 l 1
 613 367 l 1
 613 289 l 1
 387 289 l 1
 387 -184 l 1
 226 -184 l 1
EndSplineSet
EndChar

StartChar: uni2521
Encoding: 9505 9505 704
Width: 613
VWidth: 1046
Flags: MW
LayerCount: 2
Fore
SplineSet
346 248 m 1
 346 -184 l 1
 267 -184 l 1
 267 248 l 1
 226 248 l 1
 226 838 l 1
 387 838 l 1
 387 408 l 1
 613 408 l 1
 613 248 l 1
 346 248 l 1
EndSplineSet
EndChar

StartChar: uni2522
Encoding: 9506 9506 705
Width: 613
VWidth: 1046
Flags: MW
LayerCount: 2
Fore
SplineSet
226 -184 m 1
 226 408 l 1
 267 408 l 1
 267 838 l 1
 346 838 l 1
 346 408 l 1
 613 408 l 1
 613 248 l 1
 387 248 l 1
 387 -184 l 1
 226 -184 l 1
EndSplineSet
EndChar

StartChar: uni2523
Encoding: 9507 9507 706
Width: 613
VWidth: 1046
Flags: MW
LayerCount: 2
Fore
SplineSet
387 408 m 1
 613 408 l 1
 613 248 l 1
 387 248 l 1
 387 -184 l 1
 226 -184 l 1
 226 838 l 1
 387 838 l 1
 387 408 l 1
EndSplineSet
EndChar

StartChar: uni2525
Encoding: 9509 9509 707
Width: 613
VWidth: 1046
Flags: MW
LayerCount: 2
Fore
SplineSet
346 838 m 1
 346 -184 l 1
 267 -184 l 1
 267 248 l 1
 0 248 l 1
 0 408 l 1
 267 408 l 1
 267 838 l 1
 346 838 l 1
EndSplineSet
EndChar

StartChar: uni2526
Encoding: 9510 9510 708
Width: 613
VWidth: 1046
Flags: MW
LayerCount: 2
Fore
SplineSet
226 367 m 1
 226 838 l 1
 387 838 l 1
 387 289 l 1
 346 289 l 1
 346 -184 l 1
 267 -184 l 1
 267 289 l 1
 178 289 89 289 0 289 c 1
 0 367 l 1
 226 367 l 1
EndSplineSet
EndChar

StartChar: uni2527
Encoding: 9511 9511 709
Width: 613
VWidth: 1046
Flags: MW
LayerCount: 2
Fore
SplineSet
387 367 m 1
 387 -184 l 1
 226 -184 l 1
 226 289 l 1
 0 289 l 1
 0 367 l 1
 89 367 178 367 267 367 c 1
 267 838 l 1
 346 838 l 1
 346 367 l 1
 387 367 l 1
EndSplineSet
EndChar

StartChar: uni2528
Encoding: 9512 9512 710
Width: 613
VWidth: 1046
Flags: MW
LayerCount: 2
Fore
SplineSet
226 289 m 1
 0 289 l 1
 0 367 l 1
 226 367 l 1
 226 838 l 1
 387 838 l 1
 387 -184 l 1
 226 -184 l 1
 226 289 l 1
EndSplineSet
EndChar

StartChar: uni2529
Encoding: 9513 9513 711
Width: 613
VWidth: 1046
Flags: MW
LayerCount: 2
Fore
SplineSet
346 248 m 1
 346 -184 l 1
 267 -184 l 1
 267 248 l 1
 0 248 l 1
 0 408 l 1
 226 408 l 1
 226 838 l 1
 387 838 l 1
 387 248 l 1
 346 248 l 1
EndSplineSet
EndChar

StartChar: uni252A
Encoding: 9514 9514 712
Width: 613
VWidth: 1046
Flags: MW
LayerCount: 2
Fore
SplineSet
226 248 m 1
 0 248 l 1
 0 408 l 1
 267 408 l 1
 267 838 l 1
 346 838 l 1
 346 408 l 1
 387 408 l 1
 387 -184 l 1
 226 -184 l 1
 226 248 l 1
EndSplineSet
EndChar

StartChar: uni252B
Encoding: 9515 9515 713
Width: 613
VWidth: 1046
Flags: MW
LayerCount: 2
Fore
SplineSet
226 408 m 1
 226 838 l 1
 387 838 l 1
 387 -184 l 1
 226 -184 l 1
 226 248 l 1
 0 248 l 1
 0 408 l 1
 226 408 l 1
EndSplineSet
EndChar

StartChar: uni252D
Encoding: 9517 9517 714
Width: 613
VWidth: 1046
Flags: MW
LayerCount: 2
Fore
SplineSet
267 248 m 1
 0 248 l 1
 0 408 l 1
 346 408 l 1
 346 367 l 1
 613 367 l 1
 613 289 l 1
 346 289 l 1
 346 131 346 -26 346 -184 c 1
 267 -184 l 1
 267 248 l 1
EndSplineSet
EndChar

StartChar: uni252E
Encoding: 9518 9518 715
Width: 613
VWidth: 1046
Flags: MW
LayerCount: 2
Fore
SplineSet
267 -184 m 1
 267 -26 267 131 267 289 c 1
 0 289 l 1
 0 367 l 1
 267 367 l 1
 267 408 l 1
 613 408 l 1
 613 248 l 1
 346 248 l 1
 346 -184 l 1
 267 -184 l 1
EndSplineSet
EndChar

StartChar: uni252F
Encoding: 9519 9519 716
Width: 613
VWidth: 1046
Flags: MW
LayerCount: 2
Fore
SplineSet
0 408 m 1
 613 408 l 1
 613 248 l 1
 346 248 l 1
 346 -184 l 1
 267 -184 l 1
 267 248 l 1
 0 248 l 1
 0 408 l 1
EndSplineSet
EndChar

StartChar: uni2530
Encoding: 9520 9520 717
Width: 613
VWidth: 1046
Flags: MW
LayerCount: 2
Fore
SplineSet
0 367 m 1
 613 367 l 1
 613 289 l 1
 387 289 l 1
 387 -184 l 1
 226 -184 l 1
 226 289 l 1
 0 289 l 1
 0 367 l 1
EndSplineSet
EndChar

StartChar: uni2531
Encoding: 9521 9521 718
Width: 613
VWidth: 1046
Flags: MW
LayerCount: 2
Fore
SplineSet
226 248 m 1
 0 248 l 1
 0 408 l 1
 387 408 l 1
 387 367 l 1
 613 367 l 1
 613 289 l 1
 387 289 l 1
 387 -184 l 1
 226 -184 l 1
 226 248 l 1
EndSplineSet
EndChar

StartChar: uni2532
Encoding: 9522 9522 719
Width: 613
VWidth: 1046
Flags: MW
LayerCount: 2
Fore
SplineSet
226 289 m 1
 0 289 l 1
 0 367 l 1
 226 367 l 1
 226 408 l 1
 613 408 l 1
 613 248 l 1
 387 248 l 1
 387 -184 l 1
 226 -184 l 1
 226 289 l 1
EndSplineSet
EndChar

StartChar: uni2533
Encoding: 9523 9523 720
Width: 613
VWidth: 1046
Flags: MW
LayerCount: 2
Fore
SplineSet
0 408 m 1
 613 408 l 1
 613 248 l 1
 387 248 l 1
 387 -184 l 1
 226 -184 l 1
 226 248 l 1
 0 248 l 1
 0 408 l 1
EndSplineSet
EndChar

StartChar: uni2535
Encoding: 9525 9525 721
Width: 613
VWidth: 1046
Flags: MW
LayerCount: 2
Fore
SplineSet
346 248 m 1
 0 248 l 1
 0 408 l 1
 267 408 l 1
 267 838 l 1
 346 838 l 1
 346 681 346 524 346 367 c 1
 613 367 l 1
 613 289 l 1
 346 289 l 1
 346 248 l 1
EndSplineSet
EndChar

StartChar: uni2536
Encoding: 9526 9526 722
Width: 613
VWidth: 1046
Flags: MW
LayerCount: 2
Fore
SplineSet
346 408 m 1
 613 408 l 1
 613 248 l 1
 267 248 l 1
 267 289 l 1
 0 289 l 1
 0 367 l 1
 267 367 l 1
 267 524 267 681 267 838 c 1
 346 838 l 1
 346 408 l 1
EndSplineSet
EndChar

StartChar: uni2537
Encoding: 9527 9527 723
Width: 613
VWidth: 1046
Flags: MW
LayerCount: 2
Fore
SplineSet
613 248 m 1
 0 248 l 1
 0 408 l 1
 267 408 l 1
 267 838 l 1
 346 838 l 1
 346 408 l 1
 613 408 l 1
 613 248 l 1
EndSplineSet
EndChar

StartChar: uni2538
Encoding: 9528 9528 724
Width: 613
VWidth: 1046
Flags: MW
LayerCount: 2
Fore
SplineSet
226 367 m 1
 226 838 l 1
 387 838 l 1
 387 367 l 1
 613 367 l 1
 613 289 l 1
 0 289 l 1
 0 367 l 1
 226 367 l 1
EndSplineSet
EndChar

StartChar: uni2539
Encoding: 9529 9529 725
Width: 613
VWidth: 1046
Flags: MW
LayerCount: 2
Fore
SplineSet
387 248 m 1
 0 248 l 1
 0 408 l 1
 226 408 l 1
 226 838 l 1
 387 838 l 1
 387 367 l 1
 613 367 l 1
 613 289 l 1
 387 289 l 1
 387 248 l 1
EndSplineSet
EndChar

StartChar: uni253A
Encoding: 9530 9530 726
Width: 613
VWidth: 1046
Flags: MW
LayerCount: 2
Fore
SplineSet
613 248 m 1
 226 248 l 1
 226 289 l 1
 0 289 l 1
 0 367 l 1
 226 367 l 1
 226 838 l 1
 387 838 l 1
 387 408 l 1
 613 408 l 1
 613 248 l 1
EndSplineSet
EndChar

StartChar: uni253B
Encoding: 9531 9531 727
Width: 613
VWidth: 1046
Flags: MW
LayerCount: 2
Fore
SplineSet
226 408 m 1
 226 838 l 1
 387 838 l 1
 387 408 l 1
 613 408 l 1
 613 248 l 1
 0 248 l 1
 0 408 l 1
 226 408 l 1
EndSplineSet
EndChar

StartChar: uni253D
Encoding: 9533 9533 728
Width: 613
VWidth: 1046
Flags: MW
LayerCount: 2
Fore
SplineSet
346 838 m 1
 346 681 346 524 346 367 c 1
 613 367 l 1
 613 289 l 1
 346 289 l 1
 346 131 346 -26 346 -184 c 1
 267 -184 l 1
 267 248 l 1
 0 248 l 1
 0 408 l 1
 267 408 l 1
 267 838 l 1
 346 838 l 1
EndSplineSet
EndChar

StartChar: uni253E
Encoding: 9534 9534 729
Width: 613
VWidth: 1046
Flags: MW
LayerCount: 2
Fore
SplineSet
346 408 m 1
 613 408 l 1
 613 248 l 1
 346 248 l 1
 346 -184 l 1
 267 -184 l 1
 267 -26 267 131 267 289 c 1
 0 289 l 1
 0 367 l 1
 267 367 l 1
 267 524 267 681 267 838 c 1
 346 838 l 1
 346 408 l 1
EndSplineSet
EndChar

StartChar: uni253F
Encoding: 9535 9535 730
Width: 613
VWidth: 1046
Flags: MW
LayerCount: 2
Fore
SplineSet
346 408 m 1
 613 408 l 1
 613 248 l 1
 346 248 l 1
 346 -184 l 1
 267 -184 l 1
 267 838 l 1
 346 838 l 1
 346 408 l 1
EndSplineSet
EndChar

StartChar: uni2540
Encoding: 9536 9536 731
Width: 613
VWidth: 1046
Flags: MW
LayerCount: 2
Fore
SplineSet
226 367 m 1
 226 838 l 1
 387 838 l 1
 387 367 l 1
 613 367 l 1
 613 289 l 1
 524 289 435 289 346 289 c 1
 346 -184 l 1
 267 -184 l 1
 267 289 l 1
 178 289 89 289 0 289 c 1
 0 367 l 1
 226 367 l 1
EndSplineSet
EndChar

StartChar: uni2541
Encoding: 9537 9537 732
Width: 613
VWidth: 1046
Flags: MW
LayerCount: 2
Fore
SplineSet
267 367 m 1
 267 838 l 1
 346 838 l 1
 346 367 l 1
 435 367 524 367 613 367 c 1
 613 289 l 1
 387 289 l 1
 387 -184 l 1
 226 -184 l 1
 226 289 l 1
 0 289 l 1
 0 367 l 1
 89 367 178 367 267 367 c 1
EndSplineSet
EndChar

StartChar: uni2542
Encoding: 9538 9538 733
Width: 613
VWidth: 1046
Flags: MW
LayerCount: 2
Fore
SplineSet
226 289 m 1
 0 289 l 1
 0 367 l 1
 226 367 l 1
 226 838 l 1
 387 838 l 1
 387 367 l 1
 613 367 l 1
 613 289 l 1
 387 289 l 1
 387 -184 l 1
 226 -184 l 1
 226 289 l 1
EndSplineSet
EndChar

StartChar: uni2543
Encoding: 9539 9539 734
Width: 613
VWidth: 1046
Flags: MW
LayerCount: 2
Fore
SplineSet
226 408 m 1
 226 838 l 1
 387 838 l 1
 387 367 l 1
 613 367 l 1
 613 289 l 1
 524 289 435 289 346 289 c 1
 346 131 346 -26 346 -184 c 1
 267 -184 l 1
 267 248 l 1
 0 248 l 1
 0 408 l 1
 226 408 l 1
EndSplineSet
EndChar

StartChar: uni2544
Encoding: 9540 9540 735
Width: 613
VWidth: 1046
Flags: MW
LayerCount: 2
Fore
SplineSet
226 367 m 1
 226 838 l 1
 387 838 l 1
 387 408 l 1
 613 408 l 1
 613 248 l 1
 346 248 l 1
 346 -184 l 1
 267 -184 l 1
 267 -26 267 131 267 289 c 1
 178 289 89 289 0 289 c 1
 0 367 l 1
 226 367 l 1
EndSplineSet
EndChar

StartChar: uni2545
Encoding: 9541 9541 736
Width: 613
VWidth: 1046
Flags: MW
LayerCount: 2
Fore
SplineSet
346 838 m 1
 346 681 346 524 346 367 c 1
 435 367 524 367 613 367 c 1
 613 289 l 1
 387 289 l 1
 387 -184 l 1
 226 -184 l 1
 226 248 l 1
 0 248 l 1
 0 408 l 1
 267 408 l 1
 267 838 l 1
 346 838 l 1
EndSplineSet
EndChar

StartChar: uni2546
Encoding: 9542 9542 737
Width: 613
VWidth: 1046
Flags: MW
LayerCount: 2
Fore
SplineSet
346 408 m 1
 613 408 l 1
 613 248 l 1
 387 248 l 1
 387 -184 l 1
 226 -184 l 1
 226 289 l 1
 0 289 l 1
 0 367 l 1
 89 367 178 367 267 367 c 1
 267 524 267 681 267 838 c 1
 346 838 l 1
 346 408 l 1
EndSplineSet
EndChar

StartChar: uni2547
Encoding: 9543 9543 738
Width: 613
VWidth: 1046
Flags: MW
LayerCount: 2
Fore
SplineSet
226 408 m 1
 226 838 l 1
 387 838 l 1
 387 408 l 1
 613 408 l 1
 613 248 l 1
 346 248 l 1
 346 -184 l 1
 267 -184 l 1
 267 248 l 1
 0 248 l 1
 0 408 l 1
 226 408 l 1
EndSplineSet
EndChar

StartChar: uni2548
Encoding: 9544 9544 739
Width: 613
VWidth: 1046
Flags: MW
LayerCount: 2
Fore
SplineSet
346 408 m 1
 613 408 l 1
 613 248 l 1
 387 248 l 1
 387 -184 l 1
 226 -184 l 1
 226 248 l 1
 0 248 l 1
 0 408 l 1
 267 408 l 1
 267 838 l 1
 346 838 l 1
 346 408 l 1
EndSplineSet
EndChar

StartChar: uni2549
Encoding: 9545 9545 740
Width: 613
VWidth: 1046
Flags: MW
LayerCount: 2
Fore
SplineSet
226 408 m 1
 226 838 l 1
 387 838 l 1
 387 367 l 1
 613 367 l 1
 613 289 l 1
 387 289 l 1
 387 -184 l 1
 226 -184 l 1
 226 248 l 1
 0 248 l 1
 0 408 l 1
 226 408 l 1
EndSplineSet
EndChar

StartChar: uni254A
Encoding: 9546 9546 741
Width: 613
VWidth: 1046
Flags: MW
LayerCount: 2
Fore
SplineSet
387 408 m 1
 613 408 l 1
 613 248 l 1
 387 248 l 1
 387 -184 l 1
 226 -184 l 1
 226 289 l 1
 0 289 l 1
 0 367 l 1
 226 367 l 1
 226 838 l 1
 387 838 l 1
 387 408 l 1
EndSplineSet
EndChar

StartChar: uni254B
Encoding: 9547 9547 742
Width: 613
VWidth: 1046
Flags: MW
LayerCount: 2
Fore
SplineSet
226 408 m 1
 226 838 l 1
 387 838 l 1
 387 408 l 1
 613 408 l 1
 613 248 l 1
 387 248 l 1
 387 -184 l 1
 226 -184 l 1
 226 248 l 1
 0 248 l 1
 0 408 l 1
 226 408 l 1
EndSplineSet
EndChar

StartChar: uni254C
Encoding: 9548 9548 743
Width: 613
VWidth: 1046
Flags: MW
LayerCount: 2
Fore
SplineSet
562 289 m 1
 358 289 l 1
 358 367 l 1
 562 367 l 1
 562 289 l 1
255 289 m 1
 51 289 l 1
 51 367 l 1
 255 367 l 1
 255 289 l 1
EndSplineSet
EndChar

StartChar: uni254D
Encoding: 9549 9549 744
Width: 613
VWidth: 1046
Flags: MW
LayerCount: 2
Fore
SplineSet
562 248 m 1
 358 248 l 1
 358 408 l 1
 562 408 l 1
 562 248 l 1
255 248 m 1
 51 248 l 1
 51 408 l 1
 255 408 l 1
 255 248 l 1
EndSplineSet
EndChar

StartChar: uni254E
Encoding: 9550 9550 745
Width: 613
VWidth: 1046
Flags: MW
LayerCount: 2
Fore
SplineSet
346 276 m 0
 346 -133 l 0
 267 -133 l 0
 267 276 l 0
 346 276 l 0
346 787 m 0
 346 378 l 0
 267 378 l 0
 267 787 l 0
 346 787 l 0
EndSplineSet
EndChar

StartChar: uni254F
Encoding: 9551 9551 746
Width: 613
VWidth: 1046
Flags: MW
LayerCount: 2
Fore
SplineSet
387 276 m 1
 387 -133 l 1
 226 -133 l 1
 226 276 l 1
 387 276 l 1
387 787 m 1
 387 378 l 1
 226 378 l 1
 226 787 l 1
 387 787 l 1
EndSplineSet
EndChar

StartChar: uni2504
Encoding: 9476 9476 747
Width: 613
VWidth: 1046
Flags: MW
LayerCount: 2
Fore
SplineSet
450 367 m 0
 572 367 l 0
 572 289 l 0
 450 289 l 0
 450 367 l 0
245 367 m 0
 368 367 l 0
 368 289 l 0
 245 289 l 0
 245 367 l 0
41 367 m 0
 163 367 l 0
 163 289 l 0
 41 289 l 0
 41 367 l 0
EndSplineSet
EndChar

StartChar: uni2505
Encoding: 9477 9477 748
Width: 613
VWidth: 1046
Flags: MW
LayerCount: 2
Fore
SplineSet
450 408 m 1
 572 408 l 1
 572 248 l 1
 450 248 l 1
 450 408 l 1
245 408 m 1
 368 408 l 1
 368 248 l 1
 245 248 l 1
 245 408 l 1
41 408 m 1
 163 408 l 1
 163 248 l 1
 41 248 l 1
 41 408 l 1
EndSplineSet
EndChar

StartChar: uni2506
Encoding: 9478 9478 749
Width: 613
VWidth: 1046
Flags: MW
LayerCount: 2
Fore
SplineSet
346 106 m 0
 346 -133 l 0
 267 -133 l 0
 267 106 l 0
 346 106 l 0
346 446 m 0
 346 208 l 0
 267 208 l 0
 267 446 l 0
 346 446 l 0
346 787 m 0
 346 548 l 0
 267 548 l 0
 267 787 l 0
 346 787 l 0
EndSplineSet
EndChar

StartChar: uni2507
Encoding: 9479 9479 750
Width: 613
VWidth: 1046
Flags: MW
LayerCount: 2
Fore
SplineSet
387 106 m 1
 387 -133 l 1
 226 -133 l 1
 226 106 l 1
 387 106 l 1
387 446 m 1
 387 208 l 1
 226 208 l 1
 226 446 l 1
 387 446 l 1
387 787 m 1
 387 548 l 1
 226 548 l 1
 226 787 l 1
 387 787 l 1
EndSplineSet
EndChar

StartChar: uni2508
Encoding: 9480 9480 751
Width: 613
VWidth: 1046
Flags: MW
LayerCount: 2
Fore
SplineSet
582 289 m 1
 490 289 l 1
 490 367 l 1
 582 367 l 1
 582 289 l 1
429 289 m 1
 337 289 l 1
 337 367 l 1
 429 367 l 1
 429 289 l 1
276 289 m 1
 184 289 l 1
 184 367 l 1
 276 367 l 1
 276 289 l 1
123 289 m 1
 31 289 l 1
 31 367 l 1
 123 367 l 1
 123 289 l 1
EndSplineSet
EndChar

StartChar: uni2509
Encoding: 9481 9481 752
Width: 613
VWidth: 1046
Flags: MW
LayerCount: 2
Fore
SplineSet
582 248 m 1
 490 248 l 1
 490 408 l 1
 582 408 l 1
 582 248 l 1
429 248 m 1
 337 248 l 1
 337 408 l 1
 429 408 l 1
 429 248 l 1
276 248 m 1
 184 248 l 1
 184 408 l 1
 276 408 l 1
 276 248 l 1
123 248 m 1
 31 248 l 1
 31 408 l 1
 123 408 l 1
 123 248 l 1
EndSplineSet
EndChar

StartChar: uni250A
Encoding: 9482 9482 753
Width: 613
VWidth: 1046
Flags: MW
LayerCount: 2
Fore
SplineSet
346 20 m 0
 346 -133 l 0
 267 -133 l 0
 267 20 l 0
 346 20 l 0
346 276 m 0
 346 123 l 0
 267 123 l 0
 267 276 l 0
 346 276 l 0
346 531 m 0
 346 378 l 0
 267 378 l 0
 267 531 l 0
 346 531 l 0
346 787 m 0
 346 633 l 0
 267 633 l 0
 267 787 l 0
 346 787 l 0
EndSplineSet
EndChar

StartChar: uni250B
Encoding: 9483 9483 754
Width: 613
VWidth: 1046
Flags: MW
LayerCount: 2
Fore
SplineSet
387 20 m 1
 387 -133 l 1
 226 -133 l 1
 226 20 l 1
 387 20 l 1
387 276 m 1
 387 123 l 1
 226 123 l 1
 226 276 l 1
 387 276 l 1
387 531 m 1
 387 378 l 1
 226 378 l 1
 226 531 l 1
 387 531 l 1
387 787 m 1
 387 633 l 1
 226 633 l 1
 226 787 l 1
 387 787 l 1
EndSplineSet
EndChar

StartChar: uni257C
Encoding: 9596 9596 755
Width: 613
VWidth: 1046
Flags: MW
LayerCount: 2
Fore
SplineSet
267 367 m 1
 267 408 l 1
 613 408 l 1
 613 248 l 1
 267 248 l 1
 267 289 l 1
 0 289 l 1
 0 367 l 1
 267 367 l 1
EndSplineSet
EndChar

StartChar: uni257D
Encoding: 9597 9597 756
Width: 613
VWidth: 1046
Flags: MW
LayerCount: 2
Fore
SplineSet
387 367 m 1
 387 -184 l 1
 226 -184 l 1
 226 367 l 1
 267 367 l 1
 267 838 l 1
 346 838 l 1
 346 367 l 1
 387 367 l 1
EndSplineSet
EndChar

StartChar: uni257E
Encoding: 9598 9598 757
Width: 613
VWidth: 1046
Flags: MW
LayerCount: 2
Fore
SplineSet
346 248 m 1
 0 248 l 1
 0 408 l 1
 346 408 l 1
 346 367 l 1
 613 367 l 1
 613 289 l 1
 346 289 l 1
 346 248 l 1
EndSplineSet
EndChar

StartChar: uni257F
Encoding: 9599 9599 758
Width: 613
VWidth: 1046
Flags: MW
LayerCount: 2
Fore
SplineSet
267 289 m 1
 226 289 l 1
 226 838 l 1
 387 838 l 1
 387 289 l 1
 346 289 l 1
 346 -184 l 1
 267 -184 l 1
 267 289 l 1
EndSplineSet
EndChar

StartChar: uni256D
Encoding: 9581 9581 759
Width: 613
VWidth: 1046
Flags: MW
LayerCount: 2
Fore
SplineSet
267 -82 m 0
 267 165 376 367 511 367 c 0
 613 367 l 1
 613 289 l 1
 511 289 l 0
 419 289 346 122 346 -82 c 0
 346 -184 l 1
 267 -184 l 1
 267 -82 l 0
EndSplineSet
EndChar

StartChar: uni256E
Encoding: 9582 9582 760
Width: 613
VWidth: 1046
Flags: MW
LayerCount: 2
Fore
SplineSet
0 289 m 1
 0 367 l 1
 102 367 l 0
 237 367 346 165 346 -82 c 0
 346 -184 l 1
 267 -184 l 1
 267 -82 l 0
 267 122 194 289 102 289 c 0
 0 289 l 1
EndSplineSet
EndChar

StartChar: uni256F
Encoding: 9583 9583 761
Width: 613
VWidth: 1046
Flags: MW
LayerCount: 2
Fore
SplineSet
0 287 m 1
 0 365 l 1
 102 365 l 0
 194 365 267 532 267 736 c 0
 267 838 l 1
 346 838 l 1
 346 736 l 0
 346 489 237 287 102 287 c 0
 0 287 l 1
EndSplineSet
EndChar

StartChar: uni2570
Encoding: 9584 9584 762
Width: 613
VWidth: 1046
Flags: MW
LayerCount: 2
Fore
SplineSet
267 736 m 0
 267 838 l 1
 346 838 l 1
 346 736 l 0
 346 532 419 365 511 365 c 0
 613 365 l 1
 613 287 l 1
 511 287 l 0
 376 287 267 489 267 736 c 0
EndSplineSet
EndChar

StartChar: uni2571
Encoding: 9585 9585 763
Width: 613
VWidth: 1046
Flags: MW
LayerCount: 2
Fore
SplineSet
657 838 m 0
 44 -184 l 0
 -44 -184 l 0
 569 838 l 0
 657 838 l 0
EndSplineSet
EndChar

StartChar: uni2572
Encoding: 9586 9586 764
Width: 613
VWidth: 1046
Flags: MW
LayerCount: 2
Fore
SplineSet
-44 838 m 0
 44 838 l 0
 657 -184 l 0
 569 -184 l 0
 -44 838 l 0
EndSplineSet
EndChar

StartChar: uni2573
Encoding: 9587 9587 765
Width: 613
VWidth: 1046
Flags: MW
LayerCount: 2
Fore
SplineSet
-44 838 m 1
 44 838 l 1
 306 401 l 1
 569 838 l 1
 657 838 l 1
 351 327 l 1
 657 -184 l 1
 569 -184 l 1
 306 253 l 1
 44 -184 l 1
 -44 -184 l 1
 262 327 l 1
 -44 838 l 1
EndSplineSet
EndChar

StartChar: uni2581
Encoding: 9601 9601 766
Width: 613
VWidth: 1046
Flags: MW
LayerCount: 2
Fore
SplineSet
0 -56 m 29
 613 -56 l 29
 613 -184 l 25
 0 -184 l 25
 0 -56 l 29
EndSplineSet
EndChar

StartChar: uni2582
Encoding: 9602 9602 767
Width: 613
VWidth: 1046
Flags: MW
LayerCount: 2
Fore
SplineSet
0 72 m 29
 613 72 l 29
 613 -184 l 25
 0 -184 l 25
 0 72 l 29
EndSplineSet
EndChar

StartChar: uni2583
Encoding: 9603 9603 768
Width: 613
VWidth: 1046
Flags: MW
LayerCount: 2
Fore
SplineSet
0 199 m 25
 613 199 l 25
 613 -184 l 25
 0 -184 l 25
 0 199 l 25
EndSplineSet
EndChar

StartChar: uni2585
Encoding: 9605 9605 769
Width: 613
VWidth: 1046
Flags: MW
LayerCount: 2
Fore
SplineSet
0 455 m 29
 613 455 l 29
 613 -184 l 25
 0 -184 l 25
 0 455 l 29
EndSplineSet
EndChar

StartChar: uni2586
Encoding: 9606 9606 770
Width: 613
VWidth: 1046
Flags: MW
LayerCount: 2
Fore
SplineSet
0 582 m 29
 613 582 l 29
 613 -184 l 25
 0 -184 l 25
 0 582 l 29
EndSplineSet
EndChar

StartChar: uni2587
Encoding: 9607 9607 771
Width: 613
VWidth: 1046
Flags: MW
LayerCount: 2
Fore
SplineSet
0 710 m 29
 613 710 l 29
 613 -184 l 25
 0 -184 l 25
 0 710 l 29
EndSplineSet
EndChar

StartChar: uni2589
Encoding: 9609 9609 772
Width: 613
VWidth: 1046
Flags: MW
LayerCount: 2
Fore
SplineSet
0 838 m 25
 536 838 l 29
 536 -184 l 29
 0 -184 l 25
 0 838 l 25
EndSplineSet
EndChar

StartChar: uni258A
Encoding: 9610 9610 773
Width: 613
VWidth: 1046
Flags: MW
LayerCount: 2
Fore
SplineSet
0 838 m 25
 460 838 l 29
 460 -184 l 29
 0 -184 l 25
 0 838 l 25
EndSplineSet
EndChar

StartChar: uni258B
Encoding: 9611 9611 774
Width: 613
VWidth: 1046
Flags: MW
LayerCount: 2
Fore
SplineSet
0 838 m 25
 383 838 l 29
 383 -184 l 29
 0 -184 l 25
 0 838 l 25
EndSplineSet
EndChar

StartChar: uni258D
Encoding: 9613 9613 775
Width: 613
VWidth: 1046
Flags: MW
LayerCount: 2
Fore
SplineSet
0 838 m 25
 230 838 l 29
 230 -184 l 29
 0 -184 l 25
 0 838 l 25
EndSplineSet
EndChar

StartChar: uni258E
Encoding: 9614 9614 776
Width: 613
VWidth: 1046
Flags: MW
LayerCount: 2
Fore
SplineSet
0 838 m 25
 153 838 l 29
 153 -184 l 29
 0 -184 l 25
 0 838 l 25
EndSplineSet
EndChar

StartChar: uni258F
Encoding: 9615 9615 777
Width: 613
VWidth: 1046
Flags: MW
LayerCount: 2
Fore
SplineSet
0 838 m 25
 77 838 l 25
 77 -184 l 25
 0 -184 l 25
 0 838 l 25
EndSplineSet
EndChar

StartChar: upblock
Encoding: 9600 9600 778
Width: 613
VWidth: 1046
Flags: MW
LayerCount: 2
Fore
SplineSet
0 838 m 29
 613 838 l 29
 613 327 l 29
 0 327 l 29
 0 838 l 29
EndSplineSet
EndChar

StartChar: rtblock
Encoding: 9616 9616 779
Width: 613
VWidth: 1046
Flags: MW
LayerCount: 2
Fore
SplineSet
306 838 m 25
 613 838 l 25
 613 -184 l 25
 306 -184 l 25
 306 838 l 25
EndSplineSet
EndChar

StartChar: ltshade
Encoding: 9617 9617 780
Width: 613
VWidth: 1046
Flags: MW
LayerCount: 2
Fore
SplineSet
613 -82 m 1
 613 -133 l 1
 552 -133 l 1
 552 -82 l 1
 613 -82 l 1
613 123 m 1
 613 72 l 1
 552 72 l 1
 552 123 l 1
 613 123 l 1
613 327 m 1
 613 276 l 1
 552 276 l 1
 552 327 l 1
 613 327 l 1
613 531 m 1
 613 480 l 1
 552 480 l 1
 552 531 l 1
 613 531 l 1
613 736 m 1
 613 685 l 1
 552 685 l 1
 552 736 l 1
 613 736 l 1
61 20 m 1
 61 -31 l 1
 0 -31 l 1
 0 20 l 1
 61 20 l 1
61 225 m 1
 61 174 l 1
 0 174 l 1
 0 225 l 1
 61 225 l 1
61 429 m 1
 61 378 l 1
 0 378 l 1
 0 429 l 1
 61 429 l 1
61 633 m 1
 61 582 l 1
 0 582 l 1
 0 633 l 1
 61 633 l 1
0 838 m 1
 61 838 l 1
 61 787 l 1
 0 787 l 1
 0 838 l 1
552 838 m 1
 552 787 l 1
 490 787 l 1
 490 838 l 1
 552 838 l 1
429 838 m 1
 429 787 l 1
 368 787 l 1
 368 838 l 1
 429 838 l 1
306 838 m 1
 306 787 l 1
 245 787 l 1
 245 838 l 1
 306 838 l 1
184 838 m 1
 184 787 l 1
 123 787 l 1
 123 838 l 1
 184 838 l 1
490 736 m 1
 490 685 l 1
 429 685 l 1
 429 736 l 1
 490 736 l 1
368 736 m 1
 368 685 l 1
 306 685 l 1
 306 736 l 1
 368 736 l 1
245 736 m 1
 245 685 l 1
 184 685 l 1
 184 736 l 1
 245 736 l 1
123 736 m 1
 123 685 l 1
 61 685 l 1
 61 736 l 1
 123 736 l 1
552 633 m 1
 552 582 l 1
 490 582 l 1
 490 633 l 1
 552 633 l 1
429 633 m 1
 429 582 l 1
 368 582 l 1
 368 633 l 1
 429 633 l 1
306 633 m 1
 306 582 l 1
 245 582 l 1
 245 633 l 1
 306 633 l 1
184 633 m 1
 184 582 l 1
 123 582 l 1
 123 633 l 1
 184 633 l 1
490 531 m 1
 490 480 l 1
 429 480 l 1
 429 531 l 1
 490 531 l 1
368 531 m 1
 368 480 l 1
 306 480 l 1
 306 531 l 1
 368 531 l 1
245 531 m 1
 245 480 l 1
 184 480 l 1
 184 531 l 1
 245 531 l 1
123 531 m 1
 123 480 l 1
 61 480 l 1
 61 531 l 1
 123 531 l 1
552 429 m 1
 552 378 l 1
 490 378 l 1
 490 429 l 1
 552 429 l 1
429 429 m 1
 429 378 l 1
 368 378 l 1
 368 429 l 1
 429 429 l 1
306 429 m 1
 306 378 l 1
 245 378 l 1
 245 429 l 1
 306 429 l 1
184 429 m 1
 184 378 l 1
 123 378 l 1
 123 429 l 1
 184 429 l 1
490 327 m 1
 490 276 l 1
 429 276 l 1
 429 327 l 1
 490 327 l 1
368 327 m 1
 368 276 l 1
 306 276 l 1
 306 327 l 1
 368 327 l 1
245 327 m 1
 245 276 l 1
 184 276 l 1
 184 327 l 1
 245 327 l 1
123 327 m 1
 123 276 l 1
 61 276 l 1
 61 327 l 1
 123 327 l 1
552 225 m 1
 552 174 l 1
 490 174 l 1
 490 225 l 1
 552 225 l 1
429 225 m 1
 429 174 l 1
 368 174 l 1
 368 225 l 1
 429 225 l 1
306 225 m 1
 306 174 l 1
 245 174 l 1
 245 225 l 1
 306 225 l 1
184 225 m 1
 184 174 l 1
 123 174 l 1
 123 225 l 1
 184 225 l 1
490 123 m 1
 490 72 l 1
 429 72 l 1
 429 123 l 1
 490 123 l 1
368 123 m 1
 368 72 l 1
 306 72 l 1
 306 123 l 1
 368 123 l 1
245 123 m 1
 245 72 l 1
 184 72 l 1
 184 123 l 1
 245 123 l 1
123 123 m 1
 123 72 l 1
 61 72 l 1
 61 123 l 1
 123 123 l 1
552 20 m 1
 552 -31 l 1
 490 -31 l 1
 490 20 l 1
 552 20 l 1
429 20 m 1
 429 -31 l 1
 368 -31 l 1
 368 20 l 1
 429 20 l 1
306 20 m 1
 306 -31 l 1
 245 -31 l 1
 245 20 l 1
 306 20 l 1
184 20 m 1
 184 -31 l 1
 123 -31 l 1
 123 20 l 1
 184 20 l 1
490 -82 m 1
 490 -133 l 1
 429 -133 l 1
 429 -82 l 1
 490 -82 l 1
368 -82 m 1
 368 -133 l 1
 306 -133 l 1
 306 -82 l 1
 368 -82 l 1
245 -82 m 1
 245 -133 l 1
 184 -133 l 1
 184 -82 l 1
 245 -82 l 1
123 -82 m 1
 123 -133 l 1
 61 -133 l 1
 61 -82 l 1
 123 -82 l 1
EndSplineSet
EndChar

StartChar: uni2594
Encoding: 9620 9620 781
Width: 613
VWidth: 1046
Flags: MW
LayerCount: 2
Fore
SplineSet
0 838 m 25
 613 838 l 25
 613 710 l 25
 0 710 l 25
 0 838 l 25
EndSplineSet
EndChar

StartChar: uni2595
Encoding: 9621 9621 782
Width: 613
VWidth: 1046
Flags: MW
LayerCount: 2
Fore
SplineSet
536 838 m 25
 613 838 l 25
 613 -184 l 25
 536 -184 l 25
 536 838 l 25
EndSplineSet
EndChar

StartChar: uni2596
Encoding: 9622 9622 783
Width: 613
VWidth: 1046
Flags: MW
LayerCount: 2
Fore
SplineSet
0 327 m 25
 306 327 l 25
 306 -184 l 25
 0 -184 l 25
 0 327 l 25
EndSplineSet
EndChar

StartChar: uni2597
Encoding: 9623 9623 784
Width: 613
VWidth: 1046
Flags: MW
LayerCount: 2
Fore
SplineSet
306 327 m 25
 613 327 l 25
 613 -184 l 25
 306 -184 l 25
 306 327 l 25
EndSplineSet
EndChar

StartChar: uni2598
Encoding: 9624 9624 785
Width: 613
VWidth: 1046
Flags: MW
LayerCount: 2
Fore
SplineSet
0 838 m 25
 306 838 l 25
 306 327 l 25
 0 327 l 25
 0 838 l 25
EndSplineSet
EndChar

StartChar: uni259D
Encoding: 9629 9629 786
Width: 613
VWidth: 1046
Flags: MW
LayerCount: 2
Fore
SplineSet
306 838 m 25
 613 838 l 25
 613 327 l 25
 306 327 l 25
 306 838 l 25
EndSplineSet
EndChar

StartChar: uni2599
Encoding: 9625 9625 787
Width: 613
VWidth: 1046
Flags: MW
LayerCount: 2
Fore
SplineSet
0 838 m 1
 306 838 l 1
 306 327 l 1
 613 327 l 1
 613 -184 l 1
 409 -184 204 -184 0 -184 c 1
 0 157 0 497 0 838 c 1
EndSplineSet
EndChar

StartChar: uni259A
Encoding: 9626 9626 788
Width: 613
VWidth: 1046
Flags: MW
LayerCount: 2
Fore
SplineSet
0 838 m 1
 306 838 l 1
 306 327 l 1
 613 327 l 1
 613 -184 l 1
 306 -184 l 1
 306 327 l 1
 0 327 l 1
 0 838 l 1
EndSplineSet
EndChar

